<?xml version="1.0" encoding="UTF-8"?><svg id="Layer_1" xmlns="http://www.w3.org/2000/svg" viewBox="0 0 109.5 109"><defs><style>.cls-1{fill:#f3f4f4;}.cls-2{fill:#e48b68;}</style></defs><polygon class="cls-2" points="12.05 7 97.05 7 89.05 93 55.05 103 20.05 93 12.05 7"/><g><polygon class="cls-1" points="28.3 36 79.56 36 80.56 25 27.3 25 28.3 36"/><polygon class="cls-1" points="75.3 79.76 65.3 72.76 66.56 58 77.56 58 75.3 79.76"/><polygon class="cls-1" points="75.3 79.76 54.3 85.76 54.21 75.22 69.56 70.7 75.3 79.76"/><polygon class="cls-1" points="54.3 85.76 33.3 79.76 41.68 72 56.19 75.81 54.3 85.76"/><polygon class="cls-1" points="42.3 72.76 33.3 79.76 30.3 63.76 41.3 63.76 42.3 72.76"/><polygon class="cls-1" points="66.56 58 77.56 58 79.56 35 68.56 35 66.56 58"/><polygon class="cls-1" points="68.56 58 42.56 58 41.56 47 68.56 47 68.56 58"/></g></svg>