<?xml version="1.0" encoding="UTF-8"?><svg id="Layer_1" xmlns="http://www.w3.org/2000/svg" viewBox="0 0 251 269"><defs><style>.cls-1{fill:#f3f4f4;}.cls-2{fill:#f8decc;}.cls-3{fill:#f1d3bf;}.cls-4{fill:#eaeaea;}.cls-5{fill:#e7c121;}.cls-6{fill:#f4f4f4;}.cls-7{fill:#fff;}.cls-8{fill:#876559;}.cls-9{fill:#d1aa8e;}.cls-10{fill:#dcdbda;}.cls-11{fill:#d7d7d7;}.cls-12{fill:#111;}.cls-13{fill:#1c1c1c;}</style></defs><g><path class="cls-7" d="M21.5,256c-.17,4.81-.86,9.91-.47,14.28"/><path class="cls-7" d="M20,256c-.18,4.75-.87,9.52-.47,14.28,.07,.81,.64,1.5,1.5,1.5,.76,0,1.57-.69,1.5-1.5-.4-4.76,.29-9.53,.47-14.28,.07-1.93-2.93-1.93-3,0h0Z"/></g><g><path class="cls-9" d="M163.65,106.69c.29,8.31,4.65,15.56,6.79,23.42,.57,2.1,1.02,4.23,1.5,6.36,.36,1.6,.66,3.42,1.89,4.62,1.48,1.44,3.52,.93,5.35,.71l6.69-.81c1.36-.16,1.89-1.49,1.06-2.56-4.56-5.85-9.39-11.58-13.64-17.67-1.88-2.7-3.49-5.56-4.27-8.78-.59-2.41-1.18-5.3-3.72-6.39-1.02-.44-2.78,.33-2.2,1.69,3,7.13,5.67,14.4,7.99,21.79,.57,1.83,1.13,3.66,1.66,5.5,.43,1.49,.82,3.04,1.83,4.27,2.07,2.52,5.5,2.16,8.36,1.59,.88-.18,1.46-1.45,.9-2.2l-11.19-14.86c-.45-.6-1.13-.93-1.87-.61-.63,.26-1.15,1.07-.87,1.77,1.48,3.71,3.09,7.37,4.88,10.94,.75,1.51,1.44,3.51,2.83,4.56,1.14,.85,2.92,.91,3.86-.3,.48-.61,.66-1.53,0-2.12l-3.44-3.1c-1.43-1.29-3.56,.83-2.12,2.12l3.44,3.1v-2.12c-.05,.07,.1,.07,.09,.06-.14-.27-.41-.52-.57-.8-.3-.54-.58-1.09-.86-1.64-.65-1.26-1.28-2.54-1.88-3.82-1.19-2.52-2.3-5.08-3.33-7.67l-2.74,1.16,11.19,14.86,.9-2.2c-1.26,.25-2.65,.53-3.92,.2s-1.79-1.37-2.16-2.55c-1.01-3.21-1.9-6.45-2.94-9.65-2.11-6.45-4.49-12.8-7.11-19.05l-2.2,1.69c1.14,.49,1.54,1.52,1.86,2.66,.39,1.38,.65,2.79,1.13,4.14,1.09,3.03,2.79,5.77,4.68,8.36,4.28,5.86,8.89,11.5,13.35,17.22l1.06-2.56-6.22,.75c-.92,.11-1.86,.29-2.79,.33-.74,.03-1.04-.09-1.35-.78-.7-1.55-.87-3.48-1.24-5.13-.43-1.89-.88-3.77-1.45-5.62-2.15-6.9-5.92-13.49-6.17-20.86-.07-1.93-3.07-1.93-3,0h0Z"/><g><g><path class="cls-9" d="M176.94,77.51c-.19,2.75,.85,5.56,2.79,7.52,1.48,1.5,3.42,2.51,4.78,4.11,2.41,2.84,2.54,6.89,3.6,10.46,1.58,5.32,5.55,9.87,10.59,12.18-3.58-.53-6.95-2.42-9.27-5.2,1.02,4.8,3.16,9.6,7.09,12.53s9.93,3.44,13.59,.18c-2.42,2.5-5.33,4.66-8.69,5.56s-7.23,.38-9.83-1.94c1.28,.72,2.27,1.85,3.18,3,2.61,3.35,4.66,7.37,4.63,11.62s-2.6,8.66-6.69,9.82c1.24-1.96,1.79-4.33,1.55-6.63-6.9-.43-13.05-4.92-17.08-10.54-4.03-5.62-6.25-12.31-8.26-18.92-1.4-4.61-2.72-9.3-3-14.11-.19-3.25,.1-6.52,.86-9.69,.48-1.98,1.18-3.99,2.58-5.47,1.96-2.07,4.92-2.78,7.37-4.23"/><path class="cls-9" d="M175.81,77.51c-.18,3.87,1.6,7.25,4.61,9.61,1.47,1.15,3.03,2.18,3.99,3.83s1.33,3.39,1.72,5.15c.77,3.52,1.71,6.82,3.84,9.8s4.9,5.31,8.17,6.84l.87-2.06c-3.46-.56-6.49-2.25-8.77-4.91-.78-.91-2.1,.08-1.88,1.09,1.15,5.28,3.62,10.72,8.35,13.71,4.32,2.73,10.23,2.89,14.22-.5l-1.59-1.59c-4.19,4.27-11.47,8.26-16.93,3.62l-1.36,1.77c2.04,1.24,3.51,3.4,4.71,5.41,1.31,2.18,2.32,4.62,2.5,7.18,.29,4.04-1.72,8.53-5.82,9.79l1.27,1.65c1.32-2.18,1.92-4.66,1.7-7.2-.05-.64-.47-1.08-1.12-1.12-9.89-.73-16.69-9.2-20.4-17.65-2.12-4.82-3.65-9.95-5.03-15.03-1.47-5.37-2.35-10.87-1.5-16.43,.42-2.74,1.01-5.98,3.1-7.99,1.89-1.81,4.63-2.5,6.87-3.78,1.26-.72,.12-2.66-1.14-1.94-2.22,1.27-4.74,2-6.74,3.63s-3,3.94-3.62,6.35c-1.5,5.8-1.24,11.78,.07,17.58s3.07,11.43,5.26,16.84c2.02,4.99,4.66,9.8,8.52,13.61,3.96,3.91,9.01,6.63,14.62,7.05l-1.12-1.12c.19,2.18-.26,4.19-1.39,6.07-.5,.83,.33,1.94,1.27,1.65,4.87-1.5,7.7-6.6,7.5-11.54-.12-2.96-1.15-5.81-2.61-8.36s-3.26-5.09-5.74-6.59c-1.07-.65-2.35,.92-1.36,1.77,2.83,2.41,6.59,3.13,10.2,2.4,3.87-.79,7.2-3.25,9.91-6.02,1.03-1.05-.5-2.52-1.59-1.59-3.41,2.9-8.65,2.25-12.08-.25-3.83-2.8-5.74-7.48-6.72-11.96l-1.88,1.09c2.5,2.92,5.97,4.87,9.76,5.49,1.15,.19,2.12-1.47,.87-2.06-3.15-1.48-5.87-3.75-7.79-6.66s-2.58-6.06-3.35-9.4-2.09-6.09-4.86-8.25c-1.38-1.08-2.83-2.07-3.8-3.56-1.06-1.63-1.5-3.49-1.41-5.42,.07-1.45-2.18-1.44-2.25,0h0Z"/></g><g><path class="cls-9" d="M119.22,9.14c-9.78-1.33-20.1,4.47-24.03,13.52-1.34,3.09-1.99,6.43-2.37,9.77-1.31,11.37,.29,22.85,1.88,34.19,1.08,7.69,2.27,15.67,6.6,22.12-.43-4.72,0-9.48-.22-14.21-.44-9.35-3.4-18.43-4.07-27.76s1.58-19.76,9.15-25.27c3.01-2.19,6.59-3.4,10.15-4.48,3.75-1.13,7.55-2.14,11.4-2.85,3.33-.61,6.74-1,10.08-.5,6.32,.95,11.73,4.94,16.53,9.15,5.08,4.46,9.86,9.36,13.41,15.11,5.55,8.97,7.86,19.52,10.08,29.84l1.95,9.08c.42,1.94,.85,3.92,1.86,5.63s2.72,3.13,4.7,3.27c-2.62-3.6-4.42-7.79-5.22-12.17-.93-5.04-.55-10.22-.99-15.33-.97-11.26-5.96-21.98-13.2-30.66-7.24-8.67-16.66-15.38-26.81-20.34-3.42-1.67-7.13-3.18-10.9-2.73-3.73,.44-6.95,2.72-9.99,4.94"/><path class="cls-9" d="M119.22,8.02c-11.22-1.43-22.41,5.8-25.93,16.49-2.25,6.83-2.3,14.5-1.96,21.61,.36,7.54,1.45,15.03,2.52,22.49s2.41,14.54,6.48,20.7c.56,.85,2.2,.62,2.1-.57-.3-3.59-.15-7.18-.15-10.78s-.28-6.91-.78-10.35c-1-6.81-2.77-13.5-3.32-20.37-.42-5.36,.03-10.9,2.01-15.94s5.85-9.12,11.02-11.32c3.04-1.3,6.29-2.18,9.48-3.04,3.4-.92,6.88-1.75,10.38-2.15s6.64-.26,9.85,.79c2.87,.95,5.5,2.51,7.95,4.27,5.08,3.65,9.8,8.16,13.79,12.96s7.07,10.5,9.2,16.5c2.43,6.87,3.87,14.04,5.4,21.15,.76,3.56,1.23,7.39,2.56,10.79,1.13,2.9,3.3,5.26,6.52,5.62,.82,.09,1.44-1.03,.97-1.69-2.34-3.27-4.02-6.92-4.89-10.85-.96-4.33-.81-8.8-.99-13.2-.32-7.83-2.31-15.39-5.82-22.4-6.91-13.76-19-24.17-32.49-31.22-3.93-2.05-8.22-4.28-12.77-4.19s-8.2,2.64-11.68,5.16c-1.16,.84-.04,2.8,1.14,1.94,3-2.18,6.26-4.6,10.1-4.84,4.09-.26,8,1.76,11.53,3.58,6.55,3.37,12.75,7.48,18.21,12.44,11.17,10.17,18.88,24.01,19.54,39.28,.2,4.62,.06,9.28,1.04,13.83,.9,4.17,2.69,8.13,5.17,11.6l.97-1.69c-3.47-.38-4.65-4.38-5.29-7.23-.77-3.44-1.48-6.9-2.22-10.34-1.39-6.46-2.81-12.94-5.09-19.16s-5.18-11.44-9.2-16.34c-4.01-4.9-8.77-9.36-13.84-13.15s-11.08-6.41-17.68-6.04-13.53,2.31-19.85,4.48c-5.54,1.9-10.3,4.94-13.33,10.08-2.71,4.59-3.84,10-4.02,15.29-.26,7.43,1.55,14.74,2.85,22,.72,3.98,1.27,7.98,1.35,12.02s-.18,8.34,.17,12.5l2.1-.57c-3.44-5.22-4.86-11.33-5.84-17.42-1.1-6.86-2.05-13.79-2.61-20.71s-.7-14.08,.61-20.93c1.08-5.66,3.66-10.65,8.26-14.22s10.64-5.36,16.52-4.61c1.43,.18,1.42-2.07,0-2.25h0Z"/></g><g><g><g><path class="cls-3" d="M168.98,60.59l6.15-5.77c.65-.61,1.38-1.26,2.28-1.31,.88-.05,1.7,.51,2.2,1.24s.73,1.59,.95,2.45c.51,1.96,.98,3.95,1.01,5.97,.03,3.1-1,6.1-2.03,9.03-.43,1.23-.87,2.47-1.59,3.56-1.63,2.45-4.74,3.83-7.65,3.39l-1.87-16.84c-.09-.77,.14-1.89,.91-1.8"/><path class="cls-3" d="M170.04,61.65l3.98-3.73c.72-.68,1.44-1.37,2.17-2.04,.39-.36,.95-1.01,1.55-.83,1.21,.35,1.48,2.91,1.72,3.9,.42,1.77,.7,3.54,.57,5.37-.12,1.72-.59,3.4-1.11,5.04s-.98,3.22-1.72,4.69c-1.33,2.62-4,3.94-6.89,3.58l1.5,1.5-1.05-9.41-.5-4.46c-.09-.83-.19-1.65-.28-2.48-.03-.25-.03-.51-.07-.76-.12-.78,.53-.1-.57-.03,1.92-.11,1.93-3.11,0-3-3.74,.21-2.14,5.77-1.89,8.01l1.35,12.14c.1,.89,.61,1.39,1.5,1.5,3.77,.47,7.59-1.53,9.39-4.88,1.04-1.94,1.7-4.18,2.33-6.27s1.1-4.34,1.04-6.56-.56-4.39-1.15-6.51c-.5-1.81-1.42-3.7-3.37-4.27-2.16-.63-3.75,.93-5.19,2.28l-5.43,5.09c-1.41,1.32,.71,3.44,2.12,2.12h0Z"/></g><g><g><g><path class="cls-3" d="M166.42,92.45c-1.12,10.64-1.38,21.38-.77,32.06-11,1.62-22.16-.9-32.86-3.91-2.4-.67-4.84-1.4-6.84-2.88s-3.5-3.89-3.22-6.36c7.15,.14,14.32-.72,21.23-2.57,3.79-1.01,7.57-2.36,10.65-4.77,4.38-3.43,7.08-8.81,11.86-11.65,.48,1.46,.36,3.1-.33,4.47"/><path class="cls-3" d="M164.92,92.45c-1.11,10.65-1.37,21.37-.77,32.06l1.1-1.45c-8.01,1.14-16.14,.02-23.96-1.8-3.71-.86-7.5-1.74-11.09-3.03-3.01-1.08-6.25-3.28-5.97-6.88l-1.5,1.5c8.99,.15,18.64-.96,27.02-4.4,3.74-1.54,6.79-3.81,9.47-6.82,2.5-2.82,4.76-5.98,8.02-7.98l-2.2-.9c.33,1.13,.31,2.24-.18,3.32-.8,1.74,1.78,3.27,2.59,1.51s1.05-3.69,.49-5.63c-.26-.91-1.37-1.41-2.2-.9-3.17,1.95-5.48,4.8-7.87,7.59-2.53,2.94-5.24,5.35-8.85,6.89-3.92,1.67-8.23,2.61-12.42,3.31-4.57,.77-9.21,1.08-13.84,1-.86-.01-1.44,.7-1.5,1.5-.71,8.96,11.53,10.92,17.86,12.46,8.83,2.15,17.89,3.42,26.96,2.13,.61-.09,1.13-.85,1.1-1.45-.59-10.69-.34-21.41,.77-32.06,.2-1.92-2.8-1.9-3,0h0Z"/></g><g><path class="cls-2" d="M96.85,36.89c.47,12.37,1.97,24.68,3.47,36.97,.41,3.38,.83,6.77,1.65,10.08,1.53,6.11,4.42,11.79,7.68,17.18,2.02,3.34,4.21,6.62,7.07,9.28,8.42,7.82,22.1,8.75,32.05,3.01,7.09-4.09,12.14-10.88,16.98-17.48,.86-1.17,1.73-2.36,2.3-3.7,.61-1.43,.86-2.98,1.01-4.53,.42-4.15,.23-8.33,.02-12.49-.56-11.16-1.29-22.48-4.99-33.02-3.35-9.54-9.13-18.21-16.64-24.98-2.85-2.57-5.99-4.89-9.56-6.31-9.47-3.75-20.59-.4-28.57,5.93-6.63,5.26-11.79,12.89-12.35,21.32"/><path class="cls-2" d="M95.35,36.89c.45,11.39,1.74,22.71,3.11,34.02,.65,5.38,1.16,10.83,2.8,16.02,1.56,4.91,3.9,9.55,6.52,13.98,2.47,4.17,5.19,8.39,8.97,11.5,3.17,2.6,6.93,4.43,10.92,5.37,8.34,1.97,17.3,.3,24.3-4.64,3.85-2.72,7.1-6.15,10.04-9.81,1.52-1.89,2.98-3.84,4.42-5.8s2.89-3.91,3.54-6.3c1.39-5.1,.87-10.81,.61-16.02s-.57-10.56-1.2-15.81c-1.23-10.15-3.83-20.01-9.09-28.85-2.4-4.03-5.26-7.81-8.5-11.21s-7.06-6.8-11.39-8.95c-16.76-8.3-38.16,4.7-43.66,21.31-.69,2.09-1.09,4.26-1.26,6.46-.14,1.93,2.86,1.92,3,0,.63-8.37,5.96-15.85,12.55-20.76,6.67-4.96,15.56-8.03,23.85-5.9,4.4,1.13,8.18,3.76,11.52,6.77s6.28,6.31,8.82,9.95c5.38,7.68,8.67,16.39,10.32,25.59,.88,4.92,1.34,9.9,1.67,14.88,.33,5.04,.71,10.12,.58,15.17-.06,2.38-.12,4.9-.9,7.17s-2.34,4-3.68,5.81c-2.65,3.59-5.4,7.13-8.63,10.23-5.97,5.74-13.52,9.01-21.87,8.45-3.8-.26-7.58-1.34-10.89-3.24-3.78-2.17-6.63-5.4-9.02-8.99-2.62-3.95-5.01-8.14-6.9-12.49-2.02-4.65-3.13-9.52-3.79-14.53-1.36-10.46-2.61-20.95-3.34-31.47-.18-2.63-.33-5.27-.43-7.91-.08-1.92-3.08-1.93-3,0h0Z"/></g></g><g><g><path class="cls-12" d="M165.87,116.94c.11,.38,.21,.76,.3,1.15,.05,.21,.08,.43,.13,.65,.06,.24-.02-.21,0,.03,0,.1,.02,.19,.03,.29,.01,.19,.02,.38,.02,.57,0,.1,0,.19-.01,.29,0,.03-.04,.31-.01,.16,.02-.14-.01,.05-.02,.08-.01,.06-.03,.12-.04,.18-.03,.13-.07,.27-.12,.4,0,.02-.08,.16-.07,.18-.02-.03,.14-.3,.04-.1-.06,.12-.12,.23-.18,.35s-.14,.23-.22,.34c-.03,.04-.11,.12-.12,.17,.01-.08,.17-.21,.03-.05-.22,.24-.44,.48-.69,.69-.06,.05-.13,.1-.19,.16-.17,.14,.19-.12,0,0-.17,.11-.33,.23-.51,.34-.66,.42-.99,1.35-.54,2.05s1.34,.99,2.05,.54c1.46-.92,2.64-2.14,3.25-3.78,.66-1.77,.24-3.71-.24-5.46-.21-.76-1.07-1.3-1.85-1.05s-1.27,1.03-1.05,1.85h0Z"/><g><path class="cls-11" d="M165.95,116.95c.99,1.04,2.66,2.63,2.17,4.24s-2.7,2.14-4.17,2.21c-3.79,.2-7.72-.26-11.49-.57-7.66-.64-15.31-1.79-22.68-4.03-4.17-1.27-8.21-2.9-12.05-4.96-1.43-.76-3.21,1.25-1.82,2.36,3.66,2.92,8.06,4.3,12.49,5.6,5.2,1.52,10.41,3.01,15.64,4.46s10.57,2.93,15.89,4.27c4.34,1.1,8.81,.74,12.08-2.66,1.53-1.6,2.9-3.91,1.99-6.14-.44-1.08-1.27-1.92-2.07-2.74-1.09-1.12-2.17-2.25-3.26-3.37-1.35-1.39-3.47,.73-2.12,2.12,1.42,1.47,3.11,2.88,4.33,4.53,1.11,1.49-.63,3.3-1.8,4.22-3.49,2.75-7.53,1.37-11.4,.35-8.97-2.37-17.92-4.85-26.83-7.45-4.4-1.28-9.17-2.39-12.82-5.31l-1.82,2.36c7.82,4.19,16.39,6.66,25.12,8.06,4.49,.72,9.01,1.2,13.55,1.52,2.2,.15,4.39,.28,6.59,.36s4.33,.09,6.31-.84,3.38-2.69,3.42-4.84c.04-2.34-1.6-4.27-3.12-5.87-1.33-1.4-3.45,.72-2.12,2.12h0Z"/><path class="cls-11" d="M170.01,123.03c-.97,2.71-4.79,2.87-7.16,3.01-3.12,.18-6.26,.2-9.22-.98-.75-.3-1.65,.33-1.85,1.05-.23,.85,.29,1.54,1.05,1.85,3.57,1.42,7.57,1.31,11.33,1s7.41-1.41,8.74-5.12c.65-1.82-2.24-2.6-2.89-.8h0Z"/><path class="cls-13" d="M168.42,119.34c.45-.2,.94-.4,1.44-.44s.89,.14,1.27,.46c.71,.6,1.45,1.24,1.9,2.07,.23,.42,.88,.05,.65-.38-.27-.49-.63-.93-1.03-1.32s-.82-.78-1.26-1.12c-1.05-.79-2.26-.4-3.35,.08-.19,.08-.23,.35-.13,.51,.11,.19,.33,.21,.51,.13h0Z"/><path class="cls-13" d="M162.08,123.45c-2.81,.06-4.48,2.77-7.19,3.22-3.2,.53-6.47-.23-9.58-.93-.47-.11-.67,.61-.2,.72,1.88,.43,3.78,.83,5.68,1.18,1.75,.32,3.55,.74,5.34,.82,1.38,.07,2.6-.3,3.58-1.3s1.63-2.42,2.99-2.94l-.29-.69-.1,.05,.45,.06-.08-.08-.08,.59,.1-.06-.45-.06,.09,.07,.27-.64c-1.34,.13-2.28,.95-3.18,1.89-1.31,1.38-2.67,2.4-4.67,1.86v.72c1.76-.36,4.42-.49,5.05-2.55,.09-.3-.28-.61-.55-.42-2.22,1.53-5.01,3.34-7.77,2.06-.43-.2-.82,.44-.38,.65,3.04,1.42,6.03-.34,8.52-2.06l-.55-.42c-.51,1.66-3.11,1.73-4.53,2.02-.37,.08-.34,.63,0,.72,1.43,.39,2.91,.14,4.09-.77,1.29-1,2.18-2.77,3.96-2.95,.28-.03,.55-.42,.27-.64l-.09-.07c-.13-.1-.3-.16-.45-.06l-.1,.06c-.21,.14-.25,.41-.08,.59l.08,.08c.12,.13,.3,.13,.45,.06l.1-.05c.38-.17,.11-.84-.29-.69-1.11,.42-1.81,1.28-2.52,2.19-1.04,1.32-2.08,2.11-3.85,2.02s-3.56-.5-5.3-.82c-1.85-.34-3.68-.73-5.51-1.15l-.2,.72c3.03,.68,6.15,1.37,9.27,1.03,1.31-.15,2.43-.52,3.52-1.25,1.3-.88,2.51-2,4.17-2.04,.48,0,.48-.76,0-.75h0Z"/><path class="cls-13" d="M128.5,121.88c1.53-.09,3.07,0,4.58,.3,.47,.09,.67-.63,.2-.72-1.57-.3-3.18-.41-4.78-.32-.48,.03-.48,.78,0,.75h0Z"/><path class="cls-13" d="M117.13,114.17c-.06,1.15,.16,2.28,.61,3.33,.08,.19,.35,.23,.51,.13,.19-.11,.21-.33,.13-.51-.4-.93-.56-1.94-.51-2.95,.01-.2-.18-.38-.38-.38-.21,0-.36,.17-.38,.38h0Z"/><path class="cls-13" d="M115.8,114.07c-.16,.61-.21,1.25-.14,1.88,.02,.19,.16,.38,.38,.38,.18,0,.4-.17,.38-.38-.03-.29-.04-.59-.02-.88,0-.07,.01-.14,.02-.2v-.07s.01-.04,0-.02c0,.03,0,.02,0-.02v-.07c.03-.15,.07-.29,.1-.43,.05-.19-.06-.42-.26-.46s-.41,.06-.46,.26h0Z"/><path class="cls-13" d="M166.91,117.68c.14-.2,.43-.28,.65-.35,.26-.08,.54-.13,.81-.15,.47-.03,1.1-.02,1.44,.36,.26,.28,.69-.14,.42-.42-.47-.51-1.28-.58-1.92-.53s-1.52,.21-1.92,.79c-.09,.13-.02,.33,.11,.41,.15,.09,.32,.03,.41-.11h0Z"/><path class="cls-13" d="M168.62,120.9c.83-.15,1.71,0,2.45,.41,.82,.46,1.29,1.21,1.44,2.14,.27,1.63-.13,3.7-1.64,4.61-.41,.25-.04,.9,.38,.65,1.84-1.12,2.35-3.59,1.96-5.59-.44-2.2-2.68-3.31-4.79-2.94-.47,.08-.27,.81,.2,.72h0Z"/><path class="cls-13" d="M173.03,126.19c-.03-.6-.08-1.22,.06-1.81,.07-.3,.17-.59,.17-.91s-.09-.62-.23-.91c-.09-.18-.35-.23-.51-.13-.19,.11-.22,.33-.13,.51,.1,.21,.15,.45,.12,.68-.03,.28-.14,.54-.18,.82-.09,.58-.07,1.17-.04,1.76,.01,.2,.16,.38,.38,.38,.19,0,.39-.17,.38-.38h0Z"/><path class="cls-13" d="M159.15,130.36c1.72-.06,3.26-.98,4.33-2.31,.56-.69,1-1.47,1.36-2.28,.19-.42,.33-.85,.52-1.27,.24-.52,.6-.7,1.13-.86,.39-.11,.33-.79-.1-.74l-.31,.04,.1,.74c.42-.06,.8-.22,1.14-.48,.31-.23,.15-.85-.29-.69l-.45,.17,.2,.72,.85-.34-.29-.69-.2,.1,.45,.59,.39-.36c.36-.34-.16-.82-.53-.53l-.33,.25,.63,.36c-.12,.05-.15,.13-.11,.24,0,.11,0,.22-.02,.33-.03,.19-.08,.37-.15,.55-.15,.38-.38,.73-.61,1.06-.44,.63-.93,1.22-1.22,1.94-.14,.35-.21,.7-.24,1.08s.03,.81-.1,1.19c-.22,.65-1.28,1.43-1.98,1.11-.44-.2-.82,.45-.38,.65,1,.45,2.13-.15,2.77-.96,.37-.48,.42-1.04,.43-1.62,.01-.67,.16-1.22,.52-1.8,.63-1.02,1.55-1.91,1.71-3.15,.05-.42,.04-.95-.36-1.21-.37-.23-.88-.04-.98,.38-.09,.39,.34,.59,.63,.36l.33-.25-.53-.53-.39,.36c-.33,.3,.09,.77,.45,.59l.2-.1c.37-.19,.11-.84-.29-.69l-.85,.34c-.44,.17-.26,.89,.2,.72l.45-.17-.29-.69c-.3,.22-.59,.34-.96,.4-.41,.06-.32,.79,.1,.74l.31-.04-.1-.74c-.85,.25-1.35,.64-1.69,1.47s-.68,1.69-1.18,2.47c-.94,1.49-2.44,2.69-4.26,2.75-.48,.02-.48,.77,0,.75h0Z"/><path class="cls-13" d="M166.24,127.92c-.04-.89,.28-1.63,.8-2.33s1.07-1.43,.96-2.33c-.03-.25-.21-.42-.47-.36-.54,.12-1.08,.27-1.59,.47-.48,.18-.92,.4-1.23,.82-.12,.16-.03,.42,.13,.51,.19,.11,.39,.03,.51-.13,.23-.31,.68-.44,1.03-.56,.44-.16,.9-.28,1.35-.38l-.47-.36c.11,.88-.59,1.55-1.05,2.21-.49,.72-.75,1.57-.71,2.44,.02,.48,.77,.48,.75,0h0Z"/><path class="cls-13" d="M167.12,123.42l-.06,.24,.63-.17c-.34-.27-.72-.37-1.15-.26-.4,.1-.33,.77,.1,.74,.54-.05-.17,.8-.27,.92-.32,.38-.55,.81-.69,1.29s-.16,.95-.16,1.44,.01,1.01-.2,1.48c-.2,.44,.45,.82,.65,.38,.53-1.16,.04-2.48,.65-3.62,.27-.51,.81-.88,.94-1.47s-.28-1.22-.92-1.17l.1,.74c.14-.04,.3-.03,.42,.07,.21,.17,.55,.13,.63-.17l.06-.24c.12-.47-.6-.67-.72-.2h0Z"/><path class="cls-13" d="M167.96,130.36c.85-1.3,1.9-2.59,2.29-4.12,.18-.72,.25-1.47,.25-2.22,0-.62,.05-1.35-.47-1.8-.25-.22-.62-.07-.64,.27-.04,.67,.27,1.27,.31,1.93,.04,.69-.62,.93-.94,1.45-.17,.27-.2,.57-.21,.89-.01,.41-.11,.77-.25,1.15-.15,.41-.32,.82-.47,1.22-.1,.27-.22,.86-.53,.97-.45,.17-.25,.89,.2,.72,.76-.29,.93-1.18,1.2-1.86,.17-.44,.37-.89,.5-1.35,.05-.2,.09-.4,.11-.6,.02-.22-.03-.47,.06-.68,.12-.29,.45-.48,.65-.7,.23-.25,.39-.55,.43-.89,.1-.77-.35-1.49-.3-2.25l-.64,.27c.42,.36,.26,1.27,.24,1.77-.03,.65-.12,1.3-.33,1.93s-.58,1.21-.95,1.78-.76,1.17-1.14,1.75c-.26,.41,.38,.78,.65,.38h0Z"/><path class="cls-13" d="M169.56,125.81c-.21,.25-.4,.52-.53,.82-.03,.04-.04,.09-.04,.14-.01,.05,0,.1,0,.15,.02,.09,.09,.18,.17,.22,.09,.05,.19,.07,.29,.04,.09-.03,.18-.09,.22-.17,.1-.22,.23-.43,.37-.62l-.06,.08s.07-.08,.1-.12c.07-.08,.11-.16,.11-.27,0-.09-.04-.2-.11-.27s-.17-.11-.27-.11c-.09,0-.2,.03-.27,.11h0Z"/><path class="cls-13" d="M159.85,125.6c.72-.71,1.62-1.13,2.61-1.27,.44-.06,.29-.7-.1-.74l-.37-.03,.19,.7c.35-.2,.75-.2,1.15-.24,.45-.04,.89-.09,1.33-.16,.89-.14,1.77-.34,2.63-.6,.46-.14,.26-.86-.2-.72-.91,.27-1.83,.49-2.77,.62-.82,.12-1.78,.03-2.51,.45-.34,.19-.16,.67,.19,.7l.37,.03-.1-.74c-1.11,.16-2.14,.67-2.94,1.47-.34,.34,.19,.87,.53,.53h0Z"/><path class="cls-13" d="M156.18,123.1c-.3,.15-.4,.47-.49,.77-.07,.25-.21,.45-.44,.63-.49,.39-1.2,.48-1.82,.56-.2,.02-.38,.15-.38,.38,0,.18,.17,.4,.38,.38,.75-.09,1.54-.19,2.17-.64,.28-.2,.53-.44,.68-.75,.07-.15,.12-.3,.17-.46,0-.03,.02-.06,.03-.1,0-.02,.04-.08,.01-.04,0,0,.06-.09,.02-.05,.05-.05-.02,0,.05-.03,.18-.09,.23-.35,.13-.51-.11-.18-.33-.23-.51-.13h0Z"/><path class="cls-13" d="M153.9,123.02c-.82,.81-2.13,.74-3.19,.74-1.25-.01-2.5-.12-3.74-.18-1.18-.06-2.37-.08-3.54,.1-.97,.14-1.63,.61-2.33,1.27-.35,.33,.17,.85,.53,.53,.66-.59,2.85-1.9,1.57-2.92-.52-.41-1.34-.48-1.96-.64-.83-.22-1.67-.38-2.39-.87-.4-.27-.78,.38-.38,.65,.84,.57,1.86,.76,2.83,1.01,.46,.12,1.67,.23,1.26,.94-.26,.45-1.07,.95-1.46,1.29l.53,.53c.46-.43,.9-.82,1.52-.99s1.27-.17,1.88-.19c1.25-.03,2.49,.06,3.74,.14,1.76,.1,4.28,.49,5.67-.88,.34-.34-.19-.87-.53-.53h0Z"/><path class="cls-13" d="M144.81,124.12c.65-.2,1.32-.3,2-.25s1.37,.27,2.06,.38c1.29,.21,2.6,.17,3.9,.12v-.75c-1.07,.1-2.15,.17-3.23,.11s-2.15-.25-3.22-.34c-1.92-.17-3.77,.15-5.37,1.28-.39,.28-.02,.93,.38,.65,1.65-1.16,3.48-1.35,5.44-1.13,.97,.11,1.93,.26,2.9,.3,1.04,.04,2.08-.02,3.11-.12,.47-.04,.49-.77,0-.75-1.45,.05-2.9,.09-4.33-.22-1.32-.29-2.53-.41-3.84,0-.46,.14-.26,.87,.2,.72h0Z"/><path class="cls-13" d="M152.53,124.28l.95-.21c.31-.07,.6-.15,.85-.37,.15-.13,.14-.4,0-.53-.16-.14-.37-.14-.53,0-.03,.03-.02,.02,.02-.01-.01,0-.03,.02-.04,.03-.02,.01-.04,.03-.07,.04-.02,0-.03,.02-.05,.02,.05-.02,.06-.02,.02,0-.02,0-.05,.02-.07,.03-.13,.04-.26,.07-.39,.1l-.89,.2c-.19,.04-.32,.27-.26,.46,.07,.2,.26,.31,.46,.26h0Z"/><path class="cls-13" d="M147.01,122.2c-.88-.11-1.78-.18-2.6,.22-.18,.09-.23,.35-.13,.51,.11,.19,.33,.22,.51,.13,.12-.06,.31-.12,.49-.16s.33-.05,.54-.05c.4,0,.8,.04,1.19,.09,.2,.02,.38-.19,.38-.38-.01-.22-.17-.35-.38-.38h0Z"/><path class="cls-13" d="M134.85,123.75c.79-.05,1.7,.02,2.47-.18,.43-.11,.84-.48,.78-.97-.07-.53-.62-.73-1.06-.88-.88-.32-1.63-.64-2.41-1.15-.59-.39-1.23-.51-1.92-.61-.91-.12-1.82-.2-2.73-.25-1.91-.1-3.83-.03-5.73,.19-.47,.05-.48,.81,0,.75,2.77-.32,5.57-.32,8.33,.04,.7,.09,1.26,.24,1.85,.64,.48,.33,.97,.59,1.51,.79,.3,.11,.61,.2,.9,.31,.15,.04,.29,.11,.43,.18-.07,.23-.23,.31-.47,.26-.65,.06-1.3,.08-1.95,.12-.48,.03-.48,.78,0,.75h0Z"/><path class="cls-13" d="M118.78,114.89c.11,.45,.25,.9,.42,1.33s.4,.79,.76,1.11c.62,.55,1.11,1.19,1.38,1.98,.16,.45,.88,.26,.72-.2-.14-.4-.28-.81-.43-1.21-.08-.21-.16-.43-.24-.64-.07-.18-.12-.37-.22-.53s-.26-.27-.45-.33c-.13-.04-.27-.04-.37-.15-.13-.15-.22-.36-.32-.53l-.35-.59c-.25-.41-.9-.04-.65,.38,.22,.36,.42,.74,.66,1.09,.1,.15,.21,.29,.38,.37,.09,.04,.18,.07,.27,.1,.05,.01,.15,.02,.2,.06,.07,.06,.12,.3,.16,.41,.07,.19,.14,.38,.21,.56,.15,.4,.29,.81,.43,1.21l.72-.2c-.28-.8-.74-1.52-1.35-2.11-.31-.3-.61-.54-.78-.95-.18-.44-.32-.91-.44-1.37s-.84-.27-.72,.2h0Z"/><path class="cls-13" d="M121.34,119.23c.18,.21,.39,.39,.62,.54,.04,.03,.09,.04,.14,.04,.05,.01,.1,0,.15,0,.09-.02,.18-.09,.22-.17,.05-.09,.07-.19,.04-.29l-.04-.09c-.03-.06-.08-.1-.13-.13-.05-.03-.1-.07-.15-.11l.08,.06c-.14-.11-.28-.24-.4-.37-.03-.04-.07-.06-.12-.08-.04-.02-.09-.03-.14-.03-.09,0-.2,.04-.27,.11s-.11,.17-.11,.27v.1c.03,.06,.06,.12,.11,.17h0Z"/><path class="cls-13" d="M126.42,117.76c-1.09-.45-2.44-.3-3.4,.4-.16,.12-.24,.33-.13,.51,.09,.16,.35,.25,.51,.13,.83-.6,1.89-.71,2.82-.32,.19,.08,.41-.08,.46-.26,.06-.22-.07-.38-.26-.46h0Z"/></g></g><g><g><path class="cls-1" d="M124.62,119.67c2.9,.36,5.42,2.01,8.1,3.12,5.25,2.17,11.17,2.26,16.64,3.86,3.46,1.01,6.76,2.63,10.34,3.16,1.23,.18,2.51,.22,3.71-.08,1.01-.25,1.94-.74,2.86-1.23l5.13-2.7c.47-.25,.98-.5,1.51-.45,.67,.06,1.2,.6,1.43,1.21s.22,1.26,.21,1.91c-.02,.85-.03,1.73-.34,2.53-.23,.61-.63,1.16-.92,1.74-2.05,4.04,.68,8.94-.38,13.31-.27,1.11-.78,2.16-1.35,3.17-2.1,3.72-5.48,7.19-9.84,7.75l-3.7-4.06c-1.48-1.63-2.97-3.26-4.65-4.69-1.5-1.28-3.16-2.39-4.59-3.74-1.45-1.36-2.66-2.94-4-4.41-3.2-3.51-7.12-6.33-10.81-9.37s-7.23-6.41-9.35-10.61"/><path class="cls-1" d="M124.22,121.12c2.8,.41,5.18,1.89,7.74,2.97,2.75,1.16,5.66,1.78,8.6,2.29s5.8,.94,8.62,1.78,5.5,2.06,8.35,2.75c3.05,.73,5.86,.71,8.71-.7,1.35-.67,2.67-1.4,4-2.1,.64-.34,1.27-.72,1.92-1.01,.36-.16,.48-.36,.75-.08,.21,.21,.15,.81,.15,1.06,.04,1.41-.22,2.33-.88,3.55s-1.03,2.49-1.14,3.89c-.22,2.61,.54,5.17,.62,7.77,.09,2.99-1.39,5.67-3.26,7.93s-4.17,3.87-7.07,4.3l1.46,.39c-3.01-3.3-5.89-6.83-9.41-9.61-1.81-1.43-3.58-2.8-5.12-4.52-1.46-1.63-2.85-3.31-4.44-4.82-6.06-5.73-13.94-9.97-17.89-17.61-.89-1.72-3.48-.2-2.59,1.51,4.59,8.88,14.05,13.26,20.55,20.45,1.75,1.94,3.35,3.93,5.4,5.57s3.97,3.14,5.74,4.99,3.49,3.91,5.3,5.79c.9,.93,1.69,.85,2.9,.55,1.07-.27,2.12-.71,3.07-1.26,3.62-2.08,6.76-6.08,7.95-10.09,.64-2.15,.41-4.4,.11-6.59s-.76-4.55,.14-6.6c.43-.99,1.09-1.82,1.33-2.9,.26-1.17,.31-2.48,.16-3.67-.27-2.1-2.07-3.78-4.26-3.08-1.13,.36-2.19,1.07-3.23,1.62-1.26,.66-2.5,1.36-3.78,1.99-2.53,1.24-5.09,.81-7.7,.05-2.74-.8-5.37-1.97-8.13-2.7s-5.61-1.12-8.42-1.63-5.43-1.1-7.94-2.25-4.81-2.46-7.51-2.85c-1.89-.28-2.7,2.61-.8,2.89h0Z"/></g><path class="cls-13" d="M168.72,126.33c.76,.03,1.63,.15,2.28,.57,.26,.17,.5,.43,.5,.76,0,.36-.35,.55-.54,.82-.2,.28-.25,.62-.28,.95-.03,.3-.04,.6-.29,.8-.45,.36-1.04,.45-1.33,1-.22,.43,.42,.81,.65,.38,.14-.27,.46-.39,.72-.53,.29-.15,.57-.33,.75-.61,.23-.36,.21-.78,.27-1.18,.07-.43,.42-.6,.63-.96,.46-.76-.02-1.65-.7-2.08-.77-.49-1.77-.64-2.66-.67-.48-.02-.48,.73,0,.75h0Z"/><path class="cls-13" d="M167.03,126.52c-.31,.74-.08,1.53-.24,2.3-.08,.39-.31,.67-.6,.94-.32,.29-.65,.56-.97,.84l.53,.53,1.05-1.16c.33-.37,.69-.73,1-1.12,.29-.36,.5-.77,.43-1.24-.04-.23-.15-.4-.28-.59-.08-.11-.13-.2,0-.28,.41-.25,.04-.9-.38-.65-.39,.23-.56,.7-.37,1.12,.08,.17,.25,.31,.29,.5,.04,.2-.08,.41-.19,.57-.28,.39-.65,.74-.97,1.09l-1.11,1.23c-.33,.36,.17,.84,.53,.53,.65-.56,1.49-1.1,1.73-1.97,.23-.8-.05-1.66,.27-2.43,.08-.19-.08-.41-.26-.46-.22-.06-.38,.07-.46,.26h0Z"/><path class="cls-13" d="M170.47,125.36c.42-.17,.87-.29,1.32-.31,.35-.02,.73-.02,1.07,.12s.48,.39,.53,.74c.07,.48,.09,.98,.14,1.47l.74-.1-.13-.92c-.04-.27-.07-.53-.18-.78-.2-.45-.61-.76-1.05-.94-.51-.21-1.08-.22-1.63-.18-.51,.04-1.05,.11-1.48,.41-.17,.12-.24,.33-.13,.51,.1,.16,.35,.25,.51,.13,.34-.24,.74-.29,1.14-.31,.44-.03,.92-.04,1.34,.13,.3,.12,.57,.34,.66,.66,.14,.47,.16,.99,.23,1.47,.06,.41,.78,.32,.74-.1-.05-.56-.08-1.14-.17-1.7-.08-.49-.36-.91-.82-1.13-.91-.45-2.11-.28-3.01,.09-.19,.08-.32,.25-.26,.46,.05,.18,.27,.34,.46,.26h0Z"/><path class="cls-13" d="M173.51,129.05c-.12,1.45,.3,2.68-1.12,3.64-1.17,.78-2.43,1.46-3.85,1.6-2.64,.26-5.46-.21-7.97-1.04-2.21-.73-4.34-1.73-6.61-2.31-1.12-.29-2.27-.4-3.39-.68-1.38-.36-2.69-.92-3.99-1.49-.44-.19-.82,.45-.38,.65,1.29,.56,2.59,1.14,3.95,1.51s2.85,.51,4.25,.91c2.89,.84,5.6,2.25,8.57,2.82,2.6,.5,5.65,.84,8.11-.34,.96-.46,2.31-1.1,2.86-2.07s.23-2.15,.32-3.2c.04-.48-.71-.48-.75,0h0Z"/><path class="cls-13" d="M160.78,133.61c-3.2,.12-6.42,.23-9.57-.46-1.39-.31-2.75-.61-4.18-.67-1.61-.07-3.22,.08-4.83,.22-.48,.04-.48,.71,0,.75,.68,.05,1.24-.16,1.87-.39,.78-.29,1.55-.45,2.39-.45,1.57,0,3.09,.44,4.59,.87,1.4,.41,2.81,.82,4.28,.9,1.57,.09,3.12-.27,4.69-.26,.48,0,.48-.75,0-.75-1.57-.01-3.12,.34-4.69,.26s-3.19-.62-4.74-1.06c-1.34-.38-2.72-.71-4.13-.71-.67,0-1.35,.08-2,.27-.76,.22-1.44,.64-2.26,.57v.75c1.6-.14,3.22-.29,4.83-.22s3.09,.49,4.66,.78c3,.56,6.06,.46,9.09,.35,.48-.02,.48-.77,0-.75h0Z"/><path class="cls-13" d="M151.2,129.43c1.33,.02,2.57,.32,3.77,.9,.87,.42,1.68,.79,2.66,.86,1.19,.08,2.34,.1,3.52,.31s2.41,.54,3.6,.86c.38,.1,.6-.35,.36-.63-.33-.38-.9-.44-1.37-.58-.69-.2-1.38-.4-2.07-.59-1.26-.35-2.36-.43-3.65-.26-.79,.11-1.51,.16-2.24-.23-.5-.27-.93-.58-1.48-.75-1.14-.35-2.39-.23-3.45-.86-.42-.25-.79,.4-.38,.65,.99,.59,2.11,.59,3.21,.83s1.89,1.09,3.01,1.19c1.29,.11,2.49-.35,3.79-.1,.68,.13,1.34,.35,2.01,.54l1.04,.3c.3,.09,.82,.13,1.04,.38l.36-.63c-2.36-.63-4.64-1.09-7.08-1.19-1.24-.05-2.17-.65-3.28-1.11s-2.23-.65-3.4-.66c-.48,0-.48,.74,0,.75h0Z"/><path class="cls-13" d="M165.49,127.08c-.76,.4-1.56,.72-2.39,.95-.41,.11-.79,.23-1.1,.53-.28,.27-.46,.62-.63,.96-.21,.43,.43,.81,.65,.38,.15-.29,.29-.6,.54-.83,.27-.25,.68-.3,1.03-.4,.79-.24,1.56-.56,2.29-.94,.43-.23,.05-.87-.38-.65h0Z"/><path class="cls-13" d="M157.68,128.09c-.76-.09-1.53-.2-2.21-.57-.47-.26-.88-.59-1.37-.81-1.03-.45-2.19-.33-3.28-.51-2.45-.4-4.76-1.52-7.29-.96-.47,.1-.27,.83,.2,.72,2.56-.57,5,.76,7.51,1.04,.57,.06,1.15,.06,1.72,.15,.62,.1,1.12,.36,1.64,.7,.97,.62,1.94,.84,3.07,.98,.48,.06,.47-.69,0-.75h0Z"/><path class="cls-13" d="M151.7,127.39c-1.99-.36-3.99-.61-6-.73-1.64-.1-3.66-.41-5.13,.51-.36,.22-.13,.79,.29,.69,.68-.17,1.37-.34,2.07-.41,.65-.06,1.29,.02,1.93,.11,1.31,.18,2.62,.11,3.94,.03,.48-.03,.48-.78,0-.75-1.44,.09-2.83,.12-4.26-.07-1.34-.18-2.58,.05-3.88,.37l.29,.69c.69-.43,1.48-.5,2.28-.5,.89,0,1.79,.05,2.68,.11,1.88,.13,3.74,.36,5.59,.69,.47,.09,.67-.64,.2-.72h0Z"/><path class="cls-13" d="M141.88,125.39c-1.2-.22-2.45,.05-3.41,.82-.48,.38-.83,.89-1.47,1.03s-1.29-.02-1.9-.15c-.47-.1-.67,.62-.2,.72,1.21,.27,2.46,.43,3.45-.47,.46-.42,.86-.82,1.46-1.05s1.24-.29,1.87-.18c.47,.09,.67-.64,.2-.72h0Z"/><path class="cls-13" d="M134.89,127.57c1.14-.1,2.26,.41,3.4,.14,.52-.12,.91-.41,1.29-.78s.78-.65,1.27-.84c.44-.18,.25-.9-.2-.72-.48,.19-.92,.44-1.32,.78-.37,.31-.66,.68-1.15,.82-1.07,.3-2.2-.24-3.29-.15-.48,.04-.48,.79,0,.75h0Z"/><path class="cls-13" d="M130.96,120.29c-.97-.1-1.93-.16-2.9-.17-.73,0-1.55-.08-2.23,.24-.73,.34-.88,1.1-.63,1.82,.14,.39,.32,.76,.43,1.16,.12,.44,.17,.88,.17,1.34,0,.42,.62,.51,.74,.1,.34-1.23,.07-2.48-.22-3.69l-.26,.46,1.81-.47-.2-.72c-.33,.13-.67,.25-1,.39-.35,.15-.52,.38-.59,.75-.15,.76-.21,1.54-.2,2.31l.74-.1c-.13-.44,.04-.87,.22-1.27,.15-.33,.31-.74,.61-.96,.32-.25,.87-.25,1.26-.32,.49-.08,.97-.15,1.46-.21,.2-.03,.37-.15,.38-.38,0-.18-.17-.4-.38-.38-.61,.08-1.21,.16-1.81,.26-.53,.09-1.08,.15-1.49,.54-.35,.33-.56,.81-.74,1.24-.23,.53-.38,1.1-.21,1.67,.12,.4,.74,.33,.74-.1,0-.6,.02-1.21,.12-1.8,.02-.13,.04-.27,.07-.4s.09-.15,.21-.2c.28-.11,.55-.22,.83-.32,.44-.17,.28-.85-.2-.72l-1.81,.47c-.2,.05-.31,.27-.26,.46,.26,1.08,.52,2.2,.22,3.29l.74,.1c0-.76-.14-1.52-.44-2.22-.12-.3-.33-.66-.29-1,.03-.27,.25-.41,.5-.49,.65-.19,1.4-.11,2.07-.1,.86,.02,1.72,.08,2.58,.17,.48,.05,.48-.7,0-.75h0Z"/><path class="cls-13" d="M123.25,119.22c-.19,.22-.21,.49-.09,.75,.1,.22,.32,.35,.54,.42,.2,.06,.43,.07,.64,.09s.43,.02,.64,.02c.2,0,.38-.17,.38-.38s-.16-.38-.38-.38c-.17,0-.33,0-.5-.01-.09,0-.17-.01-.26-.02-.04,0-.09,0-.13-.01-.02,0-.03,0-.05,0,.03,0,.08,.01,.02,0-.07-.01-.13-.03-.19-.05s.05,.03,.02,0c-.01,0-.03-.01-.04-.02-.01,0-.05-.04,0,0,.04,.04,0,0,0-.01-.04-.03,.02,.02,.02,.03,0-.01-.02-.03-.03-.04-.02-.03,.02,.07,.01,.04,0-.01,0-.03-.01-.04-.02-.04,0,.1,0,.03,0-.06,0,.04,0,.04,0,0,.03-.08,0,0-.01,.03-.02,.04,0,.02,.02-.02,0-.01-.03,.04,.13-.15,.16-.39,0-.53-.14-.13-.39-.16-.53,0h0Z"/><path class="cls-13" d="M140.66,123.21c-1.87-.26-3.8,.32-5.62,.67-.89,.17-1.82,.29-2.67,.63-.78,.31-1.4,.85-2.01,1.42l.59,.08c-.25-.53-.57-1.23-.37-1.83s.88-.75,1.42-.84c1.37-.23,2.85-.37,4.23-.17,.46,.07,.68-.59,.2-.72-1.45-.39-2.9,.07-4.26,.58-.52,.2-.99,.44-1.28,.94s-.36,1.11-.4,1.68l.7-.19c-.23-.53-.2-1.11,.07-1.62,.23-.43-.37-.77-.65-.38-.49,.7-.64,1.52-.48,2.35,.04,.23,.36,.35,.55,.22,1.13-.76,2.41-1.2,3.78-1.28,.48-.03,.48-.78,0-.75-1.49,.08-2.92,.54-4.16,1.38l.55,.22c-.12-.64,.04-1.24,.41-1.77l-.65-.38c-.4,.77-.42,1.58-.07,2.37,.16,.37,.67,.14,.7-.19,.03-.43,.07-.92,.3-1.3,.28-.47,.87-.61,1.35-.78,1.08-.38,2.21-.7,3.35-.4l.2-.72c-.99-.14-1.97-.12-2.96-.03-.77,.07-1.63,.11-2.37,.37-.63,.22-1.14,.67-1.28,1.34-.17,.78,.16,1.57,.49,2.26,.11,.23,.43,.23,.59,.08,.61-.56,1.21-1.08,2.01-1.35s1.56-.36,2.34-.51c1.67-.32,3.51-.91,5.23-.67,.47,.07,.68-.66,.2-.72h0Z"/><path class="cls-13" d="M147.07,128.85c-1.52-.55-3.15-.41-4.68,0-1.7,.46-3.36,1.12-5.02,1.7-.24,.08-.34,.32-.22,.55,.38,.77,.86,1.56,1.76,1.76,.97,.22,1.87-.22,2.7-.67,1.95-1.07,4.04-1.72,6.27-1.86,.37-.02,.52-.5,.19-.7-1.58-.98-3.47-.9-5.22-.51-1.66,.36-3.44,.81-4.74,1.95-.16,.14-.13,.39,0,.53,.21,.24,.45,.41,.74,.54,.44,.2,.78-.37,.38-.65l-1.17-.81c-.32-.22-.68,.2-.51,.51,.66,1.22,2.22,1.27,3.38,.85,.8-.29,1.55-.71,2.34-1.02,.85-.32,1.72-.58,2.58-.84,.33-.1,.39-.66,0-.72-2.6-.43-5.24,.22-7.31,1.85-.16,.12-.13,.4,0,.53,.62,.62,1.7,.07,2.39-.14,1.08-.33,2.15-.7,3.21-1.09,.3-.11,.37-.5,.09-.69-1.75-1.14-3.26,.86-4.95,.96-.48,.03-.48,.78,0,.75,.8-.05,1.46-.39,2.16-.76s1.64-.81,2.41-.31l.09-.69c-.81,.3-1.63,.58-2.45,.85-.38,.12-.76,.24-1.14,.36-.26,.08-1.05,.45-1.28,.22v.53c1.84-1.44,4.28-2.04,6.58-1.65v-.72c-1.38,.41-2.74,.86-4.05,1.48-.98,.46-2.72,1.16-3.42-.13l-.51,.51,1.17,.81,.38-.65c-.24-.11-.42-.23-.59-.43v.53c1.15-1.01,2.76-1.38,4.22-1.72,1.61-.37,3.37-.51,4.83,.4l.19-.7c-1.85,.12-3.65,.55-5.34,1.3-.84,.38-1.65,.99-2.55,1.22-1.16,.29-1.73-.43-2.2-1.38l-.22,.55c1.54-.54,3.07-1.13,4.64-1.59s3.13-.67,4.66-.11c.45,.17,.65-.56,.2-.72h0Z"/><path class="cls-13" d="M174.08,133.8c-.69,.07-1.26,.4-1.78,.85s-1.08,.99-1.36,1.61c-.15,.33-.23,.68-.31,1.04-.04,.18-.07,.36-.12,.54-.02,.07-.06,.15-.07,.22v.02c.07,0,.09,0,.03-.04-.01-.05-.16-.13-.2-.18l-.26-.23-.47-.41-.98-.87c-.32-.29-.78,.07-.59,.45,.13,.26,.37,.43,.64,.53s.6,.08,.86,.21c.25,.12,.41,.37,.68,.46s.55,.04,.74-.17,.21-.46,.28-.72c.07-.27,.24-.51,.42-.73,.44-.52,.95-1.03,1.49-1.45,.16-.12,.24-.32,.13-.51-.09-.16-.35-.26-.51-.13-.47,.36-.88,.77-1.29,1.19-.36,.37-.72,.77-.9,1.26-.06,.17-.14,.4-.16,.58,0-.07,.1,.04,0-.06-.03-.03-.08-.06-.11-.09-.09-.07-.17-.15-.27-.21-.22-.15-.47-.21-.73-.25-.22-.04-.51-.06-.62-.29l-.59,.45c.66,.58,1.29,1.21,1.99,1.74,.28,.21,.66,.25,.92,0s.32-.64,.39-.97c.08-.37,.14-.76,.3-1.1s.42-.6,.68-.86c.48-.5,1.04-1.07,1.77-1.15,.48-.05,.48-.8,0-.75h0Z"/><path class="cls-13" d="M166.28,135.96c-1.85-.13-3.43,.73-5.11,1.36-1.01,.38-2.04,.64-3.13,.5s-2.09-.59-3.11-.97c-2-.74-4.12-.8-6.22-1.13-1.67-.26-3.5-.26-4.71,1.1-.32,.36,.21,.89,.53,.53,1.6-1.81,4.24-.76,6.27-.55,.97,.1,1.92,.14,2.87,.41s1.85,.7,2.8,1.01c1.58,.51,3.03,.48,4.59-.06,1.73-.6,3.33-1.58,5.23-1.45,.48,.03,.48-.72,0-.75h0Z"/><path class="cls-13" d="M144.66,137.9c3.09-2,7.25-.46,10.54,.23,1.52,.32,3.13,.83,4.69,.88,.51,.02,1.05-.04,1.51-.27,.64-.32,1.04-1,1.73-1.21,.46-.14,.26-.86-.2-.72-.57,.17-.92,.53-1.36,.91-.8,.68-1.74,.59-2.71,.41-1.76-.32-3.5-.73-5.25-1.09-3.05-.63-6.51-1.62-9.34,.22-.4,.26-.03,.91,.38,.65h0Z"/><path class="cls-13" d="M161.66,137.23c-.67,.18-1.05,.69-1.65,.99-.87,.44-1.89,.31-2.78,.04-1.65-.51-3.12-1.33-4.82-1.73-2.66-.63-6.37-1.68-8.51,.66-.33,.36,.2,.89,.53,.53,1.25-1.37,3.15-1.33,4.85-1.06s3.3,.58,4.85,1.14c1.37,.5,2.66,1.3,4.14,1.43,.59,.05,1.21,0,1.77-.21,.67-.26,1.13-.88,1.82-1.07,.47-.12,.27-.85-.2-.72h0Z"/><path class="cls-13" d="M146.94,139.38c.45-.1,.86-.33,1.27-.53,.09-.05,.19-.09,.29-.14,0,0,.07-.03,.04-.02-.03,.01,.06-.02,.06-.02,.05-.02,.09-.03,.14-.05,.1-.03,.21-.06,.32-.08-.07,0,.06,0,.08,0,.06,0,.12,0,.18,0,.2,.02,.38-.18,.38-.38,0-.22-.17-.36-.38-.38-.49-.04-.95,.14-1.38,.35-.2,.1-.39,.2-.59,.3-.05,.02-.1,.05-.15,.07,.05-.02-.01,0-.03,.01-.02,0-.05,.02-.07,.03-.11,.04-.22,.07-.34,.1-.2,.04-.31,.27-.26,.46,.06,.2,.26,.3,.46,.26h0Z"/><path class="cls-13" d="M148.02,141.95c.61-.19,1.06-.62,1.59-.95s1.12-.51,1.73-.55c.2-.01,.38-.16,.38-.38,0-.19-.17-.39-.38-.38-.69,.05-1.35,.23-1.96,.56-.53,.29-.98,.78-1.57,.96-.46,.14-.26,.87,.2,.72h0Z"/><path class="cls-13" d="M150.6,144.84c1.25-.94,2.61-1.73,4.03-2.37,.18-.08,.23-.35,.13-.51-.11-.19-.33-.22-.51-.13-1.43,.64-2.78,1.43-4.03,2.37-.16,.12-.25,.32-.13,.51,.09,.16,.35,.26,.51,.13h0Z"/><path class="cls-13" d="M150.9,145.27l1.34-1.07c.39-.31,.77-.63,1.21-.88,.21-.12,.42-.22,.65-.28s.48-.06,.68-.17c.53-.3,.27-1.09-.33-.99-.2,.03-.31,.28-.26,.46,.06,.21,.26,.29,.46,.26h-.16c-.09-.03,0-.35-.1-.38-.03,0-.1,.02-.14,.02-.09,.01-.17,.03-.26,.05-.19,.05-.38,.12-.56,.2-.36,.16-.69,.38-1.01,.62-.7,.52-1.37,1.09-2.05,1.63-.16,.13-.13,.4,0,.53,.16,.16,.37,.13,.53,0h0Z"/><path class="cls-13" d="M154.22,145.99c.81-.7,1.77-1.2,2.81-1.48l-.29-.04c-.16-.19-.16-.33,0-.42-.05,.01-.05,.01-.03,0-.07,0-.17,.01-.24,.02-.15,.02-.29,.07-.43,.13-.25,.11-.47,.26-.68,.41l-1.5,1.04c-.17,.12-.24,.33-.13,.51,.1,.16,.35,.25,.51,.13l1.41-.98c.21-.15,.42-.3,.64-.41,.09-.05,.19-.08,.29-.1,.12-.02,.24-.01,.36-.05,.3-.09,.5-.41,.38-.71-.06-.15-.19-.26-.35-.29-.14-.02-.31,.05-.44,.09-.49,.15-.97,.35-1.42,.6-.51,.28-.98,.61-1.42,.99-.15,.13-.14,.39,0,.53,.15,.15,.38,.13,.53,0h0Z"/><path class="cls-13" d="M157.84,147.41c.47-.32,.94-.63,1.41-.94l-.45-.06c.24,.31,.49,.61,.76,.9l.17-.63c-.82,.33-1.6,.75-2.32,1.27l.51,.51c.07-.1,.11-.15,.2-.26,.08-.09,.16-.18,.24-.27,.17-.17,.38-.36,.55-.5s.43-.28,.6-.45c.24-.23,.34-.55,.18-.86-.08-.15-.27-.21-.42-.17-.42,.11-.81,.31-1.15,.59-.14,.12-.26,.25-.39,.38-.03,.03-.06,.06-.09,.08-.03,.03-.03,.03,0,0-.02,.01-.04,.03-.06,.04-.02,.01-.04,.02-.06,.03,.04-.02,.04-.02,0,0-.04,0-.04,.01,0,0-.02,0-.04,0-.07,0-.2,0-.38,.18-.38,.38,0,.21,.16,.37,.38,.38,.47,.02,.74-.34,1.04-.63,.03-.03,.07-.06,.1-.09,.02-.02,.04-.03,.06-.05-.03,.02-.02,.01,.02-.01,.08-.06,.17-.12,.26-.17,.05-.03,.09-.05,.14-.07,.02-.01,.05-.02,.07-.03-.03,.01-.02,0,.02,0,.1-.04,.2-.07,.3-.09l-.42-.17s-.04-.14,0-.14c0,0-.03,.05-.03,.06,.03-.05-.01,0-.02,.02-.02,.02-.04,.03-.05,.05,0,0-.06,.05-.03,.03s-.03,.02-.04,.02l-.07,.04c-.21,.14-.4,.29-.59,.45-.36,.31-.67,.66-.95,1.04-.09,.13-.05,.35,.06,.45s.32,.16,.45,.06c.34-.25,.69-.47,1.05-.68,.18-.1,.36-.19,.55-.28s.36-.17,.54-.24c.26-.11,.37-.4,.17-.63-.26-.29-.51-.59-.76-.9-.1-.12-.33-.14-.45-.06-.47,.31-.94,.63-1.41,.94-.16,.11-.25,.33-.13,.51,.1,.16,.34,.25,.51,.13h0Z"/><path class="cls-13" d="M159.02,152.81c.9,.02,1.8-.15,2.64-.5,.41-.17,.81-.37,1.19-.61,.1-.06,.19-.12,.28-.19,.04-.03,.21-.19,.25-.18-.02,0,.15,.19,.18,.21l.13,.13c.08,.09,.09,.09,.03-.01v-.2c.16-.14,.17-.17,.05-.11-.05,.02-.11,.05-.16,.07-.1,.05-.19,.1-.28,.16-.19,.12-.36,.27-.53,.41-.31,.27-.62,.52-.98,.71-.74,.39-1.62,.53-2.44,.4l.22,.55c.19-.27,.34-.56,.47-.86h-.72c.14,.4,.51,.61,.93,.6,.47,0,.82-.33,1.22-.53,.73-.36,1.6-.39,2.17-1.03,.32-.36-.21-.89-.53-.53-.4,.45-1.05,.54-1.59,.73-.31,.11-.58,.27-.86,.43-.11,.07-.24,.15-.37,.17-.05,0-.11,0-.16-.01-.04-.01-.09-.06-.08-.04-.13-.37-.58-.34-.72,0-.1,.24-.24,.47-.39,.68-.13,.18,0,.51,.22,.55,.79,.13,1.6,.08,2.36-.19,.38-.13,.75-.31,1.08-.54s.6-.49,.9-.73c.14-.11,.3-.22,.47-.29,.18-.08,.35-.13,.43-.32,.17-.39-.31-.76-.58-.98-.38-.31-.72-.16-1.08,.09-.34,.24-.7,.44-1.07,.62-.83,.39-1.74,.59-2.66,.57-.48-.01-.48,.74,0,.75h0Z"/><path class="cls-13" d="M174.21,141.36l-1.85-.97c-.54-.28-1.09-.64-1.66-.85-1.06-.38-2.01,.49-2.75,1.14-1.82,1.6-3.27,3.84-5.78,4.42l.2,.72c1.04-.28,2.09-.57,3.03-1.11s1.63-1.41,2.41-2.2c.89-.9,2-1.55,3.25-1,1.05,.46,1.98,.87,3.15,.97,.26,.02,.41-.26,.36-.47v-.04l-.18,.42-.19,.02-.28-.36v.09l.17-.32c.16-.08,.06-.06-.05-.16s-.28-.19-.41-.27c-.25-.16-.52-.29-.79-.42-.51-.24-1.05-.44-1.58-.63-.77-.27-1.84-.63-2.46,.13-.3,.37,.23,.9,.53,.53,.37-.45,1.08-.16,1.54,0,.63,.22,1.26,.45,1.86,.75,.45,.23,1.78,1.45,1.93,.31,.02-.17-.13-.32-.28-.36s-.27-.03-.39,.05c-.15,.1-.21,.25-.17,.42v.04l.37-.47c-.65-.05-1.28-.2-1.88-.45-.52-.22-1.01-.53-1.56-.67-1.02-.26-2.03,.14-2.83,.76-.88,.68-1.49,1.64-2.38,2.32-.99,.75-2.22,1.08-3.4,1.39-.47,.13-.27,.83,.2,.72,2.12-.49,3.59-2.1,5.05-3.59,.39-.4,.79-.79,1.21-1.15s1.08-.99,1.69-.87,1.24,.61,1.76,.89l1.75,.92c.43,.22,.81-.42,.38-.65h0Z"/><path class="cls-13" d="M167.79,138.15c-1.49,1.69-3.32,3.07-5.15,4.37-.93,.65-1.94,.68-3.04,.78-1,.09-2.05,.15-2.92-.45-.3-.21-.73,.21-.51,.51,1.47,2.02,4.37,1.15,6.27,.29,2.06-.94,3.83-2.47,5.05-4.38,.26-.41-.39-.78-.65-.38-1.03,1.6-2.46,2.9-4.14,3.79-1.53,.82-4.58,2.08-5.88,.3l-.51,.51c.87,.6,1.92,.65,2.94,.58,1.09-.08,2.35-.06,3.33-.62,1.03-.58,1.98-1.39,2.9-2.12,1.02-.81,2-1.67,2.86-2.65,.32-.36-.21-.89-.53-.53h0Z"/><path class="cls-13" d="M166.99,136.88c-1.12,.3-2.11,.92-2.83,1.85-.35,.45-.55,.96-.83,1.45-.39,.69-1.01,.98-1.77,1.06-1.42,.15-2.89,.01-4.31,0-1.32-.01-3.22,.18-4.16-.96l-.36,.63c.97,.35,1.95,.42,2.96,.26,.42-.07,.32-.75-.1-.74-.81,.02-1.61-.01-2.41-.12-.46-.06-.68,.61-.2,.72,1.09,.26,2.19,.36,3.31,.29,.48-.03,.49-.75,0-.75h-2.17c-.35,0-.53,.52-.19,.69,.79,.38,1.6,.49,2.46,.32,.32-.06,.37-.54,.09-.69-.74-.39-1.48-.49-2.3-.36-.48,.08-.27,.8,.2,.72,.61-.1,1.18,0,1.73,.29l.09-.69c-.66,.12-1.28,.04-1.89-.25l-.19,.7h2.17v-.74c-1.05,.06-2.08-.02-3.11-.27l-.2,.72c.87,.12,1.73,.17,2.61,.15l-.1-.74c-.88,.14-1.73,.04-2.57-.26-.39-.14-.58,.37-.36,.63,.84,1.01,2.23,1.11,3.45,1.15,1.7,.06,3.43,.12,5.13,.05,1.18-.05,2.24-.38,2.84-1.46,.35-.63,.61-1.26,1.13-1.78,.58-.58,1.29-.96,2.07-1.17,.47-.13,.27-.85-.2-.72h0Z"/><path class="cls-13" d="M156.02,141.22c1.76,.08,3.51,.16,5.27,.24,.72,.03,1.43,.02,2.03-.44,.52-.4,.84-.99,1.13-1.56,.22-.43-.43-.81-.65-.38-.26,.52-.54,1.11-1.05,1.42-.6,.37-1.43,.2-2.09,.17l-4.64-.21c-.48-.02-.48,.73,0,.75h0Z"/><path class="cls-13" d="M168.49,143.81c-1.61-.04-2.59,1.23-3.85,2-.72,.43-1.54,.55-2.36,.64-.74,.08-1.59,.16-2.1-.48l-.36,.63c.79,.26,1.61,.35,2.43,.26,.47-.05,.48-.8,0-.75-.77,.08-1.5,0-2.23-.23-.39-.13-.58,.36-.36,.63,.47,.58,1.23,.77,1.95,.75,.83-.02,1.76-.13,2.55-.39,1.54-.52,2.61-2.34,4.34-2.3,.48,.01,.48-.74,0-.75h0Z"/><path class="cls-13" d="M161.72,146.88c1.51-.11,2.97-.49,4.33-1.15,.18-.09,.23-.35,.13-.51-.11-.19-.33-.22-.51-.13-1.24,.59-2.58,.95-3.95,1.05-.2,.01-.38,.16-.38,.38,0,.19,.17,.39,.38,.38h0Z"/><path class="cls-13" d="M170.93,145.29c-.75-.14-1.41,.12-2.06,.48s-1.3,.77-1.95,1.16c-1.31,.78-2.68,1.54-4.22,1.72-.34,.04-.55,.51-.19,.7,.26,.14,.38,.44,.65,.57,.34,.17,.63,0,.92-.19,.79-.5,1.72-.72,2.58-1.11,1.58-.72,3.07-2.83,5.01-2.28,.36,.1,.64-.37,.36-.63-.34-.33-.72-.49-1.19-.54s-.47,.7,0,.75c.26,.03,.48,.14,.66,.32l.36-.63c-1.85-.52-3.25,.87-4.65,1.82-.77,.52-1.63,.78-2.48,1.13-.38,.16-.75,.33-1.09,.55-.22,.14-.21,.06-.37-.11-.11-.12-.23-.23-.38-.31l-.19,.7c1.42-.17,2.71-.73,3.95-1.44,.61-.35,1.21-.73,1.82-1.09,.65-.39,1.47-1,2.26-.85,.47,.09,.67-.64,.2-.72h0Z"/><path class="cls-13" d="M169.01,151c-.92-.15-1.73,.25-2.53,.67l-1.26,.65c-.19,.1-.4,.18-.56,.32-.08,.07-.15,.14-.2,.23-.03,.05-.04,.1-.06,.16-.04,.11,0,.1,.11-.04h.15l.22,.16s0,.04,.02,0c.04-.04,.08-.07,.12-.1,.07-.05,.15-.1,.23-.14,.19-.12,.37-.23,.57-.34,.39-.22,.8-.42,1.23-.56,.84-.26,1.71-.32,2.58-.38,.48-.03,.48-.78,0-.75-.78,.05-1.57,.11-2.34,.29s-1.52,.55-2.22,.97c-.3,.18-.68,.36-.86,.68-.16,.3-.11,.81,.28,.89,.16,.03,.34-.02,.46-.14s.11-.29,.21-.38c.13-.12,.36-.19,.52-.27l.58-.3c.74-.38,1.66-1.04,2.54-.9,.47,.08,.68-.64,.2-.72h0Z"/><path class="cls-13" d="M166.14,151.08c1.53-.91,3.2-1.52,4.95-1.83,.42-.07,.32-.74-.1-.74-1.19,.02-2.35,.48-3.43,.97-.53,.24-1.03,.53-1.54,.8-.55,.29-1.33,.24-1.95,.29-.49,.04-.48,.69,0,.75,.69,.08,1.4,.03,2.08-.14,.73-.19,1.32-.61,2.01-.89s1.47-.25,2.2-.3c.3-.02,.62-.01,.88-.19,.23-.17,.35-.46,.25-.74-.16-.45-.89-.26-.72,.2-.05-.14-1.48,.05-1.65,.07-.6,.06-1.14,.2-1.68,.48s-1.02,.54-1.6,.67-1.17,.16-1.76,.09v.75c.6-.05,1.29-.03,1.88-.2,.54-.16,1.03-.53,1.53-.78,1.07-.53,2.3-1.06,3.51-1.09l-.1-.74c-1.81,.32-3.55,.97-5.13,1.91-.41,.25-.04,.89,.38,.65h0Z"/></g></g></g></g><g><g><path class="cls-12" d="M158.55,159.28c7.57-2.89,12.19-10.63,19.24-14.62l-2.23,16.24c-.4,2.94-.82,5.92-2.08,8.61s-3.52,5.06-6.41,5.71c-.51,.11-1.05,.17-1.54,0-.59-.2-1.02-.7-1.4-1.19-2.82-3.58-4.76-7.86-5.6-12.34-.09-.48-.17-.99,.02-1.44s.72-.8,1.17-.6"/><path class="cls-12" d="M158.95,160.73c7.88-3.1,12.43-10.64,19.6-14.77l-2.2-1.69-1.89,13.78c-.53,3.89-.77,8.23-2.79,11.7-.84,1.44-1.99,2.7-3.47,3.48-.56,.3-1.59,.82-2.24,.55-.73-.3-1.35-1.58-1.78-2.22-1.12-1.66-2.08-3.45-2.79-5.32-.36-.93-.67-1.88-.92-2.84-.11-.41-.21-.83-.3-1.25-.06-.28-.12-.56-.17-.84,.06-.46-.16-.52-.66-.2,1.88,.4,2.69-2.5,.8-2.89-1.79-.38-3.2,.95-3.18,2.76s.76,3.92,1.4,5.66c.71,1.93,1.59,3.79,2.67,5.54,.91,1.48,2.02,3.45,3.61,4.28,3.19,1.67,7.19-1.7,8.93-4.09,2.44-3.34,2.99-7.56,3.54-11.54,.72-5.25,1.44-10.5,2.16-15.75,.17-1.23-.96-2.41-2.2-1.69-6.89,3.97-11.38,11.52-18.89,14.47-1.78,.7-1,3.6,.8,2.89h0Z"/></g><g><g><path class="cls-6" d="M175.71,208.2l6.64,29.97c1.11,5,2.21,9.99,3.32,14.99s2.16,9.69,2.37,14.66l1.5-1.5-21.32-.32,1.5,1.5c-.29-17.87-3.51-35.48-5.49-53.19-.56-4.99-1.01-10-1.28-15.02-.1-1.92-3.1-1.93-3,0,.96,17.83,4.32,35.41,5.93,53.18,.45,5,.76,10.01,.84,15.04,.01,.82,.68,1.49,1.5,1.5l21.32,.32c.79,.01,1.53-.7,1.5-1.5-.22-5.07-1.28-10.03-2.37-14.97s-2.21-9.99-3.32-14.99l-6.75-30.45c-.42-1.88-3.31-1.09-2.89,.8h0Z"/><g><path class="cls-4" d="M79.6,134.81c5,1.92,10.58,3.84,15.57,1.88,1.75-.69,3.31-1.82,5.11-2.36,5.21-1.54,10.29,2.27,14.83,5.24,7.79,5.1,16.74,8.3,24.23,13.82,10.93,8.05,17.94,20.53,21.81,33.54s4.9,26.67,5.88,40.21c1,13.75,1.97,27.62,.21,41.29-35.52,2.46-71.23,2.03-106.68-1.27-.74-.07-1.52-.16-2.08-.65-.44-.4-.66-.99-.8-1.56-.93-3.65,.13-7.47,1.18-11.08l2.15-7.4c3.14-10.78,6.27-21.56,9.96-32.16,4.34-12.49,9.45-24.76,12.65-37.59s4.42-26.48,.92-39.23l2.62-.77"/><path class="cls-4" d="M79.2,136.26c5.61,2.14,11.74,4.08,17.52,1.38,1.32-.61,2.55-1.45,3.95-1.86s2.78-.37,4.16-.03c2.84,.7,5.34,2.36,7.75,3.95,4.99,3.29,10.26,5.97,15.55,8.72s10.16,5.61,14.43,9.59c17.85,16.64,20.97,42.35,22.7,65.35,1.12,14.98,2.38,30.1,.48,45.07l1.5-1.5c-32.07,2.21-64.29,2.09-96.34-.39-1.97-.15-3.94-.31-5.91-.48-.99-.09-1.97-.17-2.96-.26-.67-.06-1.96,.08-2.5-.37s-.6-1.69-.66-2.32c-.09-.92-.06-1.86,.04-2.79,.22-2.06,.82-4.08,1.4-6.06,2.16-7.47,4.32-14.94,6.57-22.37s4.76-15.13,7.46-22.59,5.45-14.64,7.83-22.08c5.14-16.09,8.31-33.5,3.82-50.13l-1.05,1.85,2.62-.77c1.85-.54,1.06-3.44-.8-2.89l-2.62,.77c-.78,.23-1.26,1.05-1.05,1.85,4.13,15.32,1.45,31.36-3.11,46.26-2.29,7.47-5.04,14.78-7.72,22.12-2.77,7.59-5.35,15.24-7.71,22.97-2.37,7.75-4.61,15.54-6.87,23.32-1.04,3.57-2.19,7.27-1.76,11.03,.17,1.53,.49,3.26,1.8,4.23,1.44,1.07,3.6,.93,5.3,1.08,16.25,1.45,32.56,2.3,48.88,2.54,18.46,.27,36.93-.23,55.35-1.5,.89-.06,1.39-.64,1.5-1.5,1.74-13.72,.79-27.55-.21-41.29s-1.94-26.48-5.54-39.24c-3.01-10.67-7.97-20.99-15.52-29.2-3.93-4.28-8.57-7.73-13.61-10.59-5.32-3.02-10.93-5.49-16.16-8.67s-11.18-8.51-17.83-6.55c-1.52,.45-2.87,1.28-4.28,1.97-1.62,.79-3.33,1.17-5.13,1.15-3.62-.03-7.13-1.37-10.46-2.65-1.81-.69-2.59,2.21-.8,2.89h0Z"/></g><g><path class="cls-6" d="M81.85,208.84c20.78-.34,41.58,.22,62.32,1.68,1.3,.09,2.67,.21,3.74,1,1.97,1.46,2,4.43,1.85,6.94-1.03,16.93-1.64,33.88-1.83,50.84-19.48,1.26-39.02,3.14-58.5,1.67-7.47-.56-14.9-1.62-22.23-3.15,2.25-20.13,6.85-39.97,13.67-58.95"/><path class="cls-6" d="M81.85,210.34c16.33-.26,32.67,.02,48.98,.86,4.12,.21,8.24,.46,12.35,.74,1.42,.1,3.36-.01,4.32,1.26,.86,1.14,.84,2.85,.8,4.2-.2,7.99-.88,15.98-1.19,23.96-.36,9.3-.59,18.61-.69,27.92l1.5-1.5c-20.91,1.36-41.94,3.4-62.87,1.28-5.86-.59-11.69-1.51-17.46-2.71l1.1,1.45c2.25-19.97,6.84-39.64,13.62-58.56,.65-1.82-2.25-2.6-2.89-.8-5.36,14.94-9.35,30.36-11.9,46.03-.72,4.43-1.33,8.87-1.83,13.33-.07,.61,.51,1.32,1.1,1.45,10.31,2.14,20.78,3.35,31.3,3.65s21.17-.2,31.74-.88c6.03-.39,12.06-.84,18.09-1.23,.82-.05,1.49-.64,1.5-1.5,.1-8.65,.3-17.29,.62-25.93,.31-8.48,.86-16.95,1.24-25.43,.13-2.92-.23-6.49-3.12-8.02-1.6-.85-3.47-.86-5.23-.98-2.14-.15-4.28-.28-6.42-.41-8.56-.51-17.14-.87-25.71-1.07-9.65-.23-19.3-.26-28.95-.11-1.93,.03-1.93,3.03,0,3h0Z"/></g><g><path class="cls-4" d="M186.59,149.39c3.12,5.6,8.42,9.69,14.05,12.75,5.63,3.06,11.7,5.23,17.48,7.99,3.62,1.73,7.12,3.68,10.49,5.85,3.49,2.25,6.95,4.86,8.9,8.53,2.65,4.98,2.09,11.01,1.1,16.56-.99,5.55-2.36,11.26-1.09,16.76,.51,2.2,1.42,4.29,2.25,6.39,5.29,13.37,7.29,28.04,5.77,42.34-.07,.61-.15,1.27-.56,1.73-.58,.67-1.59,.71-2.47,.7-16.67-.19-33.34-.54-50-1.06-1.67-.05-3.41-.13-4.86-.96-2.89-1.67-3.42-5.53-3.72-8.85-1.29-14.28-4.1-28.43-8.37-42.12-1.41-4.51-2.97-8.99-3.7-13.66-.71-4.59-.59-9.27-.46-13.92,.28-10.31,.62-20.91,4.74-30.36,1.21-2.77,2.89-5.55,5.6-6.87s6.63-.5,7.7,2.32"/><path class="cls-4" d="M185.29,150.15c5.14,9.04,14.74,13.72,23.92,17.67,5.07,2.18,10.11,4.39,14.89,7.17,4.16,2.42,8.84,5.1,11.5,9.25,2.81,4.37,2.61,9.83,1.84,14.77-.85,5.46-2.4,10.96-1.81,16.54s3.32,10.26,4.9,15.36c1.62,5.2,2.78,10.56,3.4,15.97s.76,11,.38,16.49c-.04,.61-.09,1.22-.15,1.83-.05,.52,.01,1.4-.24,1.88-.42,.83-2.62,.41-3.41,.4-2.97-.04-5.94-.08-8.91-.12-11.72-.18-23.43-.45-35.15-.79-1.46-.04-2.92-.08-4.38-.13-1.25-.05-2.57-.11-3.68-.74-1.79-1.02-2.36-3.25-2.69-5.14-.44-2.52-.54-5.11-.83-7.65-.33-2.82-.71-5.64-1.16-8.45-1.76-11.2-4.62-22.08-8.01-32.89-1.74-5.57-2.86-11.02-2.92-16.87-.05-5.52,.14-11.1,.53-16.61s1.12-10.58,2.76-15.64c1.19-3.66,3.23-9.75,7.77-10.32,1.79-.23,3.56,.46,4.29,2.16,.32,.75,1.41,.9,2.05,.54,.78-.44,.85-1.31,.54-2.05-1.74-4.1-7.37-4.56-10.72-2.3-4.27,2.88-6.16,8.58-7.45,13.3-1.49,5.46-2.08,11.14-2.38,16.79-.32,5.95-.64,12.02-.24,17.98s2.23,11.69,4.03,17.43c1.81,5.78,3.37,11.63,4.66,17.54s2.34,11.94,3.08,17.97c.35,2.8,.54,5.61,.9,8.41,.28,2.18,.72,4.48,2.03,6.3,1.5,2.08,3.69,2.94,6.19,3.17,3.01,.28,6.08,.22,9.1,.31,6.27,.18,12.54,.33,18.81,.46,6.27,.13,12.54,.24,18.81,.32,1.57,.02,3.14,.05,4.7,.06,1.18,0,2.42-.04,3.39-.8s1.23-1.81,1.37-2.95c.18-1.5,.29-3.02,.38-4.53,.66-11.65-.97-23.47-4.74-34.52-.93-2.73-2.14-5.36-3.06-8.1s-1.22-5.74-1-8.73c.41-5.73,2.22-11.27,2.34-17.03,.11-5.35-1.42-10.36-5.21-14.23-3.77-3.85-8.8-6.65-13.53-9.14-9.85-5.19-21.41-8.03-29.63-15.91-1.84-1.76-3.41-3.73-4.67-5.94-.96-1.68-3.55-.17-2.59,1.51h0Z"/></g><g><path class="cls-7" d="M87.91,188.3c3.39,1.49,6.9,2.86,10.58,3.2s7.61-.45,10.43-2.86c.84-.72,1.58-1.58,2.53-2.14,1.3-.77,2.87-.91,4.38-.99,8.27-.46,16.6,.27,24.66,2.17,3.02,.71,6.31,1.81,7.83,4.52,.68,1.21,.91,2.61,1.12,3.98,1.17,7.91,1.58,15.92,1.22,23.91-.04,.99-.12,2.05-.73,2.84-.88,1.14-2.5,1.3-3.94,1.39-12.64,.82-25.13,3.96-36.66,9.22-1.85,.85-3.75,1.76-5.78,1.82-1.51,.04-2.99-.4-4.43-.85-8.05-2.5-16-5.35-23.8-8.55,.28-4.85,1.94-9.5,3.59-14.07l8.27-22.98-.28,1.52c.11-.71,.51-1.37,1.1-1.78"/><path class="cls-7" d="M87.16,189.6c4.97,2.18,10.21,4.08,15.72,3.26,2.34-.35,4.61-1.22,6.5-2.67,.97-.75,1.78-1.77,2.84-2.39,1.16-.67,2.56-.73,3.86-.8,5.82-.31,11.7-.04,17.46,.85,2.73,.42,5.49,.92,8.15,1.69,2.02,.58,4.28,1.48,5.35,3.42,.57,1.04,.76,2.26,.93,3.41,.24,1.55,.43,3.1,.6,4.66,.32,3,.54,6.01,.65,9.03s.11,6.03,0,9.05c-.04,.97,.13,2.41-.69,3.11s-2.42,.58-3.43,.65c-11.17,.82-22.21,3.39-32.57,7.66-1.45,.6-2.89,1.23-4.33,1.88-1.33,.6-2.72,1.26-4.2,1.41s-3.02-.33-4.47-.77c-1.63-.5-3.25-1.02-4.87-1.56-6.39-2.11-12.71-4.45-18.94-6.99l1.1,1.45c.42-6.28,3.03-12.26,5.14-18.12l6.67-18.53-2.89-.8-.28,1.52c-.35,1.88,2.47,2.7,2.89,.8,.12-.53,.3-.78,.72-1.12,1.5-1.21-.63-3.32-2.12-2.12-.78,.63-1.27,1.47-1.49,2.44l2.89,.8,.28-1.52c.36-1.9-2.24-2.62-2.89-.8l-6.84,18.99c-2.16,6-4.64,12.02-5.07,18.45-.05,.71,.51,1.21,1.1,1.45,5.86,2.39,11.79,4.6,17.78,6.61,2.89,.97,5.87,2.18,8.88,2.67s5.48-.47,8.12-1.67c10.8-4.91,22.41-8.04,34.24-9.04,2.36-.2,5.36,.01,7.05-1.98s1.25-5.4,1.28-7.81c.08-6.34-.33-12.66-1.18-18.94-.36-2.66-.73-5.33-2.65-7.36-1.62-1.72-3.92-2.65-6.15-3.28-5.69-1.6-11.74-2.34-17.64-2.62-3.33-.16-6.75-.22-10.08,.13-1.5,.16-2.97,.48-4.24,1.33s-2.18,2.05-3.45,2.85c-5.65,3.56-12.66,1.16-18.22-1.28-1.75-.77-3.28,1.82-1.51,2.59h0Z"/></g><g><path class="cls-7" d="M114.5,117c-6.59,3.08-12.04,7.82-16.1,13.85l32.81,31.24,7.36-11.24c1.01-1.54,2.09-3.15,3.72-4.01,2.23-1.18,4.93-.7,7.39-.2,.14-1.75-.83-3.39-1.91-4.78-6.13-7.95-16.07-11.82-23.84-18.18-3.07-2.51-5.67-5.46-9.44-6.69"/><path class="cls-7" d="M113.74,115.7c-6.77,3.21-12.43,8.2-16.64,14.39-.36,.53-.22,1.38,.23,1.82l32.81,31.24c.73,.69,1.82,.51,2.36-.3,2.45-3.75,4.9-7.5,7.36-11.24,.93-1.42,1.93-3,3.58-3.66,1.83-.73,3.99-.24,5.84,.14,.97,.2,1.87-.42,1.9-1.45,.13-4.05-3.51-7.56-6.32-10.07-3.01-2.69-6.39-4.92-9.79-7.07s-6.93-4.3-10.08-6.87-6.07-5.68-10.1-7.08c-1.83-.63-2.61,2.26-.8,2.89,3.72,1.29,6.37,4.41,9.39,6.8s5.98,4.26,9.08,6.22,6.2,3.9,9.01,6.23c1.39,1.15,2.71,2.39,3.9,3.74,1.29,1.45,2.77,3.17,2.71,5.21l1.9-1.45c-2.18-.44-4.44-.85-6.64-.36s-3.75,1.9-5.03,3.62c-3.06,4.1-5.69,8.6-8.49,12.88l2.36-.3-32.81-31.24,.23,1.82c3.93-5.77,9.26-10.32,15.56-13.31,1.74-.83,.22-3.41-1.51-2.59h0Z"/></g><path class="cls-7" d="M140.78,149.09c1.23,2.08,2.48,4.17,3.46,6.39s1.63,4.65,2.49,6.95c1.65,4.45,4.15,8.47,6.37,12.64,4.51,8.44,7.7,17.52,9.56,26.9,.17,.88,1.45,1.45,2.2,.9,1.93-1.43,3.81-2.93,5.62-4.5s2.82-3.02,2.07-5.42-1.7-4.53-2.42-6.84-1.36-4.7-1.94-7.08c-1.18-4.77-2.16-9.58-3.3-14.35-.57-2.38-1.17-4.76-1.86-7.11-.32-1.1-.66-2.2-1.02-3.29s-.67-2.32-1.49-3.15-2.14-1.12-3.28-1.44l-4.08-1.14-8.88-2.49c-1.19-.33-2.02,.76-1.85,1.85,.71,4.36,3.87,7.63,5.31,11.7,1.54,4.35,1.83,8.99,3.65,13.27,.98,2.3,2.17,4.51,3.1,6.83s1.57,4.5,2.23,6.78c1.49,5.09,2.96,10.19,4.44,15.28,.29,1,1.33,1.3,2.2,.9,1.01-.46,2.02-.91,3.02-1.38,.93-.44,1.71-.97,1.77-2.09,.06-1.02-.6-1.79-1.12-2.6-.6-.93-1.16-1.87-1.68-2.84-2.1-3.89-3.33-8.01-4.33-12.3-.51-2.2-1.04-4.41-1.88-6.51s-1.82-3.9-2.79-5.83c-1.72-3.38-2.79-6.97-4.07-10.52-1.36-3.78-3.09-7.5-6.17-10.19l-1.82,2.36c4.2,2.57,8.84,4.36,13.69,5.24l-1.05-1.05,.85,3.38c.48,1.9,3.23,1.07,2.89-.8-.4-2.26-1.4-4.26-2.85-6.04-1.17-1.44-2.96,.4-2.36,1.82,2.41,5.63,4.31,11.47,5.71,17.43,.7,3.01,1.12,6.13,2.21,9.04s2.62,5.36,3.3,8.3c.33,1.45,.48,2.92,.44,4.41-.01,.66-.18,1.37-.15,2.02l-.03,.18c-.19,.44-.04,.45,.45,.04-.01,.07-.71-.86-.67-.81-1.58-2.36-2.68-5.05-3.62-7.73-2.06-5.9-3.73-11.95-5.55-17.93l-3.09-10.12c-.75-2.44-1.31-6.41-4.34-7.03-1.15-.23-2.52,1.05-1.69,2.2,4.75,6.63,9.27,13.67,11.52,21.58,1.02,3.56,1.24,7.18,1.8,10.82,.49,3.21,1.53,6.49,4.17,8.57,.88,.69,2.73,.39,2.56-1.06-.44-3.81-1.3-7.52-2.64-11.12-.56-1.48-3.02-1.41-2.95,.4,.17,4.02,.73,8.01,1.67,11.93l2.74-1.16c-3.73-8.44-3.06-18.33-8.34-26.17-.81-1.2-2.79-.8-2.8,.76l-.02,6,2.95-.4c-1.35-6.92-3.23-13.72-5.63-20.35l-2.51,1.46c3.43,3.91,6.19,8.39,8.09,13.23,.7,1.76,3.34,1.13,2.89-.8-1.14-4.97-3.12-9.72-5.83-14.04-.91-1.44-3.15-.52-2.74,1.16,1.93,7.97,3.85,16,4.04,24.24,.04,1.93,3.04,1.93,3,0-.11-5.44-2.38-10.63-6.33-14.38-1.11-1.05-2.84,0-2.51,1.46,1.2,5.26,2.52,10.49,3.95,15.69l2.74-1.16-5.12-9.09c-1.57-2.79-3.11-5.62-4.97-8.24-3.57-5.01-8.24-9.01-12.92-12.94l-.66,2.51,3.15-.9-1.46-.39c3.78,4.11,7.7,8.08,11.76,11.92,1.18,1.12,3.38-.37,2.36-1.82-2.94-4.14-6.2-8.03-9.79-11.62-1.22-1.22-3.16,.33-2.36,1.82,1.46,2.72,3.64,4.93,6.32,6.45,1.72,.98,3.03-1.47,1.51-2.59-3.45-2.55-7.51-3.98-11.78-4.29-1.15-.08-1.85,1.33-1.3,2.26,1.8,3.02,4.39,5.36,7.01,7.65s5.09,4.69,7.24,7.44c4.28,5.46,7.39,11.79,10,18.19,1.5,3.68,2.86,7.41,4.21,11.15,.65,1.8,3.55,1.03,2.89-.8-4.72-13.11-9.81-26.84-20.37-36.46-2.98-2.71-6.3-5.18-8.4-8.69l-1.3,2.26c3.75,.27,7.25,1.65,10.27,3.88l1.51-2.59c-2.26-1.28-4.02-3.09-5.25-5.38l-2.36,1.82c3.41,3.41,6.54,7.08,9.32,11.01l2.36-1.82c-4.06-3.84-7.98-7.81-11.76-11.92-.36-.39-.96-.53-1.46-.39l-3.15,.9c-1.01,.29-1.55,1.76-.66,2.51,4.57,3.85,9.26,7.76,12.71,12.7,3.72,5.34,6.65,11.3,9.84,16.96,.84,1.48,3.19,.49,2.74-1.16-1.43-5.2-2.75-10.43-3.95-15.69l-2.51,1.46c3.38,3.21,5.35,7.59,5.45,12.26h3c-.2-8.51-2.16-16.81-4.15-25.04l-2.74,1.16c2.59,4.12,4.44,8.58,5.53,13.32l2.89-.8c-2.11-5.35-5.07-10.23-8.87-14.55-.97-1.1-3.01,.06-2.51,1.46,2.4,6.63,4.29,13.43,5.63,20.35,.33,1.69,2.94,1.26,2.95-.4l.02-6-2.8,.76c5.22,7.75,4.63,17.77,8.34,26.17,.71,1.6,3.12,.43,2.74-1.16-.88-3.66-1.4-7.37-1.57-11.13l-2.95,.4c1.25,3.33,2.13,6.79,2.54,10.32l2.56-1.06c-2.59-2.05-3.19-5.34-3.56-8.45-.44-3.69-.88-7.29-2.01-10.85-2.44-7.68-6.8-14.55-11.45-21.06l-1.69,2.2c1.13,.23,1.39,2.14,1.67,3.05l1.58,5.18,3.09,10.12c1.88,6.16,3.47,12.53,6.04,18.46,.58,1.33,1.22,2.63,1.97,3.88,.69,1.15,1.49,2.5,2.86,2.92,3.54,1.11,3.66-3.9,3.6-6.05-.09-3.24-.98-6.25-2.33-9.17-.65-1.41-1.34-2.8-1.82-4.29-.53-1.62-.86-3.3-1.2-4.97-1.52-7.34-3.76-14.45-6.71-21.34l-2.36,1.82c1.12,1.38,1.77,2.98,2.08,4.72l2.89-.8-.85-3.38c-.12-.47-.56-.96-1.05-1.05-4.62-.84-8.97-2.49-12.97-4.94-1.43-.87-3.12,1.22-1.82,2.36,5.06,4.41,5.98,11.62,8.53,17.5,1.61,3.72,3.74,7.09,4.83,11.04s1.77,7.88,3.3,11.66c.82,2.03,1.77,4,2.88,5.89,.3,.51,.61,1.01,.92,1.5,.11,.17,.22,.41,.36,.55l.25,.37,.25-.53c-.06-.09-3.12,1.43-3.45,1.58l2.2,.9c-1.48-5.09-2.95-10.19-4.44-15.28-.67-2.28-1.36-4.57-2.23-6.78s-2.04-4.46-3.03-6.7c-1.91-4.3-2.16-9-3.72-13.4-1.43-4.05-4.6-7.4-5.31-11.7l-1.85,1.85c4.56,1.28,9.12,2.55,13.68,3.84,.39,.11,.94,.17,1.23,.47,.32,.32,.44,.99,.58,1.39,.34,1.02,.66,2.04,.97,3.06,.64,2.13,1.2,4.28,1.73,6.43,2.06,8.4,3.55,16.96,6.34,25.17,.39,1.16,.82,2.31,1.26,3.44s.85,1.89-.1,2.78c-1.83,1.7-3.82,3.27-5.82,4.76l2.2,.9c-1.88-9.48-5.13-18.67-9.65-27.22-2.3-4.35-4.96-8.52-6.59-13.19-.8-2.28-1.49-4.59-2.48-6.81s-2.23-4.31-3.46-6.39c-.98-1.66-3.58-.15-2.59,1.51h0Z"/><g><path class="cls-7" d="M81.5,135c-7.8-1.32-13.5-.5-20.5,2.5-16,9-27,23-37,37-3,30-4,60-3,90,1,2,3,4,5,4,4,0,9,2,13,1,7-2,14,2,20-2,3-3,1-7-1.29-10.36,5.43-3.7,2.02,2.15,0,0,2.29-.64,3.29-2.64,4.29-4.64,3-23,13-42,21-62,7-17,7-35,2-52-1-2-3-4-5.75-3.71"/><path class="cls-7" d="M81.9,133.55c-6.92-1.14-13.54-.62-20.08,1.99-3.26,1.3-6.24,3.42-9.07,5.47-2.79,2.03-5.47,4.22-8.01,6.55-5.04,4.62-9.57,9.77-13.8,15.13-2.01,2.55-3.96,5.14-5.87,7.77-.87,1.19-2.29,2.58-2.57,4.04-.41,2.09-.42,4.34-.62,6.46-1.5,16.53-2.39,33.12-2.66,49.72-.14,8.12-.13,16.24,.03,24.36,.04,1.99,.09,3.98,.14,5.97,.03,.99,.03,1.99,.09,2.98,.06,1.06,.45,1.78,1.08,2.64,.93,1.28,2.14,2.42,3.64,3s3.27,.39,4.85,.65c1.89,.31,3.77,.71,5.68,.89s3.65-.04,5.52-.45c3.88-.85,7.86,.15,11.78,.13,3.54-.01,8.04-.89,9.52-4.54,1.4-3.46-.65-7.12-2.55-9.94l-.54,2.05c.52-.35,1.39-.63,1.83-1.04,.2-.05,.19-.05-.01-.02-.9-.33-1.27-.82-1.11-1.48-.02-.34,.1-.04,.03-.06-.03,0-.35,.36-.27,.24-.09,.03-.17,.06-.26,.07,.08-.03,.17-.03,.25,0-.07,.07-.03,.03-.14-.08l-.66,2.51c1.8-.57,3.11-1.74,4.11-3.33,.44-.71,.99-1.55,1.23-2.36,.34-1.12,.34-2.46,.53-3.62,.75-4.55,1.78-9.05,3.04-13.48,2.43-8.6,5.7-16.94,9.15-25.17s7.46-16.48,10.23-25.03,4.05-18.48,3.5-27.88c-.31-5.27-1.12-10.52-2.38-15.64-.56-2.26-.99-4.49-2.55-6.3-1.44-1.67-3.5-2.64-5.72-2.49-1.92,.13-1.93,3.13,0,3,4.45-.29,5.07,5.14,5.8,8.36,.96,4.3,1.6,8.67,1.85,13.07,.52,8.84-.48,17.72-3.11,26.19-2.51,8.07-6.24,15.81-9.53,23.58s-6.32,15.24-8.81,23.11c-1.44,4.56-2.68,9.19-3.62,13.88-.24,1.18-.46,2.36-.66,3.55s-.25,2.6-.58,3.81c-.41,1.56-1.7,3.34-3.28,3.85-1.05,.33-1.5,1.69-.66,2.51,1.62,1.57,4.21,.92,5.22-1.02,.55-1.06,.17-2.39-1.05-2.73-1.33-.37-2.84,.71-3.86,1.39-.64,.43-1.01,1.35-.54,2.05,1.38,2.04,3.73,5.43,2.05,7.92-.82,1.21-2.67,1.65-4.04,1.88-1.59,.27-3.24,.18-4.84,.07-3.24-.23-6.47-.63-9.69-.01-1.5,.28-2.81,.59-4.34,.5-1.65-.1-3.27-.43-4.89-.72-1.42-.25-2.85-.46-4.29-.53-1.52-.08-3.02-1.15-3.68-2.56-.29-.62-.23-1.24-.25-1.93-.03-.99-.06-1.99-.08-2.98-.05-1.99-.09-3.98-.13-5.97-.13-7.62-.13-15.25,0-22.87,.25-15.1,1.01-30.2,2.27-45.25,.15-1.82,.31-3.65,.48-5.47,.09-.99,.18-1.99,.28-2.98,.08-.82,0-1.72,.51-2.39,1.89-2.47,3.65-5.04,5.53-7.51,3.81-4.99,7.86-9.82,12.3-14.27,5.02-5.03,10.55-9.54,16.67-13.17s13.82-4.37,20.83-3.21c1.89,.31,2.7-2.58,.8-2.89h0Z"/></g><g><path class="cls-6" d="M175.94,146.56c-.34-2.12-.25-4.3,.26-6.39,.25-1.01,.6-2.02,1.28-2.8,1.91-2.2,5.63-1.73,7.89,.1s3.52,4.59,4.98,7.11c2.55,4.36,5.98,8.31,7.38,13.17,.17,.6,.31,1.24,.16,1.84s-.68,1.16-1.3,1.14c.32-1.79-1.49-3.21-3.15-3.95-2.76-1.23-5.98-2.08-7.64-4.61-.23-.36-.44-.76-.81-.99-.61-.38-1.46-.12-1.96,.39s-.74,1.23-.96,1.91l-5.75,17.66c-.85,2.62-1.71,5.24-2.24,7.94-2.11,10.67-.59,24.9,1.41,34.9-2,7-6.17-.63-11,0-.74-3.47-2.26-7.05-2.85-10.54-.59-3.5-1.1-7.02-1.08-10.57,.04-6.92,2.18-13.82,6.07-19.55,1.31-1.93,2.81-3.74,3.82-5.84,2-4.18,1.8-9.03,2.77-13.56,.58-2.72,1.6-5.35,3-7.76"/><path class="cls-6" d="M177.38,146.16c-.36-2.48-.52-7.88,2.67-8.66s5.47,1.86,6.92,4.19c1.75,2.81,3.35,5.68,5.17,8.44,.93,1.4,1.84,2.82,2.62,4.31,.39,.75,.76,1.51,1.06,2.3,.11,.29,.74,2.48,.77,2.47l1.5,1.5c.37-3.37-3.2-4.99-5.78-6.04-1.38-.56-2.85-1.12-4.04-2.04s-1.67-2.63-3.2-3.05c-3.95-1.08-4.93,4.97-5.73,7.45l-3.86,11.85c-1.21,3.72-2.49,7.43-3.11,11.3-.55,3.39-.78,6.83-.8,10.26-.04,7,.71,14.01,1.91,20.89,.26,1.48,.9,2.8-.19,3.95-.18,.19-.25,.19-.36,.19-.41-.02-.85-.26-1.21-.45-2.29-1.17-4.5-2.81-7.21-2.54l1.45,1.1c-.51-2.31-1.28-4.54-1.95-6.81s-1.09-4.69-1.42-7.08c-.65-4.65-.73-9.33,.31-13.93s2.84-8.53,5.43-12.23c1.29-1.85,2.7-3.62,3.63-5.69s1.36-4.05,1.68-6.18c.36-2.44,.54-4.92,1.06-7.34,.56-2.61,1.52-5.08,2.85-7.4,.96-1.68-1.63-3.19-2.59-1.51-2.37,4.16-3.35,8.55-3.93,13.26-.28,2.3-.57,4.62-1.34,6.82s-2.21,4.1-3.57,6c-5.58,7.82-7.79,17.18-6.72,26.69,.3,2.7,.66,5.45,1.35,8.08s1.71,5.37,2.32,8.13c.13,.59,.82,1.16,1.45,1.1,3.54-.36,7.66,5.3,10.91,1.92,.78-.81,1.56-2.29,1.59-3.42,.03-1.39-.55-3-.78-4.38-.53-3.2-.95-6.42-1.23-9.65-.58-6.64-.77-13.52,.48-20.1,.72-3.79,2.03-7.44,3.22-11.1l3.63-11.16c.35-1.08,.7-2.17,1.06-3.25,.12-.37,.22-.79,.39-1.15,.13-.28,.6-.69,.42-.76,.17,.07,.43,.63,.53,.78,.28,.39,.59,.77,.93,1.1,.51,.5,1.1,.94,1.7,1.32,1.46,.92,3.1,1.49,4.68,2.16,1.25,.52,3.24,1.3,3.06,2.94-.08,.74,.76,1.59,1.5,1.5,7.87-.93-2.95-15.09-4.62-17.86-1.78-2.95-3.21-6.33-6.11-8.39-2.35-1.67-5.92-2.26-8.41-.56-3.46,2.37-3.49,7.86-2.95,11.54,.28,1.9,3.17,1.09,2.89-.8h0Z"/></g><g><path class="cls-6" d="M203.08,225.35c5.31,13.03,9.97,26.33,13.95,39.83,.12,.42,.26,.86,.59,1.15,.34,.3,.82,.37,1.27,.43,5.59,.74,11.23,1.05,16.86,.91,2.81-17.67,5.16-35.63,3.21-53.42-.08-.69-.2-1.46-.76-1.88-.44-.33-1.05-.35-1.6-.35-13.36-.01-26.72-.82-39.99-2.4,2.29,8.34,5.64,16.39,9.95,23.89"/><path class="cls-6" d="M201.63,225.75c3.2,7.85,6.16,15.79,8.88,23.82,1.36,4.01,2.66,8.05,3.9,12.1,.3,.99,.6,1.99,.9,2.99,.24,.8,.42,1.66,.92,2.34,1.09,1.49,3.42,1.38,5.05,1.56,4.8,.53,9.63,.73,14.46,.62,.6-.01,1.34-.45,1.45-1.1,2.09-13.14,3.94-26.39,3.98-39.72,0-3.24-.09-6.49-.32-9.73-.11-1.57-.23-3.16-.44-4.72-.17-1.22-.58-2.38-1.74-2.99s-2.76-.39-4.05-.4c-1.81-.01-3.63-.04-5.44-.08-3.3-.08-6.59-.2-9.89-.37-7.58-.39-15.14-1.04-22.68-1.94-.99-.12-1.68,1.05-1.45,1.9,2.34,8.47,5.74,16.63,10.1,24.25,.96,1.68,3.55,.17,2.59-1.51-4.24-7.41-7.52-15.3-9.8-23.54l-1.45,1.9c12.45,1.47,24.97,2.28,37.51,2.38,.82,0,1.65-.01,2.47,.01,.55,.02,.58-.02,.81,.42,.27,.53,.2,1.66,.25,2.24,.07,.81,.14,1.62,.2,2.43,.22,3.07,.32,6.16,.32,9.24,0,6.18-.39,12.35-1.02,18.49-.72,7-1.75,13.97-2.85,20.92l1.45-1.1c-5.15,.11-10.31-.12-15.42-.73-.39-.05-1.39,0-1.71-.25-.23-.19-.33-1.06-.41-1.33-.32-1.07-.64-2.14-.97-3.22-.75-2.45-1.52-4.89-2.31-7.32-3.12-9.58-6.6-19.04-10.4-28.37-.72-1.76-3.62-.99-2.89,.8h0Z"/></g><g><path class="cls-7" d="M195.97,207.6c12.63-1,25.37-.5,37.88,1.49,1.03,.16,2.1,.35,2.95,.96,1.57,1.11,1.96,3.23,2.18,5.13,1.16,9.96,1.23,20.01,1.3,30.04,.01,1.52,.01,3.08-.58,4.48s-1.95,2.58-3.46,2.49c-1.32-.08-2.42-1.1-3.12-2.23s-1.13-2.41-1.85-3.52c-1.71-2.67-4.79-4.06-7.65-5.4-4.89-2.29-9.66-4.84-14.28-7.64-1.58-.95-3.16-1.95-4.38-3.33-.86-.97-1.53-2.1-2.15-3.23-3.28-6-5.57-12.54-6.74-19.27"/><path class="cls-7" d="M195.97,209.1c10.04-.78,20.14-.64,30.16,.45,2.45,.27,4.89,.59,7.33,.98,.92,.15,1.98,.26,2.7,.91s.95,1.61,1.14,2.5c.48,2.32,.58,4.76,.76,7.12,.2,2.54,.34,5.08,.44,7.63,.2,5.01,.25,10.03,.28,15.04,.01,1.93,.42,4.66-1,6.22-1.69,1.85-3.24-.43-3.99-1.93-.96-1.92-1.9-3.62-3.61-4.99-1.56-1.25-3.31-2.14-5.11-2.99-4.33-2.04-8.58-4.22-12.72-6.63-2.19-1.28-4.63-2.51-6.33-4.43s-2.73-4.36-3.76-6.59c-2.25-4.85-3.8-10-4.74-15.25-.34-1.9-3.23-1.09-2.89,.8,.9,5.08,2.41,10,4.48,14.72,1.04,2.37,2.17,4.81,3.64,6.95,1.39,2.02,3.24,3.45,5.3,4.73,4.57,2.82,9.32,5.37,14.18,7.67,1.99,.94,4.08,1.81,5.84,3.15,2,1.53,2.53,3.68,3.87,5.69,1.18,1.78,3.15,3.22,5.4,2.72,2.08-.46,3.54-2.29,4.1-4.27,.67-2.4,.36-5.1,.34-7.55-.02-2.8-.06-5.59-.12-8.39-.13-5.59-.4-11.17-.99-16.73-.23-2.13-.35-4.52-1.58-6.36-1.36-2.02-3.52-2.45-5.78-2.8-12.35-1.89-24.87-2.36-37.32-1.4-1.91,.15-1.93,3.15,0,3h0Z"/></g><path class="cls-6" d="M163.06,213.92c1.38,8.56,2.76,17.13,3.43,25.79s-.03,16.96,1.85,25.18c.45,1.98,1.7,2.38,3.57,2.58l6.44,.66c3.11,.32,8.27,1.54,10.08-2.02,.84-1.66,0-3.92-.32-5.63-.39-2.06-.8-4.12-1.23-6.17-.88-4.22-1.84-8.42-2.85-12.61-1.12-4.68-2.3-9.34-3.49-14-.6-2.36-1.21-4.71-1.81-7.07-.28-1.09-.56-2.19-.84-3.28-.16-.62-.32-1.25-.48-1.87-.11-.45-.43-1.11-.42-1.57l-2.56,1.06-.3-.53,1.85-1.85c.77,.29-.1-.19-.28-.28-.32-.16-.71-.25-1.07-.26-.88-.02-1.85,.23-2.72,.37-1.85,.29-3.69,.68-5.51,1.14-.58,.15-1.17,.81-1.1,1.45,.92,8.92,1.84,17.85,2.48,26.79,.31,4.43,.56,8.86,.69,13.3,.07,2.17,0,4.36,.12,6.53,.11,2.04,1.21,2.96,2.97,3.75,3.62,1.62,7.55,2.75,11.54,2.08,1.64-.27,3.49-.91,3.33-2.92-.07-.86-.61-1.7-.84-2.53-.27-.96-.4-1.95-.47-2.95-.13-2.01-.03-4.03-.1-6.04s-.33-4.19-.69-6.26c-.74-4.25-1.92-8.42-3-12.59l-3.79-14.6c-.31-1.2-.61-2.4-.93-3.59-.24-.91-.61-1.8-1.53-2.21-.98-.43-2.2-.07-3.21,.07l-3.67,.49c-.78,.1-1.54,.6-1.5,1.5,.44,9.89,1.06,19.77,1.87,29.64,.4,4.93,.82,9.87,1.34,14.79,.1,.98,.15,1.95,.82,2.74,.7,.83,1.81,1.11,2.79,1.46l6.81,2.47c.45,.16,1.15,0,1.46-.39,1.28-1.56,1.68-3.34,1.83-5.31,.18-2.34,.24-4.69,.3-7.03,.11-4.63-.02-9.26-.67-13.86-.65-4.58-1.87-9.06-3.08-13.52s-2.52-8.45-4.86-12.2c-.82-1.3-2.7-.71-2.8,.76-.27,4.07,.61,8.08,1.65,11.99s2.13,7.98,2.84,12.06c1.44,8.2,1.78,16.57,1.13,24.87l2.95-.4c-1.5-8.84-2.55-17.74-3.16-26.68-.53-7.87-.95-15.9-4.45-23.12-.54-1.12-2.51-.89-2.74,.36-.76,4.1,.52,7.99,1.58,11.91s2.04,8.18,2.44,12.39c.8,8.37,.65,16.88,.86,25.28l2.95-.4c-1.31-9.11-.41-18.36-1.38-27.5s-3.71-17.68-6.49-26.28c-.55-1.69-2.76-1.24-2.95,.4-.52,4.68,.13,9.34,.89,13.96s1.47,9.35,1.5,14.13-.26,9.4,.09,14.09c.17,2.3,.47,4.61,1.04,6.84,.45,1.74,1.18,3.35,2.76,4.31,1.11,.68,2.57-.44,2.2-1.69-1.89-6.41-1.32-13.12-1.42-19.71s-1.32-13.61-2.59-20.34l-2.89,.8c3.61,10.18,5.24,20.91,4.82,31.7-.08,1.93,2.92,1.93,3,0,.43-11.03-1.24-22.09-4.93-32.49-.65-1.83-3.25-1.1-2.89,.8,1.28,6.78,2.44,13.54,2.49,20.46,.05,6.56-.37,13.21,1.52,19.58l2.2-1.69c-1.42-.87-1.61-3.33-1.87-4.8-.38-2.16-.53-4.36-.59-6.56-.12-4.39,.15-8.78,.02-13.17-.25-8.77-3.34-17.4-2.35-26.21l-2.95,.4c2.79,8.63,5.63,17.36,6.48,26.44s.09,18.27,1.4,27.34c.24,1.69,2.99,1.26,2.95-.4-.2-8.25-.09-16.58-.82-24.8-.36-3.99-1.1-7.91-2.1-11.79s-2.82-8.13-2.07-12.19l-2.74,.36c3.46,7.14,3.58,15.25,4.14,23,.63,8.74,1.7,17.45,3.17,26.09,.3,1.77,2.82,1.18,2.95-.4,.64-8.25,.27-16.55-1.08-24.72-.68-4.09-1.67-8.09-2.76-12.09s-2.07-7.96-1.8-12.11l-2.8,.76c2.13,3.41,3.38,7.2,4.44,11.05,1.14,4.13,2.28,8.29,2.98,12.52s.86,8.69,.81,13.04c-.03,2.09-.11,4.18-.21,6.27-.08,1.71,.09,3.98-1.07,5.4l1.46-.39-6.35-2.3c-.4-.15-1-.25-1.36-.49-.56-.39-.48-.78-.55-1.47-.11-1.15-.23-2.3-.34-3.45-.42-4.43-.81-8.87-1.15-13.31-.71-9.05-1.26-18.1-1.67-27.17l-1.5,1.5c1.83-.25,3.67-.45,5.5-.74l-.13-.35c.08,.26,.15,.51,.21,.77,.13,.48,.25,.96,.37,1.44l.74,2.87,2.98,11.49c1.91,7.37,4.16,14.69,4.17,22.37,0,1.58-.02,3.16,.14,4.74,.09,.83,.2,1.67,.4,2.48,.1,.41,.22,.82,.36,1.21,.09,.26,.19,.51,.3,.76,.13,.56,.24,.53,.34-.09,.03,.07-2.09,.37-2.21,.37-.89,.05-1.8,0-2.68-.13-1.79-.27-3.56-.85-5.23-1.56-.51-.22-1.61-.5-1.87-1.02-.31-.63-.05-1.97-.06-2.66-.03-1.97-.08-3.95-.15-5.92-.15-3.94-.37-7.89-.65-11.82-.63-8.87-1.55-17.71-2.46-26.55l-1.1,1.45c1.44-.36,2.89-.68,4.35-.94,.69-.12,1.39-.23,2.08-.33,.21-.03,.58-.16,.79-.11,.17,.03,.54,.34,.76,.42,1.03,.39,2.23-.82,1.85-1.85-.12-.31-.23-.57-.48-.8-.96-.89-2.52-.26-2.56,1.06-.02,.77,.33,1.62,.52,2.37,.24,.94,.48,1.87,.71,2.81,.52,2.04,1.04,4.08,1.57,6.11,.97,3.79,1.94,7.57,2.88,11.36,1.88,7.57,3.67,15.17,5.16,22.83,.18,.95,.37,1.9,.54,2.85,.12,.64,.64,2.02,.31,2.62-.74,1.36-3.97,.63-5.13,.51l-5.45-.56-2.97-.31c-.31-.03-1.25-.42-.79,.15-.27-.34-.29-1.29-.37-1.71-1.43-7.54-.9-15.34-1.48-22.97-.68-9-2.12-17.92-3.56-26.83-.31-1.9-3.2-1.09-2.89,.8h0Z"/></g><ellipse class="cls-10" cx="167.5" cy="194.75" rx="4" ry="4.75" transform="translate(-48.32 55.45) rotate(-16.46)"/><ellipse class="cls-10" cx="174.22" cy="233.16" rx="4" ry="4.75" transform="translate(-29.15 24.94) rotate(-7.56)"/><ellipse class="cls-10" cx="180.22" cy="268.16" rx="4" ry="4.75" transform="translate(-33.71 26.03) rotate(-7.56)"/></g></g></g><g><path class="cls-8" d="M131.32,44.5l3.16-1.33c.65-.27,1.3-.55,1.98-.78,2.17-.73,4.22-1.14,6.55-1.32,1.39-.11,2.62-.18,4,0,1.28,.17,2.79,.45,4,.85,1.83,.6,3.89,1.49,5.72,2.09-1.99-2.07-4.72-3.63-7.73-4.41-1.09-.28-2.21-.46-3.33-.61-4.04-.53-8.26-.61-12.12,.54-.25,.07-.5,.16-.66,.34-.36,.42-.02,1.15-.53,1.43,.06-.47-.16-.96-.57-1.27l-.48,1.59-1.06-1c.35,.35,.51,.82,.44,1.27l-1.48-.87,.33,.68-.84-.5,2.19,2.84c.12,.16,.31,.34,.53,.28"/><path class="cls-8" d="M131.51,44.82c2.09-.88,4.15-1.86,6.33-2.48s4.45-.92,6.72-1c4.32-.15,8.06,1.68,12.05,3.02,.37,.12,.62-.37,.36-.63-3.5-3.55-8.07-4.83-12.9-5.31-2.52-.25-5.07-.29-7.58,.07-1.1,.16-2.47,.29-3.47,.81-.83,.43-.38,1.21-.94,1.72l.64,.27c-.02-.67-.21-1.07-.68-1.54-.2-.2-.55-.1-.63,.17l-.48,1.59,.63-.17-1.06-1c-.36-.34-.83,.16-.53,.53l.33,1.01,.56-.32-1.48-.87c-.34-.2-.67,.19-.51,.51l.33,.68,.51-.51-.84-.5c-.3-.18-.75,.2-.51,.51l1.78,2.31c.36,.47,.57,.87,1.16,.99,.47,.09,.67-.63,.2-.72-.53-.1-1.09-1.13-1.4-1.53l-1.1-1.42-.51,.51,.84,.5c.34,.2,.67-.19,.51-.51l-.33-.68-.51,.51,1.48,.87c.25,.15,.56-.04,.56-.32,.02-.64-.15-1.04-.55-1.54l-.53,.53,1.06,1c.21,.2,.54,.11,.63-.17l.48-1.59-.63,.17,.46,1.01c0,.33,.4,.48,.64,.27,.67-.61,.38-1.39,1.45-1.8s2.32-.52,3.43-.63c2.19-.23,4.4-.16,6.58,.05,4.64,.45,9.02,1.68,12.37,5.09l.36-.63c-4.22-1.42-8.13-3.27-12.69-3.03-2.19,.11-4.37,.41-6.48,1.01-2.24,.64-4.37,1.65-6.51,2.55-.44,.19-.06,.83,.38,.65h0Z"/></g><g><path class="cls-8" d="M99.23,57.19c.69-2.36,2.21-4.52,4.32-6.12,.31-.24,.64-.46,1.02-.61,.43-.17,.9-.23,1.36-.28l5.17-.63c2.01-.24,4.05-.5,5.94-1.16l-2.65-4.07c.02,.44-.06,.87-.23,1.29-.36-.16-.7-.35-1.01-.57v.61l-1.03-.27-.12,.57-.79-.11-5.5,1.59c-.66,.19-1.33,.39-1.95,.68-2.14,1.04-3.25,3.18-3.86,5.25-.4,1.36-.65,2.75-.74,4.15"/><path class="cls-8" d="M99.59,57.29c.47-1.54,1.26-2.96,2.32-4.18,.51-.58,1.07-1.12,1.67-1.59,.9-.71,1.75-.89,2.86-1.03,3.54-.43,7.29-.59,10.69-1.74,.22-.07,.36-.34,.22-.55l-2.65-4.07c-.2-.31-.69-.19-.7,.19,0,.42-.08,.79-.21,1.19l.55-.22c-.36-.17-.68-.35-1.01-.57-.24-.16-.56,.06-.56,.32v.61l.46-.36-1.02-.27c-.19-.05-.42,.06-.46,.26l-.12,.57,.46-.26c-.3-.04-.63-.14-.94-.12-.43,.04-.92,.26-1.34,.38l-2.91,.84c-1.62,.47-3.31,.84-4.63,1.95-2.49,2.1-3.26,5.77-3.48,8.86-.03,.48,.72,.48,.75,0,.21-2.84,.9-6.27,3.16-8.24,1.23-1.07,2.87-1.4,4.4-1.84l2.26-.66c.85-.25,1.64-.58,2.53-.45,.19,.03,.42-.04,.46-.26l.12-.57-.46,.26,1.02,.27c.24,.06,.47-.12,.47-.36v-.61l-.55,.32c.32,.22,.65,.4,1.01,.57,.23,.11,.47,.02,.55-.22,.16-.47,.23-.89,.24-1.39l-.7,.19,2.65,4.07,.22-.55c-2,.68-4.09,.93-6.18,1.19-1.93,.23-4.01,.28-5.9,.76-1.5,.38-2.81,1.77-3.75,2.93-1.01,1.25-1.77,2.65-2.24,4.19-.14,.46,.58,.66,.72,.2h0Z"/></g><g><path class="cls-9" d="M129.76,8.13c6.42,3.77,9.86,10.3,15.74,14.87,1.71,1.33,4.54,2.4,6,4,1.45,1.59,3.92,3.42,5,5,5.8,8.5,5.97,16.39,10.52,26.92,.23,.52,.92,.65,1.32,.24,.71-.73,1.34-1.46,1.55-2.14,.61-2.02,5.61-6.02,7.61-7.02,.4-.2-1.2,.4-1,0,.39-.79-1.07-.58-1.62-1.26l-22.04-27.29c-.93-1.15-1.85-2.3-2.84-3.39-4.32-4.77-9.84-8.44-15.91-10.58-1.41-.5-3.31-.76-4.12,.5,2.17,2.14,4.68,3.95,7.39,5.34"/><path class="cls-9" d="M129.19,9.1c5.06,3.03,8.39,7.95,12.51,12.04,2.03,2.01,4.2,3.48,6.65,4.92,2.27,1.34,4.26,3.44,6.12,5.31s3.22,4.61,4.32,7.08,1.94,5.17,2.73,7.81c.84,2.8,1.64,5.61,2.62,8.37,.49,1.4,1.03,2.79,1.61,4.16,.47,1.11,1.32,2.12,2.67,1.62,1.24-.46,2.04-1.96,2.56-3.09,.4-.86,1.06-1.55,1.72-2.21,1.63-1.62,3.45-3.02,5.43-4.17,.81-.47,.69-1.84-.27-2.06-.26-.06-.51-.03-.77,.03-.55,.13-.39-.06-.04,.2l.52,1.27c.09-.65,.18-1.17-.35-1.67-.58-.55-1.31-.53-1.86-1.16-1.73-1.97-3.32-4.11-4.97-6.15l-9.93-12.3c-3.19-3.95-6.26-8.08-9.67-11.84-2.91-3.21-6.37-5.95-10.16-8.06-2.03-1.13-4.19-2.15-6.41-2.87-1.9-.61-3.93-.63-5.23,1.07-.29,.39-.15,1.05,.18,1.36,2.26,2.2,4.82,4.06,7.62,5.52,1.28,.67,2.42-1.27,1.14-1.94-2.64-1.37-5.03-3.09-7.17-5.16l.18,1.36c.89-1.16,3.82,.36,4.76,.75,1.8,.75,3.55,1.66,5.21,2.68,3.33,2.04,6.31,4.59,8.87,7.54,2.93,3.37,5.66,6.94,8.47,10.41l8.69,10.76,4.97,6.15c.73,.91,1.42,1.98,2.27,2.78,.28,.27,.58,.42,.94,.57,.1,.04,.28,.14,.39,.14,.32,.17,.35,.08,.08-.28-.1-.39-.16-.48-.18-.27-.08,.55,.07,.94,.52,1.27,.31,.23,.69,.21,1.04,.17,.16-.02,.34-.05,.5-.09,.35-.1,.48,.06-.2-.09l-.27-2.06c-3.09,1.79-6.62,4.33-8.16,7.65-.14,.29-1.21,1.58-.84,1.71-.33-.12-.79-1.93-.93-2.28-.56-1.46-1.08-2.94-1.55-4.42-.83-2.58-1.56-5.2-2.36-7.79-1.5-4.79-3.38-10.28-6.95-13.95-.91-.94-1.92-1.78-2.87-2.68s-1.78-1.81-2.87-2.53-2.17-1.25-3.24-1.91c-1.23-.75-2.3-1.71-3.34-2.7-4.55-4.33-8.06-9.66-13.54-12.94-1.25-.75-2.38,1.2-1.14,1.94h0Z"/></g><g><path class="cls-9" d="M120.15,9.79c-8.54-.98-17.44,4.02-21.05,11.83-1.04,2.24-1.66,4.65-2.15,7.07-1.38,6.82-1.52,14.54,2.76,20.02,.2-1.08,.55-2.13,1.03-3.12,1.13,.48,2.31,.82,3.51,1.03,.73-1.36,1.33-2.78,1.79-4.25l3.47,2.7,.85-5.8c1.01,1.74,2.44,3.24,4.13,4.32-1.26-5.14-1.26-10.58,.01-15.72,1.82,3.76,5.14,6.7,8.97,8.37s8.13,2.12,12.28,1.64l-1.01-1.09,3.11-.65c-.81-1.79-1.99-3.42-3.45-4.75,4.7,2.79,10.31,4.02,15.74,3.46,.19-.96,1.36-1.59,2.27-1.22-7.39-5.68-11.11-14.85-17.14-21.96-2.05-2.41-4.66-4.73-7.82-4.86-2.92-.13-5.55,1.63-7.93,3.31"/><path class="cls-9" d="M120.15,8.67c-6.83-.72-13.85,2.1-18.48,7.14-2.59,2.81-4.21,6.2-5.18,9.88s-1.62,7.81-1.51,11.74c.12,4.23,1.17,8.45,3.76,11.86,.52,.69,1.84,.78,2.06-.27,.2-.99,.49-1.93,.92-2.85l-1.27,.52c1.14,.46,2.3,.8,3.51,1.03,.47,.09,1.03-.05,1.27-.52,.76-1.45,1.39-2.96,1.9-4.52l-1.88,.5,3.47,2.7c.58,.45,1.74,.44,1.88-.5l.85-5.8-2.06,.27c1.15,1.92,2.67,3.49,4.54,4.72,.86,.57,1.87-.37,1.65-1.27-1.19-4.99-1.18-10.13,.01-15.12l-2.06,.27c4.1,8.21,13.52,11.51,22.22,10.57,.96-.1,1.5-1.16,.8-1.92l-1.01-1.09-.5,1.88,3.11-.65c.77-.16,.96-1.04,.67-1.65-.89-1.89-2.11-3.55-3.63-4.98l-1.36,1.77c4.93,2.87,10.63,4.15,16.31,3.61,.51-.05,.93-.32,1.08-.83,.13-.43,.48-.55,.88-.43,1.01,.3,2.01-1.17,1.09-1.88-6.38-4.98-9.97-12.36-14.65-18.78-2.22-3.04-4.74-6.35-8.36-7.78-4.12-1.63-7.93,.54-11.25,2.88-1.18,.83-.05,2.78,1.14,1.94,3.33-2.34,6.92-4.42,10.8-1.95,3.09,1.96,5.3,5.35,7.32,8.32,4.05,5.96,7.64,12.46,13.41,16.97l1.09-1.88c-1.6-.47-3.16,.43-3.65,2l1.08-.83c-5.31,.5-10.56-.62-15.18-3.3-1.09-.63-2.31,.88-1.36,1.77,1.39,1.31,2.46,2.8,3.27,4.52l.67-1.65-3.11,.65c-.87,.18-1.03,1.3-.5,1.88l1.01,1.09,.8-1.92c-7.97,.86-16.51-1.9-20.28-9.46-.43-.87-1.84-.64-2.06,.27-1.29,5.38-1.29,10.93-.01,16.32l1.65-1.27c-1.54-1.02-2.78-2.33-3.73-3.92-.45-.75-1.91-.74-2.06,.27l-.85,5.8,1.88-.5-3.47-2.7c-.67-.52-1.6-.37-1.88,.5-.45,1.38-1.01,2.7-1.68,3.98l1.27-.52c-1.21-.23-2.37-.57-3.51-1.03-.42-.17-1.08,.11-1.27,.52-.51,1.09-.9,2.2-1.14,3.39l2.06-.27c-4.34-5.73-3.91-13.4-2.45-20.06,.77-3.51,1.94-6.92,4.22-9.74,1.97-2.44,4.5-4.37,7.33-5.7,3.24-1.52,6.83-2.1,10.38-1.73,1.44,.15,1.43-2.1,0-2.25h0Z"/></g></g></g><g><path class="cls-7" d="M25.07,174.45c-7.51,6.45-6.89,18.01-10.2,27.34-1.22,3.44-3.06,6.97-2.29,10.53,.31,1.44,1.04,2.78,1.26,4.24,.65,4.29-3.09,7.97-3.89,12.23-.39,2.08-.06,4.22-.31,6.32-.33,2.83-1.68,5.41-2.77,8.04-3.02,7.32-4.09,15.43-3.06,23.28,.13,1,.35,2.09,1.14,2.71,.63,.49,1.47,.57,2.26,.63l12.76,.97,5.41-97.62c-4.88,3.87-2.88,7.73-5.88,12.87"/><path class="cls-7" d="M24.01,173.39c-5.13,4.51-6.73,11.3-8.04,17.72-.68,3.34-1.32,6.71-2.42,9.95-1.32,3.85-3.36,7.7-2.36,11.88,.45,1.89,1.48,3.58,1.16,5.58-.27,1.7-1.12,3.25-1.87,4.78s-1.58,3.19-1.93,4.92c-.43,2.06-.2,4.14-.34,6.23-.29,4.18-2.86,8.02-4.1,11.96s-1.99,8.28-2.14,12.51c-.09,2.43,.02,4.87,.33,7.29,.24,1.88,.7,3.77,2.6,4.6,1.03,.45,2.21,.46,3.31,.54l3.92,.3,7.85,.6c.84,.06,1.46-.74,1.5-1.5l4.22-76.2,1.19-21.42c.08-1.42-1.64-1.82-2.56-1.06-1.99,1.63-3.29,3.7-3.93,6.19s-.94,4.78-2.19,6.99c-.95,1.68,1.64,3.2,2.59,1.51,1.22-2.16,1.76-4.44,2.29-6.83s1.44-4.17,3.36-5.74l-2.56-1.06-4.22,76.2-1.19,21.42,1.5-1.5c-4.31-.33-8.66-.51-12.96-.99-.81-.09-1.28-.24-1.54-1.05-.28-.89-.31-1.89-.39-2.82-.17-1.97-.21-3.95-.11-5.93,.19-4.05,.94-8.06,2.22-11.91s3.42-7.26,3.91-11.23c.24-1.95-.04-3.93,.25-5.88,.24-1.65,.98-3.15,1.71-4.63,1.49-3.01,2.95-6.09,2.04-9.51-.5-1.89-1.35-3.52-1.17-5.54,.17-1.9,.93-3.74,1.61-5.5,1.21-3.15,2.08-6.34,2.77-9.65,1.4-6.72,2.37-14.32,7.82-19.11,1.45-1.28-.68-3.39-2.12-2.12h0Z"/></g><path class="cls-5" d="M172.91,77.6c-.39,1.22-.62,2.5-.67,3.78-.02,.64,0,1.29,.07,1.93s.13,1.28,.35,1.87,.6,1.09,1.22,1.25,1.28-.06,1.59-.63c.57-1.03-.35-2.13-.67-3.07-.44-1.3-.52-2.68-.6-4.04-.06-.96-1.56-.97-1.5,0,.07,1.29,.15,2.6,.48,3.86,.16,.63,.4,1.24,.7,1.82,.09,.18,.19,.36,.24,.56,.02,.06,.04,.13,.04,.13,0,0,.14-.07,.13-.06,.05,0,.05,0,0,0-.05-.01-.09-.04-.11-.08-.05-.05-.07-.13-.1-.19-.11-.28-.15-.6-.2-.9-.11-.64-.15-1.29-.15-1.94,0-1.33,.22-2.63,.62-3.89,.3-.92-1.15-1.32-1.45-.4h0Z"/></svg>