<?xml version="1.0" encoding="UTF-8"?><svg id="Layer_1" xmlns="http://www.w3.org/2000/svg" viewBox="0 0 109.5 109"><defs><style>.cls-1{fill:#f3f4f4;}.cls-2{fill:#e48b68;}.cls-3{stroke-width:2px;}.cls-3,.cls-4{fill:none;stroke:#f3f4f4;stroke-miterlimit:10;}</style></defs><rect class="cls-2" x="6.56" y="7" width="95" height="95" rx="15" ry="15"/><circle class="cls-3" cx="54.1" cy="55" r="6.53"/><circle class="cls-1" cx="54.1" cy="55" r="2.18"/><circle class="cls-3" cx="54.46" cy="55.36" r="13.42"/><rect class="cls-4" x="51.2" y="37.59" width="6.53" height="4.35" rx="1.27" ry="1.27"/><rect class="cls-4" x="51.2" y="68.78" width="6.53" height="4.35" rx="1.27" ry="1.27"/><rect class="cls-4" x="59.9" y="40.49" width="6.53" height="4.35" rx="1.27" ry="1.27" transform="translate(39.36 -29.74) rotate(37.77)"/><rect class="cls-4" x="41.64" y="65.45" width="6.53" height="4.35" rx="1.27" ry="1.27" transform="translate(50.82 -13.33) rotate(37.77)"/><rect class="cls-4" x="66.3" y="48.04" width="6.53" height="4.35" rx="1.27" ry="1.27" transform="translate(94.65 -31.83) rotate(71.18)"/><rect class="cls-4" x="36.06" y="57.56" width="6.53" height="4.35" rx="1.27" ry="1.27" transform="translate(83.17 3.24) rotate(71.18)"/><rect class="cls-4" x="65.79" y="58.28" width="6.53" height="4.35" rx="1.27" ry="1.27" transform="translate(149.23 15.77) rotate(109.66)"/><rect class="cls-4" x="36.06" y="48.13" width="6.53" height="4.35" rx="1.27" ry="1.27" transform="translate(99.93 30.2) rotate(109.66)"/><rect class="cls-4" x="60.72" y="66.26" width="6.53" height="4.35" rx="1.27" ry="1.27" transform="translate(156.12 85.38) rotate(143.49)"/><rect class="cls-4" x="41.86" y="40.15" width="6.53" height="4.35" rx="1.27" ry="1.27" transform="translate(106.58 49.5) rotate(143.49)"/><rect class="cls-1" x="39.01" y="36.87" width="4.06" height="1.45" transform="translate(46.84 -17.76) rotate(53.49)"/><rect class="cls-1" x="35.7" y="32.29" width="4.06" height="1.45" transform="translate(41.82 -16.95) rotate(53.49)"/><circle class="cls-3" cx="33.25" cy="26.53" r="3.81"/><rect class="cls-1" x="52.29" y="32.61" width="4.06" height="1.45" transform="translate(86.64 -21.6) rotate(88.93)"/><rect class="cls-1" x="52.25" y="26.96" width="4.06" height="1.45" transform="translate(80.94 -27.1) rotate(88.93)"/><circle class="cls-3" cx="54.38" cy="19.81" r="3.81"/><rect class="cls-1" x="65.53" y="36.23" width="4.06" height="1.45" transform="translate(137.28 4.25) rotate(126.19)"/><rect class="cls-1" x="68.92" y="31.71" width="4.06" height="1.45" transform="translate(139.01 -5.68) rotate(126.19)"/><circle class="cls-3" cx="75.8" cy="26.22" r="3.81"/><rect class="cls-1" x="73.49" y="47.74" width="4.06" height="1.45" transform="translate(161.25 74.95) rotate(164.48)"/><rect class="cls-1" x="78.95" y="46.29" width="4.06" height="1.45" transform="translate(171.58 70.64) rotate(164.48)"/><circle class="cls-3" cx="88.63" cy="45.15" r="3.81"/><rect class="cls-1" x="73.79" y="61.54" width="4.06" height="1.45" transform="translate(132.14 142.59) rotate(-164.44)"/><rect class="cls-1" x="79.21" y="63.12" width="4.06" height="1.45" transform="translate(142.38 147.14) rotate(-164.44)"/><circle class="cls-3" cx="88.76" cy="66.2" r="3.81"/><rect class="cls-1" x="65.56" y="72.5" width="4.06" height="1.45" transform="translate(54.67 172.03) rotate(-129.85)"/><rect class="cls-1" x="69.13" y="76.88" width="4.06" height="1.45" transform="translate(57.17 181.96) rotate(-129.85)"/><circle class="cls-3" cx="76.01" cy="83.81" r="3.81"/><rect class="cls-1" x="52.31" y="76.53" width="4.06" height="1.45" transform="translate(-20.89 134.36) rotate(-92.08)"/><rect class="cls-1" x="52.46" y="82.18" width="4.06" height="1.45" transform="translate(-26.39 140.36) rotate(-92.08)"/><circle class="cls-3" cx="54.52" cy="90.78" r="3.81"/><rect class="cls-1" x="38.88" y="72.79" width="4.06" height="1.45" transform="translate(-42.23 60.63) rotate(-52.09)"/><rect class="cls-1" x="35.36" y="77.21" width="4.06" height="1.45" transform="translate(-47.07 59.56) rotate(-52.09)"/><circle class="cls-3" cx="32.35" cy="84" r="3.81"/><rect class="cls-1" x="30.41" y="61.08" width="4.06" height="1.45" transform="translate(-20.21 15.98) rotate(-21.27)"/><rect class="cls-1" x="25.12" y="63.07" width="4.06" height="1.45" transform="translate(-21.29 14.2) rotate(-21.27)"/><circle class="cls-3" cx="19.72" cy="66.42" r="3.81"/><rect class="cls-1" x="31.37" y="47.11" width="4.06" height="1.45" transform="translate(17.25 -8.23) rotate(18.85)"/><rect class="cls-1" x="26.04" y="45.23" width="4.06" height="1.45" transform="translate(16.35 -6.61) rotate(18.85)"/><circle class="cls-3" cx="20.7" cy="43.17" r="3.81"/></svg>