<?xml version="1.0" encoding="UTF-8"?><svg id="Layer_1" xmlns="http://www.w3.org/2000/svg" viewBox="0 0 114.5 110"><defs><style>.cls-1{fill:#f3f4f4;}.cls-2{fill:#254741;}</style></defs><circle class="cls-1" cx="57.5" cy="55" r="54"/><circle class="cls-2" cx="57" cy="54.5" r="27.5"/><g><g><g><path class="cls-1" d="M50.98,83.56c.02-3.06,.02-7.06,1.35-9.34-1.36,.4-2.91,.27-4.33,.28-.97,0-2.23-.41-3-1-2.3-1.77-1.73-1.57-2.49-2.95s-1.51-3.05-3.51-4.05c1.88,.85,4.33,4.78,6,6s3,1,4.76,.8c.66-.08,1.3-.36,1.79-.81,.35-.33,.61-.75,.86-1.17l2.26-3.75c-4.59,.53-9.39-1.99-11.55-6.09s-1.54-9.48,1.5-12.97c.13-.15,.28-.31,.33-.51,.07-.28-.05-.56-.16-.82-.7-1.77-.73-3.8-.07-5.58,1.97,.43,3.86,1.24,5.52,2.39,.21,.15,.43,.3,.68,.36,.24,.06,.48,.02,.72-.01,2.64-.36,5.33-.42,7.99-.16-.39,.86-1.25,1.49-2.19,1.6s-1.92-.29-2.52-1.02c1.06-.58,2.3-.81,3.49-.65-1.27,.06-2.54,.07-3.8,0,2.39-.6,5.95-.3,8.96,.09,.33,.04,.66,.08,.98,0,.54-.12,.96-.52,1.4-.85,1.36-1.04,3.05-1.56,4.69-2.06,.26-.08,.56-.15,.78,.01,.18,.14,.23,.39,.25,.62,.17,1.53,.17,3.08,0,4.61-.03,.3-.07,.61,.02,.9,.08,.25,.26,.46,.42,.66,3.31,4.17,4.38,9.71,1.89,14.41-.33,.62-1,1-2,2-.46,.46-1.39,1.1-1.98,1.38-2.58,1.25-5.36,2.12-8.2,2.54,.72,.11,1.29,.72,1.56,1.4s.3,1.43,.32,2.15l.23,7.26c.03,.87,.06,1.76,.41,2.55s1.11,1.47,1.97,1.46l-15.26,.64c1.43-1.13,2.52-2.69,3.08-4.43,.4-1.24,.53-2.55,.66-3.85l.35-3.5c.06,.55-.37,1.12-.92,1.2l2.23-4.11c.32-.59,.67-1.21,1.25-1.53s1.47-.2,1.72,.43c.09,.23,.08,.49,.15,.73,.15,.52,.61,.87,.94,1.29,.61,.8,.74,1.85,.84,2.85l.88,8.52c.02,.15,.03,.32-.08,.43-.1,.11-.25,.12-.4,.13-1.96,.09-3.93,.05-5.89-.12-.37-.03-.77-.08-1.04-.34-.33-.32-.35-.84-.32-1.3,.18-3.65,1.13-7.26,2.77-10.53,2.46,2.5,2.59,6.41,2.57,9.91,0,.64-.05,1.37-.56,1.75-.68,.52-1.74-.03-2.07-.82s-.14-1.69,.01-2.54c.41-2.19,.64-4.42,.69-6.65,.05-2.44-.33-5.26-2.4-6.55-.34,.46-1.04,.43-1.6,.33-1.9-.34-3.77-.9-5.54-1.68-.63-.28-1.27-.59-1.77-1.07-.74-.72-1.11-1.74-1.36-2.74-.64-2.59-.62-5.33,.05-7.91-.69,1.78-.98,3.72-.84,5.63-.4-2.29,.89-4.48,1.85-6.59s1.56-4.82,.05-6.58c1.58-.31,2.95,1.07,4.51,1.47,1.52,.39,3.37-.12,4.53,.94-3.18-.17-6.29-1.36-8.76-3.37,.97,1.04,1.99,2.11,3.3,2.64,1.28,.52,2.71,.48,4.09,.63,.97,.1,1.94,.3,2.91,.24,.93-.06,1.83-.36,2.74-.57,1.58-.35,3.23-.41,4.83-.16,.53,.08,1.08,.2,1.61,.07,1.42-.34,2.05-2.26,3.49-2.5l-.73,2.96c-.08,.31-.15,.63-.06,.94,.08,.28,.3,.5,.49,.72,2.13,2.35,2.96,5.62,3.08,8.79,.03,.92,.01,1.85-.29,2.72-.36,1.03-1.08,1.9-1.86,2.65-2.52,2.42-5.97,4-9.46,3.77-1.33-.09-2.62-.43-3.93-.69-1.69-.34-3.42-.54-5.04-1.12s-3.17-1.6-3.95-3.14c-.62-1.22-.69-2.63-.66-4,.05-2.11,.33-4.21,.82-6.26,.39-1.62,1.05-3.35,2.51-4.15,.47,1.42-.07,2.95-.48,4.38-1.07,3.67-1.39,7.56-.94,11.36,1.24-3.95,2.39-7.92,3.45-11.92,.26-.98,.51-2.05,.13-2.99-.57,5.43-.78,10.9-.63,16.36,.24-2.99,.73-5.96,1.48-8.86,.61-2.39,1.41-4.81,1.14-7.26l-.17,16.69,2.27-16.79,.41,4.71"/><path class="cls-1" d="M52.48,83.56c.02-2.76-.22-6.07,1.15-8.58,.63-1.15-.41-2.53-1.69-2.2-2.5,.64-6.26,.41-7.59-1.88s-2.17-4.38-4.58-5.69l-1.51,2.59c1.42,.72,2.45,2.24,3.45,3.42,1.19,1.41,2.39,2.81,4.2,3.43s4.35,.45,5.93-.51c.9-.55,1.47-1.38,2-2.27,.71-1.18,1.42-2.36,2.13-3.54,.55-.91-.14-2.37-1.3-2.26-5.3,.52-10.45-3.03-11.24-8.43-.36-2.49,.22-5.12,1.6-7.21,.85-1.3,1.71-1.98,1.2-3.65s-.64-3.09-.07-4.78l-1.85,1.05c1.29,.3,2.52,.71,3.69,1.34,1.06,.57,2.01,1.5,3.28,1.49s2.59-.29,3.88-.34c1.49-.05,2.98,0,4.47,.14l-1.3-2.26c-.55,1.01-1.58,1.11-2.35,.28l-.3,2.36c.89-.45,1.75-.54,2.74-.45v-3c-1.27,.06-2.53,.06-3.8,0l.4,2.95c2.89-.67,5.83-.04,8.73,.16,1.41,.09,2.22-.57,3.32-1.32,.6-.41,1.26-.73,1.94-.99,.4-.15,1.7-.78,2.03-.66l-.9-.69c.33,.5,.18,1.58,.18,2.17,0,.85-.14,1.69-.15,2.53-.03,1.57,1.06,2.5,1.82,3.76,1.39,2.29,2.14,4.98,1.83,7.67-.13,1.14-.44,2.65-1.12,3.61-.61,.84-1.68,1.7-2.54,2.28-2.49,1.68-5.8,2.45-8.72,2.91-1.52,.24-1.33,2.53,0,2.89,1.19,.33,.81,3.1,.84,4.04,.05,1.69,.11,3.39,.16,5.08,.09,2.64,.81,5.48,3.9,5.74v-3l-15.26,.64,1.06,2.56c3.97-3.27,4.06-8.12,4.54-12.84h-3l.18-.25,1.69,2.2,1.34-2.47c.39-.71,.95-1.47,1.23-2.23l.17-.23c.21-.15,.15-.25-.19-.29-.08,.2,.18,.67,.26,.84,.3,.62,.88,1.04,1.17,1.65,.67,1.4,.54,3.42,.7,4.94l.29,2.84c.06,.57,.43,1.89,.22,2.4l.69-.9,.36-.08c-.25,.01-.49,.02-.74,.03-.41,.01-.82,.02-1.23,.02-.74,0-1.47-.02-2.21-.05-.4-.02-.83-.09-1.23-.08-.29,.01-.59-.19-.36,.17-.21-.34,.1-1.69,.15-2.1,.34-2.78,1.18-5.51,2.42-8.02l-2.36,.3c1.55,1.67,1.96,3.97,2.08,6.18,.03,.58,.04,1.15,.05,1.73,0,.09-.11,1.46-.04,1.52,.45,.35,.24-.64,.24-.68-.03-.36,.07-.75,.13-1.1,.12-.7,.24-1.39,.33-2.09,.58-4.19,1.32-10.05-2.73-12.81-.57-.39-1.35-.19-1.82,.23,.22-.05,.22-.07,.01-.06-.13,0-.25,0-.37-.04-.37-.05-.73-.14-1.09-.23-.72-.17-1.44-.37-2.15-.61-1.19-.4-2.82-.83-3.54-1.93s-.91-2.73-.99-4.01c-.11-1.6,.05-3.17,.43-4.73,.47-1.9-2.24-2.59-2.89-.8-.71,1.94-1.01,3.97-.89,6.02h3c-.36-2.78,1.54-5.05,2.35-7.59,.74-2.33,.65-4.67-.88-6.64l-1.06,2.56c1.41-.17,2.62,.97,3.93,1.36,.66,.2,1.36,.25,2.04,.28,.6,.03,1.49-.07,2,.32l1.06-2.56c-2.79-.18-5.5-1.19-7.7-2.93-1.48-1.17-3.48,.68-2.12,2.12,1.51,1.61,3.12,3.02,5.36,3.4,1.18,.2,2.39,.23,3.58,.37,1.37,.16,2.61,.24,3.98-.06,1.21-.26,2.35-.6,3.6-.64s2.42,.31,3.63,.27c.94-.04,1.75-.44,2.45-1.04,.57-.5,1.06-1.38,1.83-1.57l-1.85-1.85c-.37,1.5-1.33,3.55-.64,5.06,.28,.63,.83,1.09,1.23,1.64,.54,.74,.97,1.57,1.28,2.43,.59,1.64,.86,3.4,.87,5.14,0,2.07-1.07,3.41-2.63,4.66-2.96,2.36-6.3,2.89-9.93,2.12-3.04-.64-8.3-.73-9.39-4.39-.61-2.03-.22-4.55,.13-6.61,.3-1.71,.59-4.16,2.22-5.15l-2.2-.9c.34,1.3-.2,2.56-.55,3.8s-.62,2.53-.8,3.81c-.37,2.57-.41,5.14-.13,7.72,.18,1.62,2.41,2.11,2.95,.4,.83-2.66,1.63-5.32,2.38-8,.66-2.36,1.96-5.25,1.2-7.7-.53-1.69-2.78-1.24-2.95,.4-.56,5.44-.77,10.9-.63,16.36,.05,1.95,2.84,1.9,3,0,.23-2.78,.69-5.53,1.37-8.23s1.47-5.17,1.25-7.88c-.16-1.9-2.98-1.96-3,0l-.17,16.69c-.02,1.64,2.71,2.11,2.95,.4l2.27-16.79-2.95-.4,.41,4.71c.17,1.91,3.17,1.93,3,0l-.41-4.71c-.13-1.54-2.7-2.2-2.95-.4l-2.27,16.79,2.95,.4,.17-16.69h-3c.23,2.76-.75,5.35-1.37,8.01s-1.02,5.38-1.25,8.11h3c-.14-5.46,.07-10.92,.63-16.36l-2.95,.4c.36,1.16-.19,2.44-.5,3.57s-.63,2.3-.96,3.45c-.68,2.37-1.39,4.73-2.12,7.09l2.95,.4c-.31-2.76-.27-5.55,.24-8.28s1.82-5.19,1.13-7.85c-.24-.93-1.38-1.4-2.2-.9-1.72,1.05-2.6,2.8-3.11,4.69-.64,2.39-.97,4.94-.97,7.41,0,2.15,.44,4.23,1.94,5.84s3.54,2.38,5.58,2.84c4.47,1.02,9.02,2.14,13.41,.26,1.96-.84,3.81-2.11,5.24-3.7,1.63-1.81,2.13-3.85,2-6.24s-.61-4.61-1.63-6.71c-.51-1.05-1.4-1.83-1.94-2.82-.16-.29-.03,.36,0,0,.02-.31,.16-.65,.23-.96l.52-2.12c.28-1.12-.72-2.13-1.85-1.85-.83,.21-1.5,.68-2.1,1.27-.41,.41-.81,1.07-1.38,1.23-.78,.22-2.12-.26-2.97-.27-1.09-.02-2.19,.1-3.25,.32-1.2,.24-2.29,.63-3.53,.55-1.06-.07-2.12-.24-3.19-.33-.97-.08-1.91-.18-2.77-.66s-1.61-1.32-2.31-2.06l-2.12,2.12c2.87,2.27,6.17,3.57,9.82,3.81,1.22,.08,2.09-1.76,1.06-2.56-1.62-1.26-3.13-.92-5.01-1.29s-3.1-1.8-5.08-1.56c-1.36,.16-1.89,1.49-1.06,2.56,1.22,1.57,.06,4.04-.65,5.56-.98,2.07-1.99,4.2-1.69,6.55,.24,1.85,3.11,1.98,3,0-.1-1.82,.16-3.52,.79-5.23l-2.89-.8c-.55,2.26-.71,4.55-.4,6.86,.25,1.86,.7,3.88,2.08,5.25s3.56,1.99,5.36,2.52,4.1,1.31,5.67-.1l-1.82,.23c2.33,1.59,1.71,5.77,1.49,8.12-.24,2.62-2.12,7.65,1.61,8.72,1.38,.4,2.75-.31,3.23-1.66s.27-2.98,.19-4.34c-.17-3.04-.84-6.01-2.96-8.3-.62-.67-1.94-.55-2.36,.3-1.03,2.09-1.84,4.27-2.34,6.54-.25,1.13-.42,2.28-.54,3.43-.1,1.01-.27,2.17,.24,3.1,1.07,1.98,4.59,1.53,6.45,1.53,.95,0,2.28,.18,3.12-.38,.96-.64,.82-1.67,.72-2.68-.26-2.52-.5-5.05-.79-7.57-.11-1.01-.21-2.04-.67-2.97-.22-.44-.5-.82-.82-1.19-.35-.41-.32-.61-.49-1.11-.67-1.9-3.1-2.14-4.5-.9-.75,.67-1.19,1.6-1.66,2.47l-1.79,3.29c-.59,1.09,.4,2.63,1.69,2.2s1.95-1.33,2.03-2.65c.11-1.95-2.81-1.89-3,0-.4,3.95-.35,7.99-3.66,10.72-1.01,.83-.18,2.61,1.06,2.56l15.26-.64c1.95-.08,1.91-2.84,0-3-1.14-.1-.9-2.75-.92-3.47l-.15-4.6c-.08-2.57,.01-5.86-3.03-6.69v2.89c3.94-.63,8.18-1.86,11.16-4.62,1.28-1.19,2.1-2.13,2.72-3.82s.88-3.7,.72-5.57-.68-3.72-1.5-5.46c-.4-.85-.88-1.66-1.43-2.43-.2-.28-.63-.67-.75-.98-.15-.41,.09-1.17,.12-1.63,.09-1.63,.46-4.79-1.45-5.52-1.49-.57-3.84,.66-5.17,1.31-.83,.41-1.71,1.42-2.59,1.57-.96,.16-2.28-.26-3.26-.34-2.2-.18-4.43-.23-6.59,.27-1.7,.39-1.24,2.88,.4,2.95,1.27,.05,2.53,.05,3.8,0,1.95-.09,1.9-2.82,0-3-1.51-.14-2.9,.19-4.25,.86-.9,.45-.92,1.69-.3,2.36,2.06,2.24,5.61,1.78,7.06-.88,.58-1.06-.17-2.16-1.3-2.26-1.33-.12-2.66-.18-4-.15s-2.68,.32-3.99,.31c-.94,0-2.01-1.01-2.9-1.43-1.17-.54-2.37-.96-3.63-1.25-.82-.19-1.58,.25-1.85,1.05-.6,1.79-.7,3.72-.2,5.55,.03,.12,.41,1.25,.49,.71-.02,.16-.6,.74-.69,.87-.43,.58-.82,1.2-1.13,1.86-1.37,2.83-1.75,6.08-1.01,9.15,1.47,6.14,7.72,10.35,13.95,9.74l-1.3-2.26-1.76,2.92c-.4,.66-.75,1.56-1.47,1.92-1.37,.7-3.43,.37-4.54-.6-2.06-1.79-3.33-4.58-5.84-5.84-1.71-.87-3.22,1.67-1.51,2.59,2.39,1.29,2.55,3.95,4.36,5.67,1.22,1.16,2.64,2.13,4.32,2.43,1.83,.32,4.01,.23,5.81-.23l-1.69-2.2c-1.65,3.02-1.53,6.75-1.56,10.09-.02,1.93,2.98,1.93,3,0h0Z"/></g><g><path class="cls-1" d="M59.57,47.23c-.7,5.88-1.2,11.78-1.52,17.7l.08-9.74c-2.56,3.42-2.99,8.3-1.07,12.11,2.2-2.71,3.41-6.11,3.97-9.55,.57-3.44,.54-6.95,.5-10.44-.02,3.26-.04,6.52-.05,9.79-.01,2.43,.02,5,1.3,7.06-.55,.41-1.23,.64-1.91,.65-.55-.52-.45-1.45-.06-2.1s1-1.14,1.44-1.76c.69-.98,.9-2.22,1.06-3.42,.47-3.61,.6-7.25,.41-10.88,.51,4.8,.45,9.67-.19,14.45-.16,1.2-.3,2.58,.53,3.45,2.57-4.93,1.16-10.9,1.66-16.44,1.66,1.99,1.54,4.91,.91,7.42s-1.71,4.96-1.68,7.55c.8,.17,1.63-.37,2.04-1.09s.5-1.56,.59-2.38c.22-2.16,.44-4.35,.1-6.49-.29-1.83-.99-3.69-.55-5.5,.03-.13,.08-.28,.2-.35,.16-.08,.35,0,.5,.11,2.24,1.46,3.46,4.21,3.45,6.88s-1.13,5.26-2.73,7.41c.6-3.6,1.2-7.31,.32-10.85,1.53,3.76,1.17,8.24-.94,11.7"/><path class="cls-1" d="M58.07,47.23c-.69,5.88-1.2,11.78-1.52,17.7h3l.08-9.74c.01-1.6-1.97-1.89-2.8-.76-2.87,3.95-3.18,9.27-1.07,13.62,.39,.81,1.78,1.03,2.36,.3,4.78-6.02,4.99-13.7,4.92-21.05-.02-1.93-2.99-1.93-3,0-.02,3.19-.04,6.39-.05,9.58-.01,2.76,.07,5.58,1.5,8.02l.54-2.05c-.37,.25-.7,.41-1.16,.45l1.06,.44c-.05-.06,1.82-2.33,2.02-2.75,.64-1.34,.79-2.81,.96-4.27,.39-3.35,.48-6.72,.31-10.08h-3c.35,3.4,.44,6.83,.22,10.25-.1,1.61-.33,3.21-.48,4.82-.14,1.47,.1,2.75,1.04,3.9,.59,.73,1.95,.5,2.36-.3,2.71-5.41,1.38-11.41,1.86-17.2l-2.56,1.06c1.32,1.69,.97,4.22,.47,6.14-.67,2.59-1.66,5.06-1.69,7.77,0,.87,.7,1.41,1.5,1.5,3.85,.41,4.12-4.43,4.32-7.07,.12-1.67,.1-3.32-.18-4.97-.14-.8-.35-1.59-.49-2.39-.06-.36-.11-.71-.12-1.07,0-.24,0-.49,.02-.73,.12-.43,.08-.44-.12-.01l-1.06,.44c-.3-.14-.34-.14-.13-.01,.11,.07,.21,.15,.3,.23,.2,.16,.38,.35,.55,.53,.37,.4,.66,.84,.91,1.32,.5,.95,.78,2.04,.81,3.11,.09,2.57-1.04,4.93-2.52,6.96l2.74,1.16c.64-3.87,1.22-7.77,.32-11.65l-2.89,.8c1.36,3.48,1.12,7.32-.79,10.55-.98,1.67,1.61,3.18,2.59,1.51,2.28-3.86,2.73-8.67,1.09-12.86-.69-1.77-3.34-1.12-2.89,.8,.77,3.33,.23,6.74-.32,10.06-.28,1.7,1.72,2.56,2.74,1.16,1.84-2.51,3.12-5.62,2.91-8.78-.18-2.83-1.5-5.77-3.92-7.39-1.42-.95-2.9-.36-3.23,1.32s.15,3.49,.49,5.2,.29,3.27,.16,4.92c-.07,.89,.07,4.02-1.3,3.88l1.5,1.5c.03-2.96,1.46-5.65,1.91-8.54,.42-2.7,.14-5.29-1.58-7.49-.88-1.13-2.47-.08-2.56,1.06-.43,5.14,.95,10.89-1.45,15.68l2.36-.3c-.58-.71-.08-2.39,.01-3.19,.18-1.53,.31-3.07,.37-4.61,.13-3.02,.02-6.04-.29-9.04-.19-1.88-3.1-1.96-3,0,.11,2.22,.11,4.44-.02,6.66-.11,1.96-.08,4.36-.86,6.2-.34,.79-1.02,1.34-1.53,2.02-.55,.74-.88,1.62-.81,2.56,.07,.87,.57,1.9,1.47,2.17,.97,.29,2.27-.28,3.07-.8,.68-.45,.97-1.32,.54-2.05-1.29-2.2-1.1-4.86-1.09-7.33,.01-2.92,.03-5.85,.05-8.77h-3c.06,6.4,.16,13.64-4.04,18.93l2.36,.3c-1.67-3.44-1.15-7.54,1.07-10.6l-2.8-.76-.08,9.74c-.02,1.94,2.9,1.92,3,0,.32-5.91,.82-11.81,1.52-17.7,.1-.81-.76-1.49-1.5-1.5-.89,0-1.41,.7-1.5,1.5h0Z"/></g></g><path class="cls-1" d="M50.79,75.75l.08,2.47c.01,.39,.16,.78,.44,1.06,.26,.26,.69,.46,1.06,.44s.79-.14,1.06-.44,.45-.66,.44-1.06l-.08-2.47c-.01-.39-.16-.78-.44-1.06-.26-.26-.69-.46-1.06-.44s-.79,.14-1.06,.44-.45,.66-.44,1.06h0Z"/></g></svg>