<?xml version="1.0" encoding="UTF-8"?><svg id="Layer_1" xmlns="http://www.w3.org/2000/svg" viewBox="0 0 109.5 109"><defs><style>.cls-1{fill:#f3f4f4;}.cls-2{fill:#e48b68;}</style></defs><polygon class="cls-2" points="12.06 8 97.06 8 89.06 94 55.06 104 20.06 94 12.06 8"/><g><polygon class="cls-1" points="80.06 37 29.06 37 28.06 26 81.06 26 80.06 37"/><polygon class="cls-1" points="41.06 59 31.06 59 29.06 36 41.06 36 41.06 59"/><polygon class="cls-1" points="78.06 59 41.06 59 41.06 48 79.06 48 78.06 59"/><polygon class="cls-1" points="76.06 80 66.06 73 67.06 58 78.06 58 76.06 80"/><polygon class="cls-1" points="76.06 80 55.06 86 54.98 75.46 70.33 70.94 76.06 80"/><polygon class="cls-1" points="55.06 86 34.06 80 42.45 72.24 56.96 76.05 55.06 86"/><polygon class="cls-1" points="43.06 73 34.06 80 31.06 64 42.06 64 43.06 73"/></g></svg>