<?xml version="1.0" encoding="UTF-8"?><svg id="Layer_1" xmlns="http://www.w3.org/2000/svg" viewBox="0 0 109.5 109"><defs><style>.cls-1{fill:#f3f4f4;}.cls-2{fill:#e48b68;}</style></defs><rect class="cls-2" x="8.06" y="8" width="95" height="95" rx="15" ry="15"/><g><path class="cls-1" d="M51.84,34.33l12.43,39.96h-7.47l-3.02-10.15h-14.37l-3.02,10.15h-7.18l12.37-39.96h10.26Zm-10.66,23.83h10.83l-2.51-8.55c-1.08-3.88-2.28-7.87-2.74-10.38h-.23c-.51,2.39-1.71,6.67-2.74,10.21l-2.62,8.72Z"/><path class="cls-1" d="M72.87,29.49c2.57,0,4.39,1.88,4.39,4.45,0,2.34-1.82,4.16-4.39,4.16-2.34,0-4.22-1.82-4.22-4.16,0-2.57,1.88-4.45,4.22-4.45Zm-3.31,13.05h7.01v31.75h-7.01v-31.75Z"/></g></svg>