<?xml version="1.0" encoding="UTF-8"?><svg id="Layer_1" xmlns="http://www.w3.org/2000/svg" viewBox="0 0 109.5 109"><defs><style>.cls-1{fill:#f3f4f4;}.cls-2{fill:#e48b68;}</style></defs><rect class="cls-2" x="9.06" y="8" width="95" height="95" rx="15" ry="15"/><g><path class="cls-1" d="M46.85,87.85c1.31,.86,3.36,1.6,5.42,1.6,2.91,0,3.93-1.25,3.93-4.05v-30.38h7.13v30.84c0,5.59-3.25,9.86-11,9.86-4.22,0-6.84-1.03-7.7-1.54l2.22-6.33Z"/><path class="cls-1" d="M90.34,84.49c0-7.35-18.64-6.04-18.64-18.64,0-6.44,5.59-11.4,13.45-11.4,5.82,0,9.75,2.45,11.4,4.22l-4.39,5.36c-1.37-1.37-3.71-3.36-7.58-3.36-3.59,0-5.59,2-5.59,4.62,0,7.52,18.58,6.16,18.58,18.75,0,5.99-4.9,11.52-14.42,11.52-7.07,0-11.63-2.96-13.34-4.67l4.11-5.87c1.88,1.77,5.24,4.45,10.09,4.45,4.22,0,6.33-2.22,6.33-4.96Z"/></g></svg>