<?xml version="1.0" encoding="UTF-8"?><svg id="Layer_1" xmlns="http://www.w3.org/2000/svg" viewBox="0 0 113.5 109"><defs><style>.cls-1{fill:#f3f4f4;}.cls-2{fill:#254741;}</style></defs><circle class="cls-1" cx="56" cy="54" r="54"/><g><path class="cls-2" d="M36.3,36.94c0-1.31,.46-2.43,1.39-3.36,.93-.93,2.05-1.39,3.36-1.39s2.43,.46,3.36,1.39,1.39,2.05,1.39,3.36-.46,2.43-1.39,3.36-2.05,1.39-3.36,1.39-2.43-.46-3.36-1.39c-.93-.93-1.39-2.05-1.39-3.36Zm.66,8.36h8.2v26.57h-8.2v-26.57Z"/><path class="cls-2" d="M51.06,45.31h7.87v3.61h.11c.25-.51,.62-1.02,1.09-1.53,.47-.51,1.04-.96,1.69-1.37,.66-.4,1.4-.73,2.24-.98,.84-.25,1.75-.38,2.73-.38,2.08,0,3.75,.32,5.03,.96,1.28,.64,2.27,1.52,2.98,2.65s1.19,2.46,1.45,3.99c.25,1.53,.38,3.19,.38,4.97v14.65h-8.2v-13.01c0-.76-.03-1.56-.08-2.38s-.22-1.58-.49-2.27c-.27-.69-.69-1.26-1.26-1.7-.57-.44-1.38-.66-2.43-.66s-1.91,.19-2.57,.57c-.66,.38-1.16,.89-1.5,1.53-.35,.64-.57,1.36-.68,2.16-.11,.8-.16,1.64-.16,2.51v13.23h-8.2v-26.57Z"/></g></svg>