<?xml version="1.0" encoding="UTF-8"?><svg id="Layer_1" xmlns="http://www.w3.org/2000/svg" viewBox="0 0 109.5 109"><defs><style>.cls-1{fill:#f3f4f4;}.cls-2{fill:#e48b68;}</style></defs><rect class="cls-2" x="8.06" y="7" width="95" height="95" rx="15" ry="15"/><g><path class="cls-1" d="M57.75,45.42c0,7.7-4.22,13.45-14.94,13.45h-4.39v14.82h-7.13V33.74h12.83c8.09,0,13.62,3.19,13.62,11.69Zm-19.33-5.59v13.11h4.1c6.1,0,7.81-2.68,7.81-6.56,0-4.62-2.39-6.56-7.47-6.56h-4.45Z"/><path class="cls-1" d="M61,50.84c0-4.96,4.22-9.46,11.46-9.46,5.02,0,8.61,1.77,10.66,4.05l-4.5,4.56c-1.31-1.42-3.59-2.85-6.33-2.85s-4.33,1.43-4.33,3.31c0,5.64,15.39,3.53,15.39,14.19,0,4.28-3.48,9.63-12.09,9.63-6.38,0-10.49-2.62-12.31-4.5l4.22-4.96c1.6,1.77,4.67,3.76,8.44,3.76,3.31,0,4.73-1.6,4.73-3.53,0-5.59-15.33-3.53-15.33-14.19Z"/></g></svg>