<?xml version="1.0" encoding="UTF-8"?><svg id="Layer_1" xmlns="http://www.w3.org/2000/svg" viewBox="0 0 396 230"><defs><style>.cls-1{fill:#f9ece9;}.cls-2{fill:#f28320;}.cls-3{fill:#93b6a1;}.cls-4{stroke-width:2px;}.cls-4,.cls-5,.cls-6,.cls-7{fill:none;stroke-miterlimit:10;}.cls-4,.cls-6{stroke:#f28320;}.cls-5,.cls-7{stroke:#f1a872;}.cls-8{fill:#eedcd9;opacity:.8;}.cls-7{stroke-width:.5px;}</style></defs><rect class="cls-1" x="-2" y="-1.53" width="399" height="232"/><path id="Path_17" class="cls-3" d="M380.89,101.88c-1.26,1.2-14.46-4.01-27.87-2.54-21.95,2.41-38.51,22.17-43.15,27.3-44.65,49.35-196.37,82.88-195.22,84.69,.82,1.27,73.54-18.86,144.08-57.34,35.71-19.49,56.27-35.7,54.07-49.57-.55-3.49-2.4-5.87-5.06-9.28-11.45-14.67-30.69-17.94-50.35-26.38-30.43-13.08-46.44-31.91-43.64-33.66,2.34-1.49,21.2,6.94,33.16,13.14,25.32,13.12,33.46,23.35,38.11,21.76,8.56-2.93-12.72-39.71-7.32-41.44,4.12-1.33,29.01,16.08,23.82,37.85-1.81,7.58-6.83,14.27-2.98,15.45,4.36,1.35,17.42-5.18,25.19-12.59,6.94-6.61,8.88-14.05,10.1-14.01s-2.82,8.1,2.97,10.33c.26,.1,2.98,1.12,5.77,.35,5.63-1.57,3.68-8.22,10.56-11.36,3.07-1.4,8.11-2.21,10.09-1.1,6.08,3.41-20.72,22.86-14.65,27.01,5.65,3.86,35.67-8.37,37.78-6,1.74,1.96-19.13,9.85-18.6,17.53,.42,6.13,14.21,8.89,13.17,9.88"/><circle class="cls-8" cx="199" cy="113.47" r="103"/><path class="cls-2" d="M223.41,85.67h-39.51l4.86,6.52c2.6,.12,6.19,.41,10.77,.88,4.58,.44,8.02,0,10.37-.53,2.27-.51,5.01-1.4,5.53-.76,.25,.31-.09,.86-.43,1.27l-7.74,8.7-7.74,8.69-7.74-8.69-7.74-8.69-.38-.36s-.01-.07,0-.11c.09-.35,1.34-.5,3.73-.45l-4.84-6.46h-8.74l12.39,13.92,11.12,12.48v42.63h2.35c.07-14.2,.13-28.41,.2-42.61l11.13-12.5,12.39-13.93Z"/><path class="cls-6" d="M193.84,99.83l-2.16-1.87-13.63-18.24c-.38-.74-.76-1.48-1.14-2.23l2.1,1.74c4.54,6.08,9.09,12.16,13.63,18.24l1.2,2.36Z"/><path class="cls-2" d="M127.63,129.94c-.34-.18-.67-.38-.98-.62-.24-.15-.4-.41-.42-.69,0-.47,.22-.71,.66-.71,.36,.03,.71,.19,.97,.44,.37,.3,.77,.56,1.2,.76,.46,.23,.94,.42,1.44,.57,.96,.31,1.95,.47,2.96,.48,.7,.02,1.4-.04,2.1-.16,.43-.09,.85-.24,1.24-.44,.71-.4,1.07-.91,1.07-1.54,0-.58-.31-1.16-.92-1.75-.69-.64-1.43-1.24-2.2-1.78l-2.77-1.97c-2.77-1.94-4.4-3.72-4.9-5.33-.18-.61-.26-1.24-.25-1.87,0-.71,.18-1.41,.51-2.04,.36-.7,.88-1.3,1.52-1.76,1.43-1.09,3.39-1.63,5.86-1.63,1.15-.02,2.3,.16,3.4,.51,.72,.21,1.41,.51,2.06,.9,.36,.25,.55,.51,.55,.72,0,.45-.2,.68-.61,.68-.28-.02-.55-.13-.76-.32-.28-.22-.58-.41-.9-.57-.36-.17-.74-.32-1.12-.43-.86-.27-1.76-.4-2.67-.4-1.61,0-2.41,.48-2.41,1.44,0,.41,.16,.81,.44,1.12,.51,.6,1.52,1.46,3.03,2.57,1.26,.91,2.46,1.89,3.62,2.92,.77,.68,1.47,1.43,2.08,2.25,.72,.94,1.12,2.09,1.13,3.27,.03,1-.19,1.99-.65,2.88-.45,.81-1.08,1.5-1.84,2.04-1.66,1.2-3.72,1.8-6.18,1.8s-4.53-.45-6.23-1.34Z"/><path class="cls-2" d="M146.6,110.19h8.25v20.81h-8.25v-20.81Z"/><path class="cls-2" d="M171,124.89l1.44,.06c2.09,0,3.81-.63,5.17-1.88s2.08-2.89,2.17-4.9c.12-3.1-1.51-5.2-4.91-6.29-1.27-.41-2.93-.62-4.96-.62h-1.36v19.74h-8.26v-20.81h6.19c3.34,0,5.36,.04,6.05,.13,.69,.09,1.41,.2,2.16,.34,1.76,.39,3.36,1.27,4.63,2.55,1.19,1.22,1.83,2.86,1.76,4.56-.07,2.22-.79,4.08-2.14,5.56-1.36,1.48-3.28,2.4-5.77,2.77-.56,.08-1.12,.12-1.68,.13-.97,0-1.46-.24-1.45-.72,0-.18,.1-.34,.25-.43,.21-.12,.45-.18,.7-.17Z"/><path class="cls-2" d="M231.98,110.43c0,.45-.52,.68-1.57,.68h-3.75v19.75h-8.28v-19.75h-2.43c-.57-.02-1.15,.02-1.71,.1-.29,.06-.59,.1-.89,.12-.55,0-.83-.2-.83-.59,0-.46,.53-.69,1.6-.69h14.43c.55,.01,1.1-.02,1.65-.09,.32-.06,.65-.09,.97-.1,.54,0,.81,.19,.81,.57Z"/><path class="cls-2" d="M235.13,110.05h8.25v20.81h-8.25v-20.81Z"/><path class="cls-2" d="M259.52,124.76l1.44,.06c2.09,0,3.82-.63,5.17-1.88s2.08-2.89,2.17-4.91c.12-3.1-1.52-5.19-4.92-6.28-1.27-.41-2.93-.62-4.97-.62h-1.36v19.74h-8.25v-20.81h6.19c3.34,0,5.36,.04,6.05,.13,.69,.09,1.41,.2,2.16,.34,1.76,.39,3.36,1.27,4.63,2.55,1.19,1.21,1.83,2.86,1.76,4.56-.07,2.23-.78,4.08-2.15,5.56-1.37,1.48-3.29,2.4-5.75,2.77-.56,.08-1.12,.12-1.68,.13-.97,0-1.46-.24-1.45-.72,0-.18,.1-.34,.25-.43,.21-.12,.45-.18,.69-.17Z"/><path class="cls-7" d="M129.01,129.46c-.34-.17-.67-.38-.98-.62-.24-.15-.39-.41-.41-.69,0-.47,.22-.71,.66-.71,.36,.03,.71,.19,.97,.44,.37,.3,.77,.55,1.2,.76,.46,.23,.95,.42,1.44,.57,1.63,.51,3.37,.62,5.06,.32,.43-.08,.85-.23,1.24-.43,.71-.4,1.07-.92,1.07-1.55,0-.58-.31-1.16-.92-1.75-.7-.64-1.43-1.23-2.2-1.78l-2.77-1.99c-2.77-1.94-4.41-3.72-4.9-5.33-.18-.61-.26-1.24-.25-1.87,0-.71,.18-1.41,.51-2.04,.36-.69,.88-1.29,1.51-1.75,1.43-1.09,3.39-1.63,5.86-1.63,1.15-.02,2.3,.16,3.39,.51,.72,.21,1.41,.51,2.06,.9,.37,.25,.55,.51,.55,.72,0,.45-.2,.68-.61,.68-.28-.02-.55-.13-.76-.32-.28-.22-.58-.41-.9-.57-.36-.18-.74-.32-1.13-.44-.86-.26-1.76-.4-2.67-.4-1.6,0-2.4,.48-2.4,1.44,0,.41,.16,.8,.43,1.11,.52,.6,1.53,1.46,3.03,2.57,1.26,.91,2.47,1.89,3.62,2.92,.77,.68,1.47,1.43,2.08,2.26,.72,.94,1.12,2.09,1.13,3.27,.03,1-.19,1.99-.65,2.88-.45,.81-1.08,1.5-1.84,2.04-1.66,1.2-3.72,1.8-6.18,1.8s-4.54-.45-6.23-1.34Z"/><path class="cls-7" d="M147.99,109.71h8.25v20.81h-8.25v-20.81Z"/><path class="cls-7" d="M172.38,124.42l1.44,.06c2.09,0,3.82-.63,5.18-1.88s2.08-2.89,2.17-4.91c.12-3.1-1.52-5.19-4.92-6.28-1.27-.41-2.93-.62-4.97-.62h-1.36v19.74h-8.25v-20.81h6.2c3.34,0,5.36,.04,6.05,.13s1.41,.2,2.16,.34c1.76,.38,3.37,1.27,4.63,2.55,1.19,1.21,1.82,2.86,1.76,4.56-.06,2.23-.78,4.08-2.15,5.56-1.37,1.48-3.29,2.4-5.76,2.77-.56,.08-1.12,.12-1.68,.13-.97,0-1.46-.24-1.46-.72,0-.18,.1-.34,.25-.43,.21-.12,.46-.18,.7-.17Z"/><path class="cls-7" d="M233.36,109.96c0,.45-.52,.68-1.57,.68h-3.75v19.75h-8.28v-19.75h-2.43c-.57-.02-1.15,.02-1.71,.1-.29,.06-.59,.1-.89,.12-.55,0-.83-.2-.83-.59,0-.46,.53-.69,1.6-.69h14.43c.55,.01,1.1-.02,1.65-.09,.32-.06,.64-.09,.97-.1,.54,0,.81,.19,.81,.57Z"/><path class="cls-7" d="M236.5,109.58h8.25v20.81h-8.25v-20.81Z"/><path class="cls-7" d="M260.9,124.28l1.44,.06c2.09,0,3.82-.63,5.18-1.88,1.36-1.26,2.08-2.89,2.17-4.91,.12-3.09-1.52-5.19-4.92-6.28-1.27-.41-2.93-.62-4.97-.62h-1.36v19.74h-8.25v-20.81h6.2c3.34,0,5.36,.04,6.05,.13s1.41,.2,2.16,.34c1.76,.38,3.37,1.27,4.63,2.55,1.19,1.21,1.82,2.86,1.76,4.56-.06,2.23-.78,4.08-2.15,5.56-1.37,1.48-3.29,2.4-5.76,2.76-.56,.08-1.12,.12-1.68,.13-.97,0-1.46-.24-1.46-.72,0-.18,.1-.34,.25-.43,.21-.12,.45-.19,.7-.18Z"/><path class="cls-5" d="M136.93,138.87v13.38h58.32"/><path class="cls-5" d="M201.59,152.24h58.34v-13.38"/><path class="cls-5" d="M136.93,103.52v-31.07h123.01v31.07"/><path class="cls-4" d="M133.52,103.4v-33.8l130.19-.87v34.67"/><path class="cls-4" d="M133.52,138.87v16.96h130.19v-16.96"/></svg>