<?xml version="1.0" encoding="UTF-8"?><svg id="Layer_1" xmlns="http://www.w3.org/2000/svg" viewBox="0 0 396 230"><defs><style>.cls-1{fill:#e7e490;}.cls-2{fill:#fffd99;}.cls-3{fill:#7cabd7;}.cls-4{fill:#a2035b;}.cls-5{fill:#b5d5f1;}.cls-6{fill:#8bbbee;}.cls-7{fill:#cacaca;}.cls-8{stroke:#e7e490;}.cls-8,.cls-9{fill:none;stroke-miterlimit:10;stroke-width:.75px;}.cls-9{stroke:#fffd99;}.cls-10{fill:#9ac3dc;opacity:.4;}</style></defs><rect class="cls-5" x="-4" y="-2.5" width="401" height="235.47"/><circle class="cls-10" cx="193.5" cy="114.47" r="104.5"/><g><path class="cls-8" d="M202.04,92.89c-.5,1.41-3.6-1.28-5.28-4.38s-1.8-6.16-.49-6.85,1.3,.7,2.88,3.8,3.6,5.41,2.88,7.42Z"/><polygon class="cls-7" points="230.87 136.17 164.67 136.17 162.59 132.04 232.94 132.04 230.87 136.17"/><polygon class="cls-4" points="180.18 133.07 163.62 133.07 161.55 118.58 182.25 118.58 180.18 133.07"/><path class="cls-6" d="M238.06,122.78c-3.95,12.61-13.46,12.83-33.64,7.82-25.41-6.32-43.86-3.37-45.08-19.33-1.23-15.97,36.04-33.19,42.51-13.68,5.42,16.18,39.53,14.56,36.22,25.19Z"/><path class="cls-6" d="M189.97,69.84l-25.82,7.35c-.82,.24-1.41,.95-1.5,1.8l-3.15,31.32,42.42-11.39-9.51-27.77c-.35-1-1.4-1.57-2.43-1.32Z"/><path class="cls-4" d="M161.35,120.53c10.6,6.7,23.34,7.69,35.43,9.23,6.05,.76,11.96,2.2,18.02,3.01,5.53,.76,11.69,1.21,16.99-.9,1.6-.63,.9-3.24-.72-2.59-5.41,2.11-11.55,1.51-17.1,.67-5.55-.85-10.81-2.09-16.42-2.79-11.86-1.53-24.47-2.31-34.8-9.01-1.48-.96-2.83,1.39-1.37,2.32l-.04,.07Z"/><circle class="cls-1" cx="172.94" cy="142.39" r="8.27"/><circle class="cls-2" cx="173.98" cy="143.41" r="7.24"/><circle class="cls-7" cx="173.98" cy="143.41" r="3.1"/><circle class="cls-1" cx="218.47" cy="142.39" r="8.27"/><circle class="cls-2" cx="219.5" cy="143.41" r="7.24"/><circle class="cls-7" cx="219.5" cy="143.41" r="3.1"/><path class="cls-1" d="M241,141.18l-5.73,4.59c-1.13,.89-2.76,.69-3.64-.44-.17-.21-.3-.45-.39-.7l-2.63-7.21c-.4-1.04-.08-2.21,.79-2.9l2.02-1.53c.87-.69,2.08-.75,3.01-.14l6.41,4.16c1.18,.78,1.51,2.36,.74,3.54-.16,.24-.35,.45-.57,.62Z"/><path class="cls-2" d="M239.75,141.49l-5.53,4.41c-1.06,.86-2.61,.7-3.47-.36-.17-.21-.31-.45-.4-.7l-2.54-6.94c-.37-1-.06-2.13,.77-2.79l1.8-1.5c.84-.67,2-.72,2.9-.14l6.2,4c1.16,.73,1.52,2.26,.79,3.43-.14,.22-.31,.42-.52,.59Z"/><path class="cls-3" d="M227.81,116.51c-6.4,4.79-26.52,3.82-35.08-7.62-8.56-11.44-9.5-36.04-3.19-41.01,8.38-6.58,6.07,24.47,16.54,35.19,9.24,9.48,28.11,8.65,21.73,13.44Z"/><circle class="cls-1" cx="190.52" cy="81.34" r="1.55"/><circle class="cls-1" cx="190.47" cy="88.73" r="1.55"/><circle class="cls-1" cx="192.69" cy="95.59" r="1.55"/><circle class="cls-1" cx="196.81" cy="101.81" r="1.55"/><circle class="cls-1" cx="203.03" cy="108.01" r="1.55"/><circle class="cls-1" cx="209.23" cy="112.15" r="1.55"/><circle class="cls-1" cx="217.52" cy="114.22" r="1.55"/><rect class="cls-2" x="190.87" y="80.38" width="7.21" height="1.8" rx=".52" ry=".52"/><rect class="cls-2" x="190.86" y="87.49" width="9.08" height="1.8" rx=".52" ry=".52" transform="translate(-8.32 21.37) rotate(-6.13)"/><rect class="cls-2" x="192.83" y="94" width="8.51" height="1.8" rx=".52" ry=".52" transform="translate(-16.77 48.93) rotate(-13.58)"/><rect class="cls-2" x="196.34" y="99.41" width="7.62" height="1.8" rx=".52" ry=".52" transform="translate(-23.52 90.59) rotate(-24.13)"/><rect class="cls-2" x="202.46" y="105.21" width="7.21" height="1.8" rx=".52" ry=".52" transform="translate(-25.45 117.25) rotate(-30)"/><rect class="cls-2" x="208.57" y="108.93" width="6.74" height="1.8" rx=".52" ry=".52" transform="translate(-19.03 170.14) rotate(-42.03)"/><rect class="cls-2" x="216.21" y="111.11" width="5.46" height="1.8" rx=".52" ry=".52" transform="translate(2.56 228.89) rotate(-55.47)"/><path class="cls-9" d="M203.66,90.49c-.5,1.41-3.6-1.28-5.28-4.36s-1.8-6.16-.49-6.85,1.3,.7,2.88,3.8,3.6,5.41,2.88,7.41Z"/><path class="cls-2" d="M197.68,82.02l-1.37,14.07c-.07,.58,.16,1.16,.59,1.55,.59,.52,1.33,1.1,1.17,1.06h-1.8c-.29,0-1.8-1.55-1.8-1.8l1.48-15.17c.04-.29,.31-.48,.6-.44h.02l.76,.13c.25,.08,.4,.34,.36,.59Z"/></g><g><path class="cls-2" d="M115.35,75.06l3.53-6.11c.59-1.03,.97-2.18,1.11-3.36,.13-1.16,.05-2.33-.25-3.46-.32-1.15-.86-2.23-1.59-3.17-.79-.99-1.76-1.83-2.86-2.46-1.36-.78-2.91-1.18-4.47-1.15-1.59,.01-3.15,.43-4.53,1.21-1.38,.76-2.52,1.88-3.3,3.25l-7.68,13.25,23.14,13.44-.6,1.06-24.18-14.1,8.26-14.29c.91-1.56,2.24-2.84,3.84-3.69,1.57-.88,3.34-1.36,5.15-1.38,1.78-.04,3.54,.42,5.07,1.33,1.3,.77,2.43,1.79,3.32,3,1.67,2.1,2.37,4.81,1.92,7.45-.19,1.35-.63,2.66-1.31,3.84l-3.51,5.99-1.06-.65Zm-2.09-1.27l3.57-6.05c1.2-2.02,1.2-4.54,0-6.57-.64-1.09-1.56-1.98-2.67-2.59-3.16-1.69-7.1-.63-8.99,2.42l-6.41,11.14,21.12,12.14-.61,1.06-22.28-12.75,7.03-12.23c.69-1.17,1.68-2.14,2.86-2.8,1.21-.67,2.56-1.02,3.94-1.04,1.35-.03,2.67,.31,3.84,.98,1.28,.71,2.34,1.76,3.07,3.03,.7,1.16,1.08,2.49,1.11,3.84,0,1.35-.36,2.67-1.04,3.84l-3.53,6.11-1.02-.52Zm-2.19-1.15l3.53-6.11c.57-.95,.73-2.08,.44-3.15-.34-1.17-1.17-2.15-2.27-2.69-1.98-.96-4.37-.28-5.55,1.57l-5.22,9.03,18.95,10.95-.61,1.04-19.99-11.52,5.76-10.08c1.57-2.46,4.76-3.29,7.34-1.92,1.36,.71,2.37,1.95,2.8,3.42,.39,1.38,.19,2.85-.56,4.07l-3.51,6.13-1.11-.73Zm10.98,7.43l-.6,1.06-17.9-10.33,4.61-7.99c.38-.68,1.03-1.17,1.79-1.34,.75-.22,1.55-.12,2.23,.27,1.92,1.09,2.34,2.5,1.36,4.19l-3.53,6.11-1.06-.6,3.53-6.13c.26-.38,.34-.86,.23-1.31-.21-.54-.62-.97-1.15-1.21-.4-.25-.88-.31-1.33-.17-.44,.12-.82,.41-1.04,.81l-3.9,6.93,16.75,9.72Z"/><path class="cls-2" d="M127.75,58.03c-1.61-.77-3.04-1.86-4.21-3.21-1.18-1.34-2.06-2.91-2.61-4.61-1.11-3.31-.86-6.92,.69-10.04,1.57-3.24,4.39-5.71,7.82-6.82,3.31-1.11,6.92-.86,10.04,.69,3.24,1.57,5.71,4.39,6.82,7.82,1.12,3.3,.87,6.92-.67,10.04-.77,1.61-1.86,3.04-3.21,4.21-1.34,1.18-2.91,2.06-4.61,2.61-3.31,1.11-6.92,.86-10.04-.69h-.02Zm-5.67-8.2c1.03,3.12,3.29,5.69,6.26,7.11,2.83,1.42,6.12,1.65,9.12,.63,1.55-.49,2.97-1.3,4.19-2.38,1.24-1.06,2.24-2.37,2.94-3.84,.67-1.39,1.06-2.9,1.15-4.44,.2-3.21-.86-6.37-2.96-8.81-1.06-1.23-2.37-2.23-3.84-2.94-1.41-.69-2.94-1.1-4.51-1.21-3.21-.2-6.37,.86-8.81,2.96-3.7,3.2-5.1,8.32-3.55,12.96l.02-.04Zm6.74,6.03c-1.32-.63-2.5-1.53-3.46-2.63-.97-1.12-1.7-2.43-2.13-3.84-.45-1.34-.63-2.76-.54-4.17,.11-1.4,.48-2.77,1.09-4.03,.64-1.3,1.53-2.45,2.63-3.4,1.12-.97,2.43-1.7,3.84-2.13,1.34-.45,2.76-.63,4.17-.54,1.4,.11,2.77,.48,4.03,1.09,1.27,.65,2.4,1.54,3.32,2.63,.97,1.12,1.7,2.43,2.13,3.84,.45,1.33,.63,2.74,.54,4.15-.1,1.36-.44,2.69-1.02,3.92-.63,1.32-1.53,2.5-2.63,3.46-1.11,.98-2.42,1.7-3.84,2.13-1.33,.45-2.74,.63-4.15,.54-1.38-.09-2.74-.43-3.99-1.02Zm-4.44-6.78c.41,1.23,1.06,2.37,1.92,3.34,.85,.98,1.89,1.78,3.05,2.34,1.13,.55,2.36,.88,3.61,.98,1.25,.08,2.51-.09,3.71-.48,1.23-.41,2.37-1.06,3.34-1.92,.99-.84,1.78-1.88,2.34-3.05,.56-1.13,.9-2.35,.98-3.61,.06-1.22-.11-2.45-.5-3.61-.41-1.23-1.06-2.37-1.92-3.34-.81-1-1.83-1.83-2.98-2.42-1.13-.56-2.35-.9-3.61-.98-1.25-.08-2.51,.09-3.71,.48-1.23,.41-2.37,1.06-3.34,1.92-.98,.85-1.78,1.89-2.34,3.05-.55,1.13-.88,2.36-.98,3.61-.09,1.24,.05,2.5,.42,3.69Zm6.49,5.01c-1.43-.47-2.7-1.33-3.67-2.48-.99-1.12-1.65-2.49-1.92-3.96-.27-1.46-.17-2.97,.31-4.38,.48-1.42,1.34-2.69,2.48-3.67,1.13-.98,2.49-1.64,3.96-1.92,1.46-.29,2.97-.19,4.38,.31,1.42,.48,2.68,1.33,3.67,2.46,.98,1.13,1.64,2.51,1.92,3.98,.57,2.98-.48,6.04-2.77,8.03-2.28,2.01-5.46,2.64-8.33,1.65l-.02-.02Zm-4.46-8.55c-.16,1.89,.45,3.77,1.69,5.2,1.26,1.47,3.06,2.36,4.99,2.48,4.02,.29,7.51-2.73,7.8-6.75s-2.73-7.51-6.75-7.8c-4.02-.29-7.51,2.73-7.8,6.75,0,.04,0,.08,0,.12h.08Zm6.86,6.55c-3.34-.22-5.87-3.12-5.65-6.46,.11-1.61,.86-3.12,2.08-4.18,2.53-2.2,6.36-1.94,8.56,.58,1.06,1.21,1.59,2.8,1.48,4.41-.21,3.33-3.09,5.86-6.42,5.65h-.05Zm-4.44-6.4c-.19,2.68,1.83,5,4.51,5.18h0c2.68,.18,5-1.84,5.18-4.51,.18-2.68-1.84-5-4.51-5.18-2.68-.18-4.99,1.83-5.18,4.51Z"/><path class="cls-2" d="M158.6,36.16l6.78-2.69c1.34-.54,2.52-1.43,3.42-2.57,1.86-2.35,2.29-5.53,1.13-8.3-.53-1.3-1.42-2.42-2.55-3.25-1.13-.83-2.45-1.36-3.84-1.56-1.45-.2-2.92-.01-4.26,.56l-14.15,5.76,8.76,21.37-1.13,.46-9.29-22.54,15.36-6.26c1.17-.48,2.42-.71,3.69-.69,1.22,0,2.43,.24,3.57,.69,1.12,.44,2.14,1.09,3.01,1.92,.9,.83,1.6,1.84,2.05,2.98,.73,1.66,.98,3.49,.71,5.28-.26,1.66-.99,3.21-2.09,4.47l4.69,5.15-1.21,.48-4.46-4.72-.86,.77,4.3,4.49-1.21,.5-4.24-4.42c-.32,.18-.64,.33-.98,.46l4.07,4.32-1.17,.4-4.05-4.32-1.02,.42,3.98,4.36-1.17,.48-4.01-4.34-3.32,1.48-.48-1.15Zm-.92-2.25l6.78-2.77c1.45-.56,2.61-1.68,3.23-3.11,.64-1.47,.64-3.14,0-4.61-.57-1.37-1.7-2.44-3.11-2.92-1.43-.6-3.04-.6-4.47,0l-11.91,4.86,7.84,19.2-1.11,.46-8.3-20.3,13.02-5.34c1.72-.73,3.67-.73,5.4,0,1.74,.58,3.15,1.89,3.84,3.59,.78,1.75,.78,3.74,0,5.49-.7,1.75-2.09,3.14-3.84,3.84l-6.78,2.78-.58-1.19Zm-.92-2.25l6.78-2.77c.85-.33,1.53-.97,1.92-1.79,.4-.88,.4-1.89,0-2.77-.34-.77-1-1.36-1.81-1.61-.84-.34-1.77-.34-2.61,0l-9.6,3.96,6.91,16.86-1.11,.46-7.37-17.99,10.77-4.42c1.13-.46,2.4-.46,3.53,0,1.08,.38,1.95,1.21,2.38,2.27,.53,1.17,.53,2.51,0,3.69-.51,1.12-1.44,2-2.59,2.44l-6.8,2.8-.4-1.13Zm3.84,11l-1.11,.46-6.45-15.75,8.45-3.51c.55-.21,1.16-.21,1.71,0,.5,.14,.92,.51,1.11,1,.54,.92,.23,2.09-.69,2.63-.17,.1-.35,.17-.54,.21l-6.78,2.78-.46-1.13,6.78-2.78c.5-.14,.8-.65,.66-1.16-.02-.07-.05-.14-.08-.21-.09-.18-.27-.31-.48-.33-.25-.08-.52-.08-.77,0l-7.39,3.03,6.05,14.75Z"/><path class="cls-2" d="M175.55,13.36l-.12-1.21,18.13-1.92,.12,1.21-18.13,1.92Zm.25,2.42l-.12-1.21,18.13-1.92,.12,1.21-18.13,1.92Zm.25,2.42l-.13-1.21,18.15-1.92,.12,1.21-18.13,1.92Zm4.9,.15l1.21-.12,1.81,17.48-1.21,.12-1.81-17.48Zm2.42-.25l1.21-.12,1.81,17.48-1.21,.12-1.81-17.48Zm2.42-.25l1.21-.12,1.81,17.48-1.21,.12-1.81-17.48Zm2.42-.25l1.21-.12,1.81,17.48-1.21,.12-1.81-17.48Z"/><path class="cls-2" d="M199.4,34.66l-1.21-.17,3.42-24.06,1.19,.17-3.4,24.06Zm2.4,.35l-1.19-.17,3.4-24.06,1.21,.17-3.42,24.06Zm2.42,.35l-1.21-.17,3.44-24.06,1.21,.17-3.44,24.06Zm2.4,.35l-1.21-.17,3.46-24.06,11.52,1.63-.17,1.21-10.27-1.48-.17,1.21,10.27,1.48-.17,1.19-10.27-1.46-.17,1.19,10.29,1.48-.17,1.21-10.29-1.48-.52,3.67,9.47,1.36-.17,1.21-9.47-1.36-.17,1.21,9.47,1.34-.17,1.21-9.47-1.36-.17,1.21,9.49,1.36-.17,1.19-9.49-1.34-1.25,8.35Z"/><path class="cls-2" d="M221.79,31.01c.04-1.81,.46-3.59,1.23-5.22,.74-1.63,1.81-3.08,3.15-4.26,1.28-1.15,2.76-2.05,4.38-2.65,1.62-.58,3.35-.84,5.07-.77,1.78,.05,3.53,.47,5.15,1.23,1.62,.75,3.07,1.82,4.26,3.15,1.16,1.28,2.07,2.78,2.67,4.4,.59,1.62,.85,3.34,.79,5.07-.05,1.78-.47,3.53-1.23,5.15-.75,1.62-1.82,3.07-3.15,4.26-1.28,1.17-2.76,2.08-4.38,2.69-1.62,.59-3.34,.85-5.07,.79-5.43-.21-10.19-3.67-12.08-8.76-.59-1.62-.85-3.34-.79-5.07Zm5.18-8.51c-2.43,2.19-3.86,5.28-3.98,8.55-.14,3.17,.98,6.27,3.13,8.6,1.07,1.2,2.38,2.18,3.84,2.86,1.47,.69,3.06,1.07,4.69,1.11,1.57,.07,3.13-.17,4.61-.71,1.48-.54,2.83-1.36,3.99-2.42,2.43-2.2,3.87-5.29,3.98-8.56,.15-3.17-.99-6.26-3.15-8.58-1.07-1.21-2.37-2.19-3.84-2.86-1.47-.69-3.06-1.07-4.69-1.13-1.57-.05-3.13,.19-4.61,.73-1.47,.54-2.82,1.36-3.98,2.42Zm-2.77,8.6c.04-1.46,.38-2.9,1-4.22,1.84-4,5.91-6.49,10.31-6.3,1.46,.03,2.9,.37,4.22,1,2.65,1.2,4.72,3.4,5.74,6.13,.99,2.73,.86,5.74-.36,8.37-.61,1.33-1.48,2.51-2.57,3.48-1.05,.95-2.27,1.69-3.59,2.19-1.32,.47-2.73,.68-4.13,.63-1.46-.04-2.9-.38-4.22-1-3.99-1.85-6.48-5.92-6.32-10.31l-.08,.04Zm4.4-6.8c-1.95,1.75-3.1,4.22-3.19,6.84-.1,2.53,.8,5.01,2.52,6.87,.86,.97,1.91,1.75,3.09,2.29,1.2,.56,2.51,.87,3.84,.9,2.5,.08,4.93-.83,6.78-2.52,.96-.87,1.74-1.92,2.29-3.09,1.09-2.34,1.2-5.01,.33-7.43-.43-1.18-1.08-2.27-1.92-3.21-.87-.96-1.93-1.74-3.11-2.29-1.17-.55-2.45-.85-3.74-.88-1.25-.04-2.51,.15-3.69,.58-1.18,.43-2.26,1.09-3.19,1.94Zm-1.92,7.95c-.41-4.67,3.02-8.79,7.68-9.24,1.5-.14,3,.13,4.36,.77,1.36,.63,2.52,1.6,3.38,2.82,.85,1.22,1.38,2.64,1.52,4.13,.13,1.49-.14,2.99-.77,4.34-.62,1.37-1.6,2.54-2.84,3.4-2.49,1.74-5.72,2.02-8.47,.73-1.35-.62-2.5-1.6-3.34-2.82-.88-1.21-1.41-2.64-1.56-4.13h.04Zm5.97-7.68c-3.79,1.38-5.74,5.57-4.36,9.35,1.38,3.79,5.57,5.74,9.35,4.36s5.74-5.57,4.36-9.35h0c-.64-1.86-2.03-3.36-3.84-4.13-1.75-.81-3.76-.86-5.55-.15l.04-.08Zm-3.19,8.93c-1.11-3.12,.48-6.55,3.57-7.72,3.15-1.15,6.63,.46,7.79,3.61v.02c1.16,3.15-.46,6.64-3.61,7.79s-6.64-.47-7.79-3.62l.04-.08Zm4.03-6.64c-2.52,.92-3.82,3.71-2.9,6.23,.44,1.21,1.35,2.19,2.51,2.74,2.42,1.1,5.28,.05,6.41-2.36,.57-1.13,.64-2.45,.19-3.63-.89-2.51-3.65-3.82-6.16-2.92l-.06,.02v-.08Z"/><path class="cls-2" d="M259.18,31.36l.92,.81-16.02,18.28-.92-.81,16.02-18.28Zm1.92,1.59l.92,.81-16.02,18.28-.9-.79,16-18.3Zm1.92,1.61l.92,.79-16.02,18.3-.9-.81,16-18.28Zm1.92,1.59l.9,.81-12.27,13.79,6.74,5.76-.79,.92-6.76-5.9-.79,.9,6.74,5.99-.81,.9-6.66-5.91-.81,.9,6.76,5.91-.81,.9-7.68-6.7,16.23-18.28Z"/><path class="cls-2" d="M277.1,48.6l.75,.96-19.2,14.86-.75-.96,19.2-14.86Zm1.5,1.92l.73,.96-19.2,14.86-.73-.96,19.2-14.86Zm1.48,1.92l.75,.96-19.2,14.86-.75-.96,19.2-14.86Zm1.48,1.92l.75,.96-19.2,14.86-.75-.96,19.2-14.86Z"/><path class="cls-2" d="M271.88,69.53c1.22-1.31,2.7-2.36,4.34-3.09,1.63-.73,3.38-1.11,5.17-1.13,3.48-.07,6.85,1.22,9.39,3.61,2.65,2.45,4.17,5.88,4.22,9.49,.03,1.72-.26,3.44-.86,5.05-.63,1.61-1.56,3.08-2.75,4.34-2.46,2.64-5.88,4.16-9.49,4.22-1.72,.03-3.44-.27-5.05-.88-1.61-.62-3.08-1.55-4.34-2.73-1.3-1.22-2.35-2.69-3.07-4.32-.74-1.62-1.12-3.38-1.13-5.17-.04-1.72,.25-3.44,.86-5.05,.62-1.6,1.54-3.08,2.71-4.34Zm9.6-3.01c-1.62,.02-3.21,.37-4.69,1.04-1.46,.66-2.77,1.61-3.84,2.8-2.19,2.29-3.38,5.37-3.28,8.55,.06,3.28,1.44,6.39,3.84,8.62,3.57,3.33,8.78,4.22,13.25,2.25,1.45-.67,2.76-1.62,3.84-2.8,2.19-2.29,3.38-5.37,3.28-8.55-.05-3.28-1.44-6.39-3.84-8.62-1.11-1.07-2.41-1.92-3.84-2.5-1.54-.57-3.18-.84-4.82-.79h.1Zm-7.68,4.67c.99-1.07,2.2-1.93,3.53-2.52,1.34-.6,2.78-.92,4.24-.94,1.41-.02,2.81,.22,4.13,.71,1.32,.52,2.52,1.28,3.55,2.25,2.13,1.99,3.38,4.76,3.46,7.68,.08,2.85-.98,5.62-2.96,7.68-.99,1.08-2.19,1.94-3.53,2.53-1.33,.59-2.77,.9-4.22,.92-1.42,.03-2.82-.21-4.15-.71-1.31-.5-2.51-1.26-3.53-2.23-3.24-3.05-4.32-7.75-2.75-11.91,.48-1.27,1.18-2.45,2.07-3.48h.15Zm7.8-2.23c-1.32,0-2.63,.29-3.84,.83-1.19,.52-2.25,1.28-3.13,2.23-.83,.93-1.49,2-1.92,3.17-.44,1.17-.66,2.42-.63,3.67,0,1.32,.29,2.63,.83,3.84,1.05,2.28,2.92,4.09,5.24,5.05,1.18,.45,2.43,.66,3.69,.63,1.32,0,2.63-.29,3.84-.83,1.15-.54,2.19-1.29,3.05-2.23,.83-.93,1.49-2,1.92-3.17,.45-1.18,.66-2.43,.63-3.69,0-1.33-.3-2.63-.84-3.84-.51-1.19-1.27-2.27-2.23-3.15-.93-.83-2-1.49-3.17-1.92-1.15-.43-2.37-.63-3.59-.6h.15Zm-6.7,4.7c.82-1.19,1.94-2.15,3.25-2.77,1.36-.62,2.87-.87,4.36-.71,1.48,.16,2.89,.7,4.09,1.57,1.22,.88,2.18,2.06,2.78,3.44,1.92,4.26,.02,9.28-4.24,11.2l-.08,.03c-2.77,1.24-5.99,.9-8.45-.88-1.22-.87-2.18-2.06-2.78-3.44-.63-1.36-.87-2.87-.69-4.36,.16-1.48,.72-2.89,1.61-4.09h.15Zm9.6-1.81c-3.72-1.46-7.92,.38-9.38,4.11l-.03,.08c-.73,1.8-.69,3.83,.13,5.59,1.56,3.71,5.84,5.46,9.56,3.9,3.71-1.56,5.46-5.84,3.9-9.56-.82-1.94-2.43-3.43-4.43-4.1l.25-.02Zm-8.28,4.63c.54-1.52,1.7-2.75,3.19-3.38,1.47-.67,3.15-.71,4.65-.12,1.53,.55,2.76,1.71,3.38,3.21,.67,1.47,.71,3.15,.12,4.65-1.2,3.13-4.72,4.69-7.84,3.49-3.13-1.2-4.69-4.72-3.49-7.84Zm7.41-2.36c-1.19-.51-2.54-.51-3.73,0-2.44,1.1-3.54,3.96-2.46,6.41,1.07,2.45,3.92,3.57,6.37,2.5l.04-.02c2.45-1.1,3.55-3.98,2.46-6.43-.58-1.2-1.65-2.09-2.94-2.46h.25Z"/><path class="cls-2" d="M103.67,142.56c.29-1.34,.95-2.58,1.92-3.55,1.15-1.14,2.55-1.99,4.09-2.5,2.82-1.02,5.84-1.37,8.81-1.02,2.94,.37,5.71,1.55,8.01,3.42,2.52,2.11,4.39,4.9,5.4,8.03,.34,.95,.62,1.93,.83,2.92,.21,.99,.33,1.99,.36,3,.06,.56-.31,1.09-.86,1.21-.53,.2-1.11,.2-1.63,0-.52-.17-.94-.56-1.13-1.08-.04-.12-.08-.24-.1-.36-.12-1.08-.25-1.92-.4-2.75-.15-.81-.36-1.6-.61-2.38-1.4-4.45-5.42-7.56-10.08-7.8-2.3-.14-4.6,.18-6.76,.96-1.36,.38-2.57,1.17-3.48,2.27-.64,.87-.8,2-.44,3.01,.4,1.25,1.34,2.26,2.55,2.75,1.78,.61,3.67,.87,5.55,.77,3.22-.12,6.42-.44,9.6-.96,.47-.1,.96,0,1.34,.31,.37,.36,.64,.8,.79,1.29,.48,1.36,.27,2.21-.61,2.52-.2,.07-.41,.11-.61,.12-2.04,.17-4.28,.44-6.68,.84-1.83,.25-3.64,.65-5.4,1.21-.81,.22-1.54,.66-2.11,1.27-.36,.48-.44,1.12-.19,1.67,.24,.64,.67,1.19,1.25,1.56,.9,.55,1.86,1,2.86,1.34,.32,.09,.58,.32,.69,.63,.09,.25,.04,.53-.13,.73-.24,.26-.54,.46-.88,.56-.62,.22-1.3,.22-1.92,0-1.29-.46-2.51-1.11-3.61-1.92-.98-.78-1.7-1.83-2.07-3.01-.49-1.18-.49-2.51,0-3.69,.57-1.21,1.54-2.18,2.75-2.75-3-.01-5.68-1.89-6.72-4.7-.48-1.24-.6-2.59-.35-3.9Z"/><path class="cls-2" d="M114.54,166.84c.83-1.04,1.83-1.93,2.96-2.63,2.09-1.49,4.41-2.65,6.86-3.44,.51-.19,1.08-.19,1.59,0,.56,.26,1.04,.68,1.36,1.21,.18,.23,.3,.5,.36,.79-.02,.22-.15,.43-.35,.54-.66,.36-1.36,.66-2.07,.88-.79,.31-1.46,.6-2.04,.84-.7,.31-1.38,.66-2.04,1.06,1.57-.43,3.19-.64,4.82-.61,1.15,0,2.29,.23,3.36,.67,.76,.29,1.43,.78,1.92,1.42,.67,.7,.64,1.81-.06,2.47-.12,.12-.27,.22-.42,.29-1.25,.76-2.57,1.4-3.94,1.92-1.12,.43-2.2,.95-3.23,1.56-.67,.46-.84,.94-.5,1.44,.39,.41,.9,.67,1.46,.75,1.09,.23,2.19,.38,3.3,.46,.32,.01,.63,.17,.83,.42,.13,.22,.13,.51,0,.73-.16,.32-.41,.58-.71,.77-.54,.44-1.23,.66-1.92,.61-1.31-.08-2.6-.34-3.84-.79-1.16-.43-2.15-1.21-2.84-2.23-.56-.69-.78-1.59-.61-2.46,.28-.91,.88-1.68,1.69-2.17,.88-.54,1.81-1.01,2.77-1.4,.84-.34,1.65-.74,2.42-1.21,.27-.19,.33-.38,.21-.56s-.61-.29-1.38-.29c-1.03,.02-2.06,.14-3.07,.35-1.23,.24-2.44,.6-3.61,1.06-.64,.3-1.34,.47-2.05,.48-.5-.11-.94-.43-1.21-.86-.47-.61-.48-1.46-.02-2.07Z"/><path class="cls-2" d="M143.6,190.94c-.09,.34-.27,.66-.52,.9-.43,.53-1.05,.89-1.73,1-1.27,.17-2.57,.17-3.84,0-1.08-.09-2.11-.51-2.94-1.21-1.19-1.16-1.5-2.95-.77-4.44-1.04,.19-2.11,.19-3.15,0-.76-.19-1.47-.57-2.04-1.11-.9-.78-1.39-1.92-1.33-3.11,.07-1.33,.63-2.58,1.57-3.51,1.05-1.18,2.37-2.09,3.84-2.65,1.42-.56,2.94-.76,4.46-.6,1.48,.17,2.89,.72,4.09,1.61,2.56-2.38,5.42-4.39,8.53-5.99,2.71-1.34,4.72-1.4,6.05-.19,.64,.61,.94,1.49,.81,2.36-.29,1.26-.96,2.4-1.92,3.26-1.93,1.97-4.19,3.59-6.68,4.78-3.12,1.56-6.37,2.84-9.72,3.84-.59,.66-1.04,1.42-1.34,2.25-.17,.44-.06,.95,.27,1.29,.49,.4,1.11,.62,1.75,.6,1.12,0,2.25-.09,3.36-.25,.32-.06,.65,.02,.9,.23,.35,.17,.5,.59,.35,.94Zm-10.87-5.76c.77-.01,1.54-.11,2.29-.31,.67-1.05,1.44-2.04,2.29-2.96l1.67-1.71c-1.13-.52-2.4-.61-3.59-.25-1.33,.34-2.53,1.07-3.44,2.09-1.02,1.09-1.15,1.92-.38,2.69,.35,.22,.76,.32,1.17,.29v.15Zm18.67-10.75c-1.55,1-3.03,2.11-4.42,3.32-1.71,1.44-3.44,3.03-5.17,4.74,3.97-1.43,7.6-3.66,10.68-6.55,.43-.43,.79-.92,1.08-1.46,.19-.4,.23-.67,0-.81s-1.04-.02-2.17,.75Z"/><path class="cls-2" d="M143.02,196.26c.34-1.29,.87-2.51,1.59-3.63,1.3-2.22,2.93-4.22,4.84-5.95,.39-.39,.91-.62,1.46-.67,.62,.02,1.22,.21,1.73,.56,.27,.12,.5,.3,.67,.54,.11,.2,.11,.44,0,.63-.45,.61-.96,1.16-1.52,1.67-.6,.6-1.11,1.13-1.52,1.59-.5,.58-.98,1.18-1.42,1.81,1.25-1.04,2.64-1.89,4.13-2.53,1.05-.48,2.19-.75,3.34-.79,.79-.02,1.58,.15,2.29,.52,.91,.39,1.32,1.44,.93,2.35-.06,.14-.14,.28-.24,.4-.37,.53-.78,1.04-1.21,1.52-.37,.38-.7,.78-1,1.21-.36,.61-.33,1.06,.12,1.31,.84,.32,1.76,.32,2.59,0,.29-.12,.61-.12,.9,0,.23,.12,.37,.37,.36,.63,0,.33-.09,.65-.27,.92-.3,.58-.82,1.02-1.44,1.23-.81,.22-1.66,.31-2.5,.27-.86-.01-1.7-.25-2.44-.69-.79-.39-1.4-1.08-1.69-1.92-.2-.81-.06-1.67,.4-2.36,.17-.26,.35-.51,.56-.75,.23-.33,.4-.56,.46-.67s.15-.48,0-.6-.79,0-1.56,.27c-.94,.43-1.84,.95-2.67,1.57-1.02,.73-1.97,1.56-2.84,2.46-.46,.54-1.03,.98-1.67,1.29-.5,.11-1.03,.01-1.46-.27-.72-.34-1.11-1.13-.94-1.9Z"/><path class="cls-2" d="M174.44,204.57c.05,.35,0,.7-.13,1.02-.19,.66-.62,1.22-1.19,1.59-1.19,.67-2.49,1.11-3.84,1.31-1.53,.27-3.11,.13-4.57-.4-1.76-.51-3.25-1.72-4.11-3.34-.72-1.63-.72-3.49,0-5.13,.46-1.29,1.21-2.45,2.19-3.4,.91-.92,2.05-1.58,3.3-1.92,1.27-.33,2.61-.26,3.84,.21,1.95,.54,3.09,2.57,2.55,4.52-.05,.18-.11,.35-.19,.51-.52,1.35-1.6,2.42-2.96,2.92-1.84,.67-3.83,.85-5.76,.52,.25,1.14,1.13,2.04,2.27,2.32,1.07,.32,2.19,.38,3.28,.15,1.32-.2,2.59-.66,3.74-1.34,.27-.18,.61-.23,.92-.13,.32,.05,.58,.28,.65,.6Zm-8.51-6.8c-.88,.72-1.54,1.67-1.92,2.75h0c1.05,.16,2.12,.07,3.13-.25,.76-.22,1.37-.78,1.67-1.52,.13-.32,.13-.68,0-1-.13-.3-.38-.53-.69-.63-.82-.21-1.69,.04-2.27,.65h.08Z"/><path class="cls-2" d="M175.59,209.82c-.62-1.18-.79-2.54-.5-3.84,.26-1.61,.92-3.13,1.92-4.42,.91-1.24,2.1-2.25,3.48-2.94,1.29-.66,2.75-.91,4.19-.69,.32,.01,.63,.16,.84,.4,.15,.31,.23,.65,.23,1,.43-.05,.86-.05,1.29,0,.41,.03,.8,.23,1.08,.54,.22,.32,.3,.71,.23,1.09-.17,.81-.4,1.61-.69,2.38-.42,1.19-.79,2.34-1.09,3.46-.33,1.26-.6,2.55-.79,3.84-.04,.6-.3,1.16-.73,1.57-1.02,.52-2.26,.31-3.07-.5-.3-.51-.38-1.12-.23-1.69v-.48c-.74,1.76-2.77,2.58-4.53,1.84-.73-.31-1.34-.87-1.71-1.57h.1Zm5.99-1.92c.85-1.23,1.5-2.58,1.92-4.01l1.08-2.98c-.86-.11-1.74,.1-2.46,.6-.86,.55-1.58,1.29-2.09,2.17-.6,.95-.99,2-1.15,3.11-.11,.47-.07,.97,.12,1.42,.17,.34,.49,.57,.86,.63,.72,.01,1.39-.38,1.73-1.02v.08Z"/><path class="cls-2" d="M208.31,211.14c-1.8-.65-3.1-2.24-3.38-4.13-.26-.86-.26-1.79,0-2.65,.24-.65,.81-1.12,1.5-1.23,.47-.13,.98-.08,1.42,.13,.39,.19,.67,.55,.75,.98,.07,.35,.11,.71,.12,1.08,0,.14,0,.28,0,.42-.02,.21-.02,.42,0,.63,.18,.9,.9,1.59,1.81,1.73,1.32,.24,2.68,.19,3.98-.15,1.42-.22,2.75-.83,3.84-1.77,.8-.72,1.14-1.82,.88-2.86-.12-.65-.48-1.24-1.02-1.63-.58-.4-1.23-.7-1.92-.88-.73-.17-1.75-.38-3.05-.61-1.4-.21-2.78-.51-4.13-.92-1.1-.33-2.12-.9-2.98-1.67-.93-.86-1.55-2.01-1.77-3.26-.31-1.37-.19-2.8,.35-4.09,.59-1.35,1.56-2.51,2.78-3.32,1.5-.96,3.17-1.61,4.92-1.92,1.37-.3,2.78-.37,4.17-.21,1.22,.13,2.38,.6,3.34,1.36,.94,.75,1.58,1.83,1.79,3.01,.26,.98,.26,2,0,2.98-.21,.67-.78,1.18-1.48,1.31-.47,.12-.98,.05-1.4-.19-.4-.22-.68-.6-.77-1.04-.08-.35-.13-.71-.13-1.08,0-.61-.12-1-.15-1.15-.16-.83-.8-1.49-1.63-1.67-1.05-.27-2.16-.27-3.21,0-1.43,.19-2.76,.81-3.84,1.77-.76,.78-1.06,1.9-.81,2.96,.14,.72,.54,1.37,1.13,1.81,.61,.45,1.3,.79,2.04,.98,.79,.21,1.92,.44,3.23,.67,1.35,.22,2.69,.52,4.01,.9,1.03,.31,1.99,.83,2.8,1.54,.86,.79,1.44,1.84,1.65,3,.56,2.13-.02,4.4-1.54,6.01-1.85,1.83-4.23,3.03-6.8,3.44-2.15,.51-4.39,.43-6.49-.25Z"/><path class="cls-2" d="M232.84,203.88c-1.55-.6-2.78-1.81-3.42-3.34-.68-1.36-1.01-2.86-.96-4.38,.03-1.3,.4-2.57,1.08-3.69,.6-1,1.47-1.82,2.52-2.34,.87-.46,1.88-.53,2.8-.19,.87,.36,1.56,1.05,1.92,1.92,.35,.68,.49,1.45,.4,2.21-.03,.62-.41,1.18-.98,1.44-.29,.16-.63,.21-.96,.15-.29-.08-.53-.28-.65-.56-.06-.15-.11-.3-.15-.46v-.4c-.03-.29-.11-.58-.23-.84-.08-.21-.24-.37-.44-.46-.19-.1-.41-.1-.6,0-.45,.24-.79,.65-.94,1.13-.2,.62-.25,1.28-.15,1.92,.09,.8,.31,1.58,.65,2.3,1.02,2.15,2.46,2.79,4.32,1.92,.87-.44,1.6-1.1,2.11-1.92,.7-1.08,1.22-2.27,1.54-3.51,.06-.32,.27-.58,.56-.73,.22-.13,.51-.13,.73,0,.28,.21,.5,.5,.63,.83,.31,.59,.41,1.27,.29,1.92-.34,1.44-.99,2.8-1.92,3.96-.83,1.13-1.92,2.05-3.17,2.69-1.52,.84-3.33,1-4.97,.44Z"/><path class="cls-2" d="M257.42,182.74c.32,.16,.59,.4,.79,.69,.45,.54,.67,1.22,.63,1.92-.1,1.31-.36,2.6-.77,3.84-.39,1.15-1.14,2.14-2.13,2.84-.68,.57-1.58,.82-2.46,.67-.94-.28-1.74-.91-2.23-1.77-.56-.87-1.05-1.78-1.46-2.73-.34-.84-.76-1.64-1.25-2.4-.19-.27-.36-.33-.56-.19s-.33,.65-.31,1.5c.02,1.04,.16,2.07,.4,3.07,.27,1.22,.65,2.41,1.11,3.57,.73,1.27,.34,2.89-.88,3.69-.37,.35-.91,.42-1.36,.19-.65-.48-1.2-1.08-1.63-1.77-.4-.52-.69-.96-.9-1.29l-1.42-1.92c-1.94-2.68-3.62-5.54-5.01-8.55-1.37-2.73-2.3-5.65-2.77-8.66-.55-1.98,.08-4.11,1.61-5.47,.74-.55,1.71-.69,2.57-.36,1.08,.4,1.99,1.14,2.59,2.11,1.29,1.86,2.09,4.01,2.32,6.26,.32,3.25,.26,6.54-.19,9.77,.58,.9,1.19,1.81,1.92,2.71-.44-1.55-.68-3.15-.69-4.76-.01-1.14,.19-2.28,.61-3.34,.28-.75,.76-1.42,1.38-1.92,.69-.68,1.79-.67,2.47,.01,.13,.13,.23,.27,.31,.43,.76,1.22,1.4,2.5,1.92,3.84,.44,1.1,.98,2.17,1.59,3.19,.48,.67,.96,.83,1.44,.48,.42-.39,.68-.91,.75-1.48,.2-1.09,.33-2.19,.38-3.3,.01-.32,.17-.63,.42-.83,.23-.16,.52-.18,.77-.06Zm-19.34-7.91c.36,1.45,.85,2.86,1.46,4.22,.77,1.82,1.64,3.6,2.59,5.34,.15-1.93,.05-3.86-.31-5.76-.29-1.66-.94-3.24-1.92-4.61-.28-.43-.63-.8-1.06-1.09-.33-.19-.6-.23-.81,0s-.23,.73,.04,1.9Z"/><path class="cls-2" d="M262.66,184.14c-1.3-.1-2.52-.66-3.46-1.57-1.21-1.09-2.13-2.45-2.69-3.98-.57-1.46-.78-3.05-.6-4.61,.14-1.43,.73-2.77,1.69-3.84,.29-.33,.56-.5,.79-.48,.34,.04,.67,.15,.96,.33,.24-.38,.51-.74,.81-1.08,.67-.75,1.29-.88,1.81-.4,.69,.76,1.33,1.56,1.92,2.4,.96,1.36,2.03,2.65,3.19,3.84,.19,.18,.43,.29,.69,.31,.23,.02,.46-.08,.61-.25,.3-.46,.44-1.01,.38-1.56,0-1.15-.08-2.3-.23-3.44-.07-.32,.01-.66,.23-.9,.18-.19,.44-.28,.69-.23,.34,.09,.66,.27,.9,.52,.55,.42,.91,1.03,1.04,1.71,.22,1.27,.27,2.56,.17,3.84-.06,1.01-.45,1.98-1.11,2.75-.45,.5-1.07,.83-1.75,.9-.77,.11-1.55,0-2.27-.31,.63,1.6,.33,3.41-.77,4.72-.76,.87-1.86,1.36-3.01,1.33Zm1.77-5.76c-.16-.76-.49-1.48-.98-2.09l-3.44-4.55c-.57,.68-.87,1.54-.86,2.42-.02,1.03,.21,2.04,.67,2.96,.46,1,1.11,1.9,1.92,2.65,.35,.36,.81,.6,1.31,.67,.4,0,.79-.18,1.06-.48,.36-.42,.48-1,.33-1.54v-.04Z"/><path class="cls-2" d="M274.64,168.78c-1.63,.35-3.33,.02-4.7-.92-1.31-.75-2.41-1.82-3.21-3.11-.7-1.11-1.09-2.38-1.13-3.69-.05-1.17,.24-2.32,.84-3.32,.46-.87,1.27-1.5,2.23-1.73,.93-.17,1.88,.02,2.67,.54,.66,.39,1.2,.95,1.56,1.63,.32,.53,.32,1.2,0,1.73-.16,.3-.42,.53-.73,.65-.28,.11-.6,.07-.84-.1-.14-.09-.27-.19-.38-.31l-.29-.29c-.18-.23-.4-.42-.65-.58-.19-.13-.41-.18-.63-.15-.21,.06-.38,.19-.48,.38-.26,.44-.31,.96-.15,1.44,.18,.64,.5,1.23,.94,1.73,.54,.63,1.19,1.16,1.92,1.56,2.04,1.25,3.59,.98,4.67-.79,.48-.84,.71-1.8,.69-2.77,.01-1.31-.21-2.61-.65-3.84-.14-.3-.14-.64,0-.94,.13-.23,.37-.36,.63-.35,.36,.02,.7,.14,1,.35,.59,.34,1.06,.86,1.33,1.48,.5,1.41,.69,2.91,.54,4.4-.11,1.35-.52,2.67-1.21,3.84-.8,1.56-2.24,2.71-3.94,3.15Z"/><path class="cls-2" d="M286.68,142.3c.5,.19,.88,.6,1.04,1.11,.21,.68,.16,1.42-.13,2.07-.41,1.27-1.32,2.32-2.52,2.9-1.22,.54-2.62,.54-3.84,0-.69-.24-1.16-.88-1.17-1.61-.01-.77-.18-1.54-.5-2.25-.29-.52-.76-.91-1.33-1.09-.27-.1-.57-.1-.84,0-.21,.07-.39,.23-.46,.44-.16,.75,.03,1.53,.5,2.13,.63,.99,1.37,1.89,2.23,2.69,.97,.97,2.03,1.84,3.17,2.61,.62,.35,1.16,.84,1.57,1.42,.22,.47,.22,1.01,0,1.48-.15,.54-.59,.95-1.13,1.08-.74,.1-1.49,.04-2.21-.17-.95-.24-2.29-.68-4.03-1.33-3.1-1.16-6.08-2.61-8.91-4.32-2.65-1.54-5.05-3.49-7.11-5.76-1.56-1.35-2.22-3.46-1.71-5.45,.31-.86,1.03-1.51,1.92-1.73,1.09-.27,2.23-.17,3.26,.27,2.09,.8,3.95,2.12,5.4,3.84,2.08,2.53,3.85,5.29,5.28,8.24,.97,.42,1.99,.83,3.05,1.21-1.73-1.36-3.12-3.1-4.07-5.09-.62-1.22-.75-2.64-.38-3.96,.31-.9,1.02-1.61,1.92-1.92,.88-.34,1.86-.34,2.75,0,1.04,.38,1.94,1.04,2.61,1.92,.77,1.07,1.23,2.33,1.34,3.65,.5,.11,1.03,.01,1.46-.27,.48-.44,.88-.95,1.19-1.52,.33-.58,1.03-.83,1.65-.6Zm-23.7-.61c1.11,.99,2.3,1.89,3.55,2.69,1.66,1.09,3.37,2.09,5.13,3-.95-1.7-2.13-3.26-3.5-4.65-1.13-1.23-2.52-2.19-4.07-2.82-.47-.2-.97-.31-1.48-.33-.38,0-.61,.15-.71,.4s.23,.92,1.08,1.71Z"/></g></svg>