<?xml version="1.0" encoding="UTF-8"?><svg xmlns="http://www.w3.org/2000/svg" viewBox="0 0 396 230"><defs><style>.cls-1{fill:#e6dec2;}.cls-2{fill:#743b3b;}.cls-3{fill:#be4e2c;}.cls-4{fill:#cb5d39;}.cls-5{fill:#c4b07b;}.cls-6{fill:#d3c387;}.cls-7{fill:#dccc95;}.cls-8{fill:#d5c588;}.cls-9{fill:#5c2227;}.cls-10{fill:#5d2325;}.cls-11{isolation:isolate;}.cls-12{opacity:.25;}.cls-12,.cls-13{mix-blend-mode:multiply;}.cls-13{opacity:.2;}.cls-14{fill:#d0c5a5;opacity:.4;}</style></defs><g class="cls-11"><g id="Layer_1"><rect class="cls-1" x="-2" y="-.5" width="400" height="236.47"/><circle class="cls-14" cx="198" cy="113.97" r="103"/><g><path class="cls-10" d="M79.5,106.49h4.95c.11,.24,.16,.47,.16,.71s-.04,.39-.12,.47c-.08,.09-.22,.13-.4,.13h-.74c-.03,.82-.04,2.19-.04,4.11h4.76c0-1.92-.03-3.29-.07-4.11h-1.08c-.11-.28-.16-.55-.16-.8,0-.18,.05-.31,.14-.39,.09-.08,.23-.12,.42-.12h4.95c.11,.24,.16,.47,.16,.71s-.04,.39-.12,.47c-.08,.09-.21,.13-.39,.13h-.83c-.04,.82-.05,2.17-.05,4.04,0,3.46,.02,5.59,.06,6.41h1.18c.11,.23,.16,.47,.16,.71,0,.22-.04,.38-.12,.47-.08,.09-.21,.13-.39,.13h-4.99c-.11-.28-.16-.55-.16-.81,0-.17,.05-.3,.14-.38,.09-.08,.23-.12,.42-.12h.7c.03-.68,.05-2.26,.06-4.74h-4.76c0,2.49,.02,4.07,.05,4.74h1.09c.11,.23,.16,.47,.16,.71,0,.22-.04,.38-.12,.47-.08,.09-.22,.13-.4,.13h-4.98c-.11-.28-.17-.55-.17-.81,0-.17,.05-.3,.14-.38,.1-.08,.24-.12,.42-.12h.79c.03-.82,.05-2.96,.05-6.42,0-1.87-.03-3.22-.06-4.03h-1.18c-.11-.28-.17-.55-.17-.8,0-.18,.05-.31,.14-.39,.1-.08,.24-.12,.42-.12Z"/><path class="cls-10" d="M94.39,113.63c0-2.49,.58-4.34,1.74-5.54,1.16-1.2,2.74-1.8,4.75-1.8,1.89,0,3.33,.44,4.31,1.32,.98,.88,1.47,2.48,1.47,4.8,0,2.49-.58,4.34-1.74,5.54-1.16,1.2-2.77,1.8-4.83,1.8-1.84,0-3.25-.44-4.23-1.32-.98-.88-1.47-2.48-1.47-4.8Zm3.3-.93c0,2.05,.26,3.43,.78,4.14,.52,.71,1.24,1.07,2.17,1.07s1.67-.35,2.09-1.04c.42-.69,.63-1.87,.63-3.53,0-2.11-.26-3.5-.77-4.19-.51-.68-1.24-1.03-2.17-1.03s-1.67,.35-2.09,1.04c-.42,.69-.63,1.87-.63,3.53Z"/><path class="cls-10" d="M116.91,117.69c0-1.21-.01-1.97-.04-2.27s-.06-.51-.11-.64-.12-.22-.23-.27c-.11-.05-.24-.08-.4-.08-.12-.22-.17-.43-.17-.64,0-.25,.06-.42,.17-.53,.11-.1,.3-.15,.58-.15h2.09c.43,0,.72,.07,.86,.21,.15,.14,.22,.42,.22,.85v2c0,.84,.03,1.94,.1,3.3-.35,.06-.78,.1-1.27,.1-.13,0-.38-.22-.74-.67-1.18,.58-2.38,.86-3.61,.86-1.97,0-3.4-.48-4.27-1.45-.88-.96-1.31-2.52-1.31-4.68,0-2.49,.58-4.34,1.74-5.54,1.16-1.2,2.83-1.8,5.03-1.8,1.37,0,2.32,.1,2.84,.29,.52,.19,.78,.55,.78,1.06s-.2,.99-.59,1.49c-1.27-.67-2.51-1-3.71-1-.89,0-1.57,.32-2.05,.95-.48,.63-.72,1.83-.72,3.58,0,2.06,.24,3.45,.71,4.17s1.29,1.08,2.46,1.08c.56,0,1.12-.08,1.68-.23Z"/><path class="cls-10" d="M135.97,106.49h3.85c.11,.24,.17,.47,.17,.71s-.04,.39-.12,.47c-.08,.09-.22,.13-.4,.13h-.46c-.36,1.36-.87,3.44-1.53,6.25-.66,2.8-1.14,4.46-1.42,4.95s-.9,.75-1.86,.75c-1.13,0-1.75-.04-1.86-.11-.11-.07-.42-1.65-.93-4.75s-.78-4.64-.81-4.64-.29,1.33-.77,4c-.48,2.67-.86,4.25-1.15,4.75s-.9,.75-1.86,.75c-1.02,0-1.58-.04-1.69-.11s-.53-1.72-1.27-4.94c-.74-3.22-1.33-5.52-1.77-6.9h-.8c-.11-.28-.16-.55-.16-.8,0-.18,.05-.31,.14-.39,.1-.08,.24-.12,.42-.12h4.76c.11,.24,.16,.47,.16,.71s-.04,.39-.12,.47c-.08,.09-.22,.13-.4,.13h-.47c.07,.82,.35,2.55,.82,5.21,.48,2.65,.78,3.98,.9,3.98s.48-1.71,1.07-5.15c.59-3.43,.94-5.18,1.05-5.25s.84-.11,2.2-.11c.48,0,.81,.09,.99,.28,.18,.19,.56,1.94,1.13,5.25,.57,3.31,.91,4.97,1.03,4.97s.4-1.31,.84-3.94c.44-2.62,.68-4.38,.73-5.25h-.8c-.11-.28-.17-.55-.17-.8,0-.18,.05-.31,.14-.39,.1-.08,.24-.12,.42-.12Z"/><path class="cls-10" d="M145.93,106.3c1.07,0,1.67,.04,1.81,.11s.77,1.75,1.89,5.04c1.12,3.29,1.93,5.56,2.42,6.81h.9c.11,.23,.16,.47,.16,.71,0,.22-.04,.38-.12,.47-.08,.09-.22,.13-.4,.13h-4.9c-.11-.28-.16-.55-.16-.81,0-.17,.05-.3,.14-.38,.1-.08,.24-.12,.42-.12h.42c-.1-.46-.34-1.38-.74-2.75h-4.06c-.36,1.34-.58,2.26-.67,2.75h.91c.11,.23,.16,.47,.16,.71,0,.22-.04,.38-.12,.47-.08,.09-.21,.13-.39,.13h-4.18c-.11-.28-.16-.55-.16-.81,0-.17,.05-.3,.14-.38,.09-.08,.23-.12,.42-.12h.52c.45-1.23,1.14-3.23,2.05-6,.92-2.77,1.53-4.45,1.83-5.05,.3-.6,.87-.9,1.72-.9Zm-1.79,7.6h3.17c-.98-3.22-1.52-4.83-1.64-4.83s-.63,1.61-1.53,4.83Z"/><path class="cls-10" d="M158.62,118.25h1.39c.11,.23,.16,.47,.16,.71,0,.22-.04,.38-.12,.47-.08,.09-.21,.13-.39,.13h-5.38c-.11-.28-.17-.55-.17-.81,0-.17,.05-.3,.14-.38,.1-.08,.24-.12,.42-.12h.89c.03-.82,.05-2.96,.05-6.42,0-1.87-.02-3.22-.05-4.03h-1.27c-.11-.28-.16-.55-.16-.8,0-.18,.05-.31,.14-.39,.09-.08,.23-.12,.42-.12h4.97c1.99,0,3.42,.28,4.27,.83,.85,.56,1.28,1.44,1.28,2.66,0,1.69-1.04,2.86-3.13,3.51,.52,.22,.97,.55,1.33,1.01,.36,.46,.75,1.1,1.15,1.92,.4,.82,.73,1.33,.99,1.53,.26,.2,.63,.3,1.13,.3,.17,.57,.15,.96-.06,1.18-.21,.22-.74,.33-1.6,.33-1,0-1.68-.11-2.06-.32-.38-.21-.72-.87-1.03-1.96s-.64-1.9-.99-2.42c-.35-.53-.84-.79-1.46-.79-.33,0-.63,.03-.88,.1,0,1.9,.02,3.2,.05,3.89Zm-.05-5.55h.78c.82,0,1.46-.15,1.89-.46,.44-.31,.66-.8,.66-1.48,0-.88-.22-1.5-.65-1.87-.43-.37-.98-.56-1.64-.56-.4,0-.73,.03-.99,.1-.03,.4-.05,1.54-.05,3.42v.86Z"/><path class="cls-10" d="M170.89,118.25c.04-.82,.06-2.96,.06-6.42,0-1.87-.02-3.12-.05-3.75-2.22,.12-3.47,.18-3.75,.18-.31,0-.54-.06-.68-.17-.14-.12-.21-.33-.21-.65,0-.43,.11-.91,.33-1.43,1.32,.31,2.97,.47,4.96,.47h6.45c.3,0,.52,.05,.67,.14,.14,.1,.22,.3,.22,.61,0,.57-.17,1.13-.51,1.66-1.19-.54-2.58-.81-4.17-.81h-.24c-.03,.63-.05,1.88-.05,3.76,0,3.46,.02,5.59,.05,6.41h1.47c.12,.23,.17,.47,.17,.71,0,.22-.04,.38-.12,.47-.08,.09-.22,.13-.4,.13h-5.65c-.12-.28-.17-.55-.17-.81,0-.17,.05-.3,.14-.38,.1-.08,.24-.12,.42-.12h1.07Z"/><path class="cls-10" d="M189.88,106.29c1.64,0,2.73,.1,3.26,.29s.8,.57,.8,1.12-.19,1.01-.58,1.43c-1.48-.67-2.76-1-3.84-1-.72,0-1.22,.12-1.5,.37s-.42,.61-.42,1.08c0,.56,.17,.98,.53,1.25s1.06,.57,2.13,.88c1.34,.35,2.38,.8,3.1,1.33,.72,.54,1.1,1.41,1.14,2.62,0,1.38-.5,2.4-1.49,3.07-.99,.67-2.44,1-4.34,1-1.38,0-2.4-.1-3.05-.31-.66-.2-.98-.61-.98-1.22,0-.54,.22-1.01,.67-1.43,1.46,.74,2.83,1.11,4.11,1.11,.84,0,1.42-.11,1.75-.33s.5-.59,.5-1.1c0-.6-.26-1.07-.78-1.4s-1.37-.67-2.56-1.01c-1.26-.34-2.17-.81-2.73-1.41s-.83-1.37-.83-2.31c0-1.28,.46-2.28,1.37-3,.91-.71,2.16-1.07,3.76-1.07Z"/><path class="cls-10" d="M200.11,118.25c.04-.82,.06-2.96,.06-6.42,0-1.87-.02-3.12-.05-3.75-2.22,.12-3.47,.18-3.75,.18-.31,0-.54-.06-.68-.17-.14-.12-.21-.33-.21-.65,0-.43,.11-.91,.33-1.43,1.32,.31,2.97,.47,4.96,.47h6.45c.3,0,.52,.05,.67,.14,.14,.1,.22,.3,.22,.61,0,.57-.17,1.13-.51,1.66-1.19-.54-2.58-.81-4.17-.81h-.24c-.03,.63-.05,1.88-.05,3.76,0,3.46,.02,5.59,.05,6.41h1.47c.12,.23,.17,.47,.17,.71,0,.22-.04,.38-.12,.47-.08,.09-.22,.13-.4,.13h-5.65c-.12-.28-.17-.55-.17-.81,0-.17,.05-.3,.14-.38,.1-.08,.24-.12,.42-.12h1.07Z"/><path class="cls-10" d="M217.58,107.8h-1.09c-.12-.28-.17-.55-.17-.8,0-.18,.05-.31,.14-.39,.1-.08,.24-.12,.42-.12h4.41c.11,.24,.16,.47,.16,.71s-.04,.39-.12,.47c-.08,.09-.21,.13-.39,.13h-.74c-.03,.82-.04,2.72-.04,5.72,0,2.42-.48,4.07-1.43,4.93-.96,.87-2.37,1.3-4.25,1.3-1.7,0-2.87-.31-3.52-.94-.65-.63-.97-1.8-.97-3.5,0-4.19-.02-6.69-.05-7.51h-.9c-.11-.28-.16-.55-.16-.8,0-.18,.05-.31,.14-.39,.09-.08,.23-.12,.42-.12h4.58c.11,.24,.16,.47,.16,.71s-.04,.39-.12,.47c-.08,.09-.21,.13-.39,.13h-.65c-.03,.84-.05,2.7-.05,5.57,0,1.87,.19,3.09,.57,3.67,.38,.58,.97,.88,1.78,.88,.86,0,1.46-.26,1.81-.78,.35-.52,.52-1.55,.52-3.09,0-3.32-.02-5.4-.06-6.25Z"/><path class="cls-10" d="M223.3,106.49h4.04c2.89,0,4.87,.46,5.94,1.38,1.07,.92,1.61,2.44,1.61,4.57,0,2.36-.55,4.14-1.66,5.34-1.11,1.2-2.99,1.8-5.64,1.8h-4.69c-.11-.27-.17-.54-.17-.8,0-.17,.05-.3,.14-.38,.1-.08,.24-.12,.42-.12h.7c.04-.82,.06-2.97,.06-6.43,0-1.87-.02-3.22-.06-4.03h-1.09c-.11-.28-.17-.55-.17-.8,0-.18,.05-.31,.14-.39,.1-.08,.24-.12,.42-.12Zm4.96,1.84c-.46,0-.86,.03-1.2,.1-.03,.89-.05,2.97-.05,6.22,0,1.51,.09,2.41,.28,2.68s.67,.41,1.45,.41c.93,0,1.63-.3,2.12-.91,.49-.61,.73-1.83,.73-3.66s-.29-3.06-.86-3.77c-.57-.71-1.39-1.06-2.47-1.06Z"/><path class="cls-10" d="M237.4,106.49h8.72c.41,0,.7,.06,.88,.19,.17,.12,.26,.38,.26,.77,0,.47-.16,.96-.47,1.46-1.34-.54-3.06-.81-5.16-.81h-.46c-.04,.63-.06,1.9-.06,3.82h4.83c.11,.34,.16,.69,.16,1.05,0,.22-.04,.36-.12,.44-.08,.07-.22,.11-.44,.11h-4.44c0,2.46,.03,3.94,.06,4.46h.8c2.15,0,3.86-.25,5.12-.76,.28,.42,.42,.88,.42,1.37,0,.35-.13,.6-.39,.76s-.79,.23-1.59,.23h-8.52c-.11-.27-.17-.54-.17-.8,0-.17,.05-.3,.14-.38,.1-.08,.24-.12,.42-.12h.7c.04-.82,.06-2.97,.06-6.43,0-1.87-.02-3.22-.06-4.03h-1.09c-.11-.28-.17-.55-.17-.8,0-.18,.05-.31,.14-.39,.1-.08,.24-.12,.42-.12Z"/><path class="cls-10" d="M249.73,106.49h4.11c.86,1.64,1.68,3.16,2.47,4.56,.79,1.4,1.6,3.13,2.43,5.2v-4.42c0-1.87-.02-3.22-.06-4.03h-1.08c-.11-.28-.16-.55-.16-.8,0-.18,.05-.31,.14-.39,.1-.08,.24-.12,.42-.12h4.31c.11,.24,.16,.47,.16,.71s-.04,.39-.12,.47c-.08,.09-.22,.13-.4,.13h-.83c-.03,.82-.04,2.17-.04,4.04v6.43c0,.61-.07,.99-.21,1.15-.14,.16-.51,.24-1.11,.24-1.19,0-1.87-.04-2.03-.13-.16-.09-.8-1.06-1.92-2.9s-2.15-3.91-3.09-6.19c0,4.39,.02,7,.05,7.82h1c.11,.23,.16,.47,.16,.71,0,.22-.04,.38-.12,.47-.08,.09-.21,.13-.39,.13h-4.26c-.11-.28-.17-.55-.17-.81,0-.17,.05-.3,.14-.38,.1-.08,.24-.12,.42-.12h.79c.04-.82,.06-2.96,.06-6.42,0-1.87-.03-3.22-.07-4.03h-.99c-.12-.28-.17-.55-.17-.8,0-.18,.05-.31,.14-.39,.1-.08,.24-.12,.42-.12Z"/><path class="cls-10" d="M267.99,118.25c.04-.82,.06-2.96,.06-6.42,0-1.87-.02-3.12-.05-3.75-2.22,.12-3.47,.18-3.75,.18-.31,0-.54-.06-.68-.17-.14-.12-.21-.33-.21-.65,0-.43,.11-.91,.33-1.43,1.32,.31,2.97,.47,4.96,.47h6.45c.3,0,.52,.05,.67,.14,.14,.1,.22,.3,.22,.61,0,.57-.17,1.13-.51,1.66-1.19-.54-2.58-.81-4.17-.81h-.24c-.03,.63-.05,1.88-.05,3.76,0,3.46,.02,5.59,.05,6.41h1.47c.12,.23,.17,.47,.17,.71,0,.22-.04,.38-.12,.47-.08,.09-.22,.13-.4,.13h-5.65c-.12-.28-.17-.55-.17-.81,0-.17,.05-.3,.14-.38,.1-.08,.24-.12,.42-.12h1.07Z"/><path class="cls-10" d="M286.02,117.96h.23c2.14,0,3.84-.25,5.1-.76,.28,.42,.42,.88,.42,1.37,0,.35-.13,.6-.39,.76-.26,.15-.79,.23-1.59,.23h-7.93c-.11-.27-.17-.54-.17-.8,0-.17,.05-.3,.14-.38,.1-.08,.24-.12,.42-.12h.7c.04-.82,.06-2.97,.06-6.43,0-1.87-.02-3.22-.07-4.03h-1.08c-.11-.28-.17-.55-.17-.8,0-.18,.05-.31,.14-.39,.1-.08,.24-.12,.42-.12h5.05c.11,.24,.16,.47,.16,.71s-.04,.39-.12,.47c-.08,.09-.21,.13-.39,.13h-.93c-.03,.82-.05,2.17-.05,4.04,0,3.46,.02,5.5,.06,6.12Z"/><path class="cls-10" d="M293.3,106.49h5.24c.11,.24,.16,.47,.16,.71s-.04,.39-.12,.47c-.08,.09-.22,.13-.4,.13h-.93c-.03,.82-.04,2.17-.04,4.04,0,3.46,.02,5.59,.05,6.41h1.28c.11,.23,.16,.47,.16,.71,0,.22-.04,.38-.12,.47-.08,.09-.22,.13-.4,.13h-5.27c-.11-.28-.17-.55-.17-.81,0-.17,.05-.3,.14-.38,.1-.08,.24-.12,.42-.12h.89c.03-.82,.05-2.96,.05-6.42,0-1.87-.03-3.22-.06-4.03h-1.27c-.11-.28-.17-.55-.17-.8,0-.18,.05-.31,.14-.39,.1-.08,.24-.12,.42-.12Z"/><path class="cls-10" d="M305.75,106.29c1.64,0,2.73,.1,3.26,.29s.8,.57,.8,1.12-.19,1.01-.58,1.43c-1.48-.67-2.76-1-3.84-1-.72,0-1.22,.12-1.5,.37s-.42,.61-.42,1.08c0,.56,.17,.98,.53,1.25s1.06,.57,2.13,.88c1.34,.35,2.38,.8,3.1,1.33,.72,.54,1.1,1.41,1.14,2.62,0,1.38-.5,2.4-1.49,3.07-.99,.67-2.44,1-4.34,1-1.38,0-2.4-.1-3.05-.31-.66-.2-.98-.61-.98-1.22,0-.54,.22-1.01,.67-1.43,1.46,.74,2.83,1.11,4.11,1.11,.84,0,1.42-.11,1.75-.33s.5-.59,.5-1.1c0-.6-.26-1.07-.78-1.4s-1.37-.67-2.56-1.01c-1.26-.34-2.17-.81-2.73-1.41s-.83-1.37-.83-2.31c0-1.28,.46-2.28,1.37-3,.91-.71,2.16-1.07,3.76-1.07Z"/><path class="cls-10" d="M315.97,118.25c.04-.82,.06-2.96,.06-6.42,0-1.87-.02-3.12-.05-3.75-2.22,.12-3.47,.18-3.75,.18-.31,0-.54-.06-.68-.17-.14-.12-.21-.33-.21-.65,0-.43,.11-.91,.33-1.43,1.32,.31,2.97,.47,4.96,.47h6.45c.3,0,.52,.05,.67,.14,.14,.1,.22,.3,.22,.61,0,.57-.17,1.13-.51,1.66-1.19-.54-2.58-.81-4.17-.81h-.24c-.03,.63-.05,1.88-.05,3.76,0,3.46,.02,5.59,.05,6.41h1.47c.12,.23,.17,.47,.17,.71,0,.22-.04,.38-.12,.47-.08,.09-.22,.13-.4,.13h-5.65c-.12-.28-.17-.55-.17-.81,0-.17,.05-.3,.14-.38,.1-.08,.24-.12,.42-.12h1.07Z"/></g><g class="cls-12"><g><rect class="cls-7" x="84.24" y="150.61" width="75.75" height="51.45" transform="translate(-63.41 68.69) rotate(-25.17)"/><polygon class="cls-6" points="167.33 183.51 150.06 191.63 132.41 199.92 123.9 181.81 110.52 153.36 146.49 172.77 167.33 183.51"/><rect class="cls-6" x="86.07" y="158.82" width="37.16" height="51.45" transform="translate(-68.56 62.04) rotate(-25.17)"/><polygon class="cls-7" points="98.78 215.73 115.4 207.91 132.41 199.92 123.9 181.82 110.52 153.36 103.33 193.06 98.78 215.73"/><polygon class="cls-3" points="145.45 136.95 128.18 145.06 110.52 153.36 115.25 163.42 122.68 179.23 136.9 152.37 145.45 136.95"/><polygon class="cls-4" points="76.89 169.16 93.52 161.35 110.52 153.36 115.25 163.42 122.68 179.23 93.74 172.65 76.89 169.16"/></g><path class="cls-9" d="M130.17,182.74h0c-1.36-.04-2.46,1.1-2.36,2.46h0c.15,2.15-2.48,3.31-3.96,1.73h0c-.93-.99-2.51-.96-3.4,.07h0c-1.41,1.63-4.09,.58-4.03-1.57h0c.04-1.36-1.1-2.46-2.46-2.36h0c-2.15,.15-3.31-2.48-1.73-3.96h0c.99-.93,.96-2.51-.07-3.4h0c-1.63-1.41-.58-4.09,1.57-4.03h0c1.36,.04,2.46-1.1,2.36-2.46h0c-.15-2.15,2.48-3.31,3.96-1.73h0c.93,.99,2.51,.96,3.4-.07h0c1.41-1.63,4.09-.58,4.03,1.57h0c-.04,1.36,1.1,2.46,2.46,2.36h0c2.15-.15,3.31,2.48,1.73,3.96h0c-.99,.93-.96,2.51,.07,3.4h0c1.63,1.41,.58,4.09-1.57,4.03Z"/><path class="cls-7" d="M114.99,174.85l3.51-1.65c.15,.12,.26,.26,.34,.42,.07,.15,.09,.27,.06,.36-.03,.08-.11,.16-.24,.22l-.52,.25c.23,.56,.66,1.48,1.26,2.76l3.37-1.59c-.61-1.28-1.05-2.19-1.34-2.72l-.77,.36c-.17-.15-.29-.31-.37-.48-.06-.12-.06-.22-.02-.31,.04-.08,.13-.16,.26-.22l3.51-1.65c.15,.12,.26,.26,.34,.42,.07,.15,.09,.27,.06,.36-.03,.08-.11,.16-.24,.22l-.59,.28c.23,.56,.64,1.46,1.24,2.72,1.08,2.31,1.77,3.73,2.05,4.26l.83-.39c.15,.12,.26,.26,.34,.42,.07,.15,.09,.27,.06,.35-.03,.09-.11,.16-.24,.22l-3.54,1.66c-.17-.15-.29-.31-.37-.49-.05-.12-.06-.21-.02-.3,.04-.08,.13-.16,.26-.22l.5-.23c-.19-.46-.67-1.53-1.45-3.19l-3.37,1.59c.78,1.66,1.29,2.71,1.52,3.15l.77-.36c.15,.12,.26,.26,.34,.42,.07,.15,.09,.27,.06,.35-.03,.09-.11,.16-.24,.22l-3.53,1.66c-.17-.15-.29-.31-.38-.49-.05-.12-.06-.22-.02-.3,.04-.09,.13-.16,.26-.22l.56-.26c-.23-.56-.89-1.99-1.98-4.3-.59-1.25-1.03-2.14-1.31-2.68l-.83,.39c-.17-.15-.29-.31-.37-.48-.06-.12-.06-.22-.02-.31,.04-.09,.13-.16,.26-.22Z"/></g><g><g><rect class="cls-7" x="78.35" y="145.64" width="75.75" height="51.45" transform="translate(-61.85 65.71) rotate(-25.17)"/><polygon class="cls-6" points="161.44 178.54 144.17 186.65 126.51 194.95 118 176.84 104.63 148.38 140.6 167.8 161.44 178.54"/><rect class="cls-6" x="80.18" y="153.84" width="37.16" height="51.45" transform="translate(-67 59.06) rotate(-25.17)"/><polygon class="cls-7" points="92.88 210.75 109.51 202.94 126.51 194.95 118 176.84 104.63 148.38 97.44 188.09 92.88 210.75"/><polygon class="cls-3" points="139.55 131.97 122.29 140.09 104.63 148.38 109.36 158.44 116.79 174.25 131.01 147.39 139.55 131.97"/><polygon class="cls-4" points="71 164.19 87.63 156.38 104.63 148.38 109.36 158.44 116.79 174.25 87.85 167.68 71 164.19"/></g><path class="cls-9" d="M124.28,177.76h0c-1.36-.04-2.46,1.1-2.36,2.46h0c.15,2.15-2.48,3.31-3.96,1.73h0c-.93-.99-2.51-.96-3.4,.07h0c-1.41,1.63-4.09,.58-4.03-1.57h0c.04-1.36-1.1-2.46-2.46-2.36h0c-2.15,.15-3.31-2.48-1.73-3.96h0c.99-.93,.96-2.51-.07-3.4h0c-1.63-1.41-.58-4.09,1.57-4.03h0c1.36,.04,2.46-1.1,2.36-2.46h0c-.15-2.15,2.48-3.31,3.96-1.73h0c.93,.99,2.51,.96,3.4-.07h0c1.41-1.63,4.09-.58,4.03,1.57h0c-.04,1.36,1.1,2.46,2.46,2.36h0c2.15-.15,3.31,2.48,1.73,3.96h0c-.99,.93-.96,2.51,.07,3.4h0c1.63,1.41,.58,4.09-1.57,4.03Z"/><path class="cls-7" d="M109.1,169.88l3.51-1.65c.15,.12,.26,.26,.34,.42,.07,.15,.09,.27,.06,.36s-.11,.16-.24,.22l-.52,.25c.23,.56,.66,1.48,1.26,2.76l3.37-1.59c-.61-1.28-1.05-2.19-1.34-2.72l-.77,.36c-.17-.15-.29-.31-.37-.48-.05-.12-.06-.22-.02-.31,.04-.08,.13-.16,.26-.22l3.51-1.65c.15,.12,.26,.26,.34,.42,.07,.15,.09,.27,.06,.36-.03,.08-.11,.16-.24,.22l-.59,.28c.23,.56,.64,1.46,1.24,2.72,1.08,2.31,1.77,3.73,2.05,4.26l.84-.39c.15,.12,.26,.26,.34,.42,.07,.15,.09,.27,.06,.36-.03,.09-.11,.16-.24,.22l-3.54,1.66c-.16-.15-.29-.31-.37-.49-.05-.12-.06-.21-.02-.3,.04-.08,.13-.16,.26-.22l.5-.23c-.19-.46-.67-1.53-1.45-3.19l-3.37,1.59c.78,1.66,1.29,2.71,1.52,3.15l.77-.36c.15,.12,.26,.26,.34,.42,.07,.15,.09,.27,.06,.36-.03,.09-.11,.16-.24,.22l-3.53,1.66c-.17-.15-.29-.31-.38-.49-.05-.12-.06-.22-.02-.3,.04-.09,.13-.16,.26-.22l.56-.26c-.23-.56-.89-1.99-1.98-4.3-.59-1.25-1.03-2.14-1.31-2.67l-.84,.39c-.17-.15-.29-.31-.37-.48-.06-.12-.06-.22-.02-.31s.13-.16,.26-.22Z"/></g><g class="cls-13"><circle class="cls-9" cx="279.38" cy="74.1" r="19.42"/><path class="cls-2" d="M298.18,79c-2.71,10.38-12.62,16.78-23,14.07-.7-.18,2.01-7.72,4.72-18.1,2.71-10.38,3.69-19.85,4.39-19.67,10.38,2.71,16.6,13.31,13.89,23.69Z"/><path class="cls-8" d="M370.8,68.39c2.94,.77-28.07,13.87-46.35,9.11-18.27-4.76-34.41-17.8-31.74-22.84,3.09-5.82,19.41-8.18,35.67-1.29,17.31,7.33,35.91,13.34,42.41,15.03Z"/><path class="cls-5" d="M354.98,74.86c4.77,.19-20.54,7.14-36.41,1.1-16.43-6.26-28.2-17.63-25.85-21.31,1.73-2.72,13.56,2.21,29.41,7.67,15.85,5.46,29.11,12.39,32.85,12.54Z"/><path class="cls-8" d="M201.24,24.66c-2.94-.77,17.73,25.81,36,30.58s38.72,1.27,38.85-4.44c.15-6.58-12.94-16.62-30.5-18.55-18.69-2.05-37.85-5.9-44.35-7.59Z"/><path class="cls-5" d="M211.89,38.03c-4.25-2.16,14.44,16.26,31.24,18.74,17.39,2.56,33.21-1.62,32.97-5.97-.18-3.22-12.91-4.69-29.41-7.67-16.5-2.98-31.46-3.4-34.79-5.1Z"/></g><g><circle class="cls-9" cx="273.42" cy="65.62" r="19.42"/><path class="cls-2" d="M292.22,70.52c-2.71,10.38-12.62,16.78-23,14.07-.7-.18,2.01-7.72,4.72-18.1,2.71-10.38,3.69-19.85,4.39-19.67,10.38,2.71,16.6,13.31,13.89,23.69Z"/><path class="cls-8" d="M364.85,59.91c2.94,.77-28.07,13.87-46.35,9.11-18.27-4.76-34.41-17.8-31.74-22.84,3.09-5.82,19.41-8.18,35.67-1.29,17.31,7.33,35.91,13.34,42.41,15.03Z"/><path class="cls-5" d="M349.03,66.38c4.77,.19-20.54,7.14-36.41,1.1-16.43-6.26-28.2-17.63-25.85-21.31,1.73-2.72,13.56,2.21,29.41,7.67,15.85,5.46,29.11,12.39,32.85,12.54Z"/><path class="cls-8" d="M195.28,16.18c-2.94-.77,17.73,25.81,36,30.58s38.72,1.27,38.85-4.44c.15-6.58-12.94-16.62-30.5-18.55-18.69-2.05-37.85-5.9-44.35-7.59Z"/><path class="cls-5" d="M205.93,29.55c-4.25-2.16,14.44,16.26,31.24,18.74,17.39,2.56,33.21-1.62,32.97-5.97-.18-3.22-12.91-4.69-29.41-7.67-16.5-2.98-31.46-3.4-34.79-5.1Z"/></g></g></g></svg>