<?xml version="1.0" encoding="UTF-8"?><svg id="Layer_1" xmlns="http://www.w3.org/2000/svg" xmlns:xlink="http://www.w3.org/1999/xlink" viewBox="0 0 396 230"><defs><style>.cls-1,.cls-2{fill:none;}.cls-2{stroke:#ee8094;stroke-linecap:round;stroke-linejoin:round;}.cls-3{clip-path:url(#clippath);}.cls-4{fill:#001400;}.cls-5{fill:#eee78b;}.cls-6{fill:#f0e104;}.cls-7{fill:#f1d4e5;}.cls-8{fill:#f1c8e0;}.cls-9{fill:#ea91a6;}.cls-10{fill:#ebc9a4;}.cls-11{fill:#fff;}.cls-12{fill:#ffeff8;}.cls-13{fill:#ee8094;}.cls-14{fill:#6494be;}.cls-15{fill:#b8ae0c;}.cls-16{fill:#c44190;}.cls-17{fill:#a880b7;}.cls-18{fill:#bf1632;}.cls-19{fill:#d88ea9;}.cls-20{fill:#b2b2b2;}.cls-21{fill:#dcbd9a;}.cls-22{fill:#e0c09d;}.cls-23{fill:#d86b93;}.cls-24{fill:#e15a9b;}.cls-25{fill:#1d1d1b;}.cls-26{fill:gray;}.cls-27{fill:#5c87ad;}.cls-28{clip-path:url(#clippath-1);}.cls-29{clip-path:url(#clippath-4);}.cls-30{clip-path:url(#clippath-3);}.cls-31{clip-path:url(#clippath-2);}.cls-32{clip-path:url(#clippath-5);}.cls-33{fill:#c59ac4;opacity:.3;}.cls-34{fill:#e4bdd9;opacity:.4;}</style><clipPath id="clippath"><rect class="cls-1" x="167.02" y="28.47" width="109.98" height="196"/></clipPath><clipPath id="clippath-1"><rect class="cls-1" x="167.02" y="28.47" width="109.98" height="196"/></clipPath><clipPath id="clippath-2"><rect class="cls-1" x="167.02" y="28.47" width="109.98" height="196"/></clipPath><clipPath id="clippath-3"><rect class="cls-1" x="261.71" y="56.45" width="14.24" height="13.08" transform="translate(138.07 306.18) rotate(-74.92)"/></clipPath><clipPath id="clippath-4"><rect class="cls-1" x="264.74" y="122.72" width="52.83" height="53.08" transform="translate(-30.91 91.6) rotate(-16.99)"/></clipPath><clipPath id="clippath-5"><rect class="cls-1" x="264.74" y="122.72" width="52.83" height="53.08" transform="translate(-30.91 91.6) rotate(-16.99)"/></clipPath></defs><rect class="cls-12" x="-2" y="-.5" width="401" height="232.97"/><rect class="cls-33" x="-2" y="-1.53" width="33" height="231"/><rect class="cls-33" x="62" y="-.53" width="31" height="231"/><rect class="cls-33" x="124" y="-.53" width="31" height="231"/><rect class="cls-33" x="186" y="-1.53" width="31" height="231"/><rect class="cls-33" x="248" y="-.53" width="31" height="231"/><rect class="cls-33" x="310" y="-.53" width="31" height="231"/><rect class="cls-33" x="372" y="-.53" width="24" height="231"/><circle class="cls-34" cx="201" cy="115.47" r="103"/><g id="Artwork_21"><g class="cls-3"><g><g class="cls-28"><g><path class="cls-6" d="M190.3,32.98h20.83c3.64,0,6.77,2.58,7.45,6.16l15.15,78.58s0,.08-.02,.11c-5.77,10.15-4.93,6.36-7.64,7.73-.05,.03-3.27-3.96-3.27-3.9v2.49c0,3.16,1.82,10.14-3.44,8.18-5.99-2.22-37.64-2.59-41.38-.49-2.07,1.16-4.13-1.48-3.79-6.64-.26-3.11-3.06-2.3-3.12-2.28-6.84,2.44-3.07-7.46-2.48-10.49l14.27-73.32c.69-3.57,3.82-6.14,7.45-6.14"/><path class="cls-22" d="M202.37,92.62h-4c-1.29,0-2.34-1.05-2.34-2.34l.67-5.8c0-1.29,.38-1.67,1.67-1.67h4c1.29,0,1.45,.16,1.45,1.45l.89,6.02c0,1.29-1.05,2.34-2.34,2.34"/><path class="cls-10" d="M191.42,81.7l-.35-.27c-.15-.12-.31-.23-.47-.34-3.26-2.14-4.82-5.41-6.44-9-1.2-2.67-.97-5.38-1.19-7.59-.07-.7-.13-1.48,0-2.17l1.87-15.87c.86-6.28,2.74-16.09,9.08-16.09h14.57c6.34,0,7.94,9.69,8.71,16.07,.02,.16,.03,.33,.04,.49l.76,18.88c0,.14,.02,.29,.03,.43,.32,3.05-.52,5.03-1.66,8-.28,.72,.49-.95,0,0l-.1,.21c-.91,1.99-2.15,3.81-3.65,5.4l-.02,.02c-.37,.45-1.43,1.1-1.91,1.43-1.04,.71-3.41,2.28-3.83,2.51-5.86,3.16-8.66,3.29-13.74-.99-.34-.25-.69-.48-1.06-.68-.22-.13-.43-.28-.64-.44"/><path class="cls-6" d="M214.68,30.47c3.84,2.7,4.59,11.31,3.07,14.39-2.41,4.9-13.05-8.9-12.16-2.35,.62,4.54-7.36-11.3-4.41-12.95,2.77-1.54,9.87-1.65,13.5,.9"/><path class="cls-6" d="M190.44,29.45c-4.07,.92-8.26,8.14-6.51,10.51s9.48,.57,12.84-1.91c3.36-2.47,5.56-7.47,2.92-8.78-2.48-1.23-5.18-.75-9.25,.17"/><path class="cls-10" d="M212.23,147.93h-22.74c-2.04,0-3.69-1.65-3.69-3.69h0v-49.47c0-2.04,1.65-3.69,3.69-3.69h22.74c2.04,0,3.69,1.65,3.69,3.69h0v49.47c0,2.04-1.65,3.69-3.69,3.69h0"/><path class="cls-10" d="M202.48,213.78l-3,.03c-2.04,0-5.26-.3-5.26-2.68l-6.43-63.88c0-2.38,6.21-2.96,8.25-2.96h8.67c2.04,0,8.4,0,9.37,3.41l-6.49,64.11c0,2.38-3.08,1.96-5.11,1.96"/><path class="cls-24" d="M215.27,124.53h-29.22c-.33,0-.61-.27-.6-.61,0-.02,0-.04,0-.05,.12-1.22,.36-3.84,.36-5.36v-23.73c0-2.04,1.65-3.69,3.68-3.69h22.75c2.04,0,3.69,1.65,3.69,3.69h0v29.1c0,.36-.29,.65-.65,.65"/><line class="cls-1" x1="200.68" y1="158.99" x2="200.94" y2="213.8"/><rect class="cls-22" x="200.43" y="158.99" width=".77" height="54.8" transform="translate(-.88 .95) rotate(-.27)"/><path class="cls-21" d="M201.31,129.39c0,.69-.28,1.25-.62,1.25s-.62-.56-.62-1.25,.28-1.25,.62-1.25,.62,.56,.62,1.25"/><path class="cls-13" d="M190.81,136.74l-5.15-5.86c-.13-.14-.12-.35,.02-.48,.14-.13,.35-.12,.48,.02h0l5.15,5.87c.13,.14,.13,.35,0,.48-.14,.13-.35,.13-.48,0l-.02-.02"/><path class="cls-2" d="M190.81,136.74l-5.15-5.86c-.13-.14-.12-.35,.02-.48,.14-.13,.35-.12,.48,.02h0l5.15,5.87c.13,.14,.13,.35,0,.48-.14,.13-.35,.13-.48,0l-.02-.02h0Z"/><path class="cls-13" d="M210.92,137.04l5.15-5.87c.13-.14,.12-.35-.02-.48-.14-.13-.35-.12-.48,.02h0l-5.15,5.88c-.12,.14-.11,.36,.03,.48,.14,.12,.36,.11,.48-.03"/><path class="cls-2" d="M210.92,137.04l5.15-5.87c.13-.14,.12-.35-.02-.48-.14-.13-.35-.12-.48,.02h0l-5.15,5.88c-.12,.14-.11,.36,.03,.48,.14,.12,.36,.11,.48-.03h0Z"/><polygon class="cls-14" points="217.6 158.99 183.98 158.99 185.8 136.64 215.92 136.64 217.6 158.99"/><path class="cls-10" d="M183.67,120.52c0,12.44,1.64,22.52-1.63,22.52s-5.92-10.08-5.92-22.52,3-24,5.92-22.53c6.55,3.31,1.63,10.08,1.63,22.53"/><path class="cls-24" d="M178.63,102.03c-2.59-1.88-.47-3.11,1.57-5.91s7.86-6.39,10.45-4.51-2.04,10.84-4.08,13.64-5.34-1.34-7.93-3.22"/><path class="cls-10" d="M237.93,98.23c12.27-2.04,21.95-5.31,22.49-2.09s-8.98,7.49-21.25,9.53c-12.27,2.04-24.16,.98-23.19-2.14,2.19-7,9.68-3.26,21.95-5.3"/><path class="cls-24" d="M222.63,100.51c2.29-2.23,.02-3.14-2.39-5.63s-8.69-5.21-10.98-2.97c-2.29,2.24,3.57,10.43,5.99,12.92,2.42,2.48,5.1-2.09,7.39-4.32"/><rect class="cls-19" x="249.13" y="92.73" width="4.84" height="10.69" transform="translate(-18.4 93.36) rotate(-20.3)"/><path class="cls-19" d="M185.35,149.14c1.14,1.74,2.89,2.6,3.91,1.93s.92-2.62-.22-4.35-2.89-2.6-3.91-1.93-.92,2.62,.22,4.35"/><path class="cls-22" d="M204.71,90.83h-8.67c0,.99,1.94,1.79,4.33,1.79s4.33-.8,4.33-1.79"/><path class="cls-16" d="M218.77,223.12c1.39,2.02-9.33-.25-13.48-3.02s-6.4-6.67-5.04-8.7c1.36-2.04,6.28-2.02,9.97,1.32,4.4,3.98,5.47,5.91,8.55,10.4"/><path class="cls-16" d="M182.01,223.12c-1.39,2.02,9.33-.25,13.48-3.02,4.15-2.77,6.4-6.67,5.04-8.7s-6.28-2.02-9.97,1.32c-4.4,3.98-5.47,5.91-8.55,10.4"/><polygon class="cls-16" points="207.59 211.82 194.22 211.13 193.09 199.92 209.07 199.92 207.59 211.82"/><polygon class="cls-16" points="198.12 223.89 195.56 213.47 200.82 213.24 198.12 223.89"/><polygon class="cls-16" points="202.62 224.47 200.06 214.05 205.32 213.81 202.62 224.47"/><line class="cls-1" x1="201.14" y1="199.93" x2="200.48" y2="215.6"/><polygon class="cls-24" points="200.09 215.58 200.76 199.9 201.53 199.95 200.86 215.62 200.09 215.58"/><path class="cls-22" d="M206.65,177.32c.12-.61,.71-.3,1.08,.8,.57,1.74,.14,2.82-.27,2.96-.49,.16-1.23-.99-.59-1.92,.28-.41-.31-1.34-.22-1.84"/><path class="cls-22" d="M196.34,177.37c-.11-.61-.71-.3-1.08,.8-.57,1.74-.13,2.82,.27,2.96,.49,.16,1.23-.99,.59-1.92-.28-.41,.31-1.34,.22-1.84"/><polygon class="cls-27" points="216.46 143.78 207.05 136.67 215.77 136.64 216.46 143.78"/><polygon class="cls-27" points="185.21 143.98 194.44 136.64 185.72 136.82 185.21 143.98"/><path class="cls-19" d="M179.66,156.8c-3.47-.82-7.93-4.99-6.19-12.31,1.55-6.54,3.38-8.89,6.94-8.98,7.37-.18,6.33,8.8,6.18,15.52-.15,6.72-3.07,6.69-6.93,5.78"/><rect class="cls-19" x="175.04" y="134.87" width="10.69" height="4.84" transform="translate(-2.81 3.78) rotate(-1.19)"/><path class="cls-27" d="M199.38,139.03c0-.72,.58-1.3,1.3-1.3,.72,0,1.3,.58,1.3,1.3,0,.72-.58,1.3-1.3,1.3h0c-.72,0-1.3-.58-1.3-1.3"/><path class="cls-11" d="M184.99,60.44c-2.23-3.16-1.48-7.52,1.68-9.75h0c3.16-2.23,9.38-2.73,11.61,.43,2.23,3.16-.38,8.77-3.54,11.01-3.16,2.23-7.52,1.47-9.75-1.68h0"/><path class="cls-11" d="M217.57,58.67c-1.13,3.7-5.04,5.78-8.73,4.65-3.7-1.13-7.91-5.74-6.78-9.43s7.16-5.08,10.86-3.95c3.69,1.13,5.78,5.04,4.65,8.73"/><path class="cls-17" d="M202.06,53.89s3.02,1.9,7.81,1.09c4.96-.84,8.01,.5,8.01,.5,.12-4.27-4.15-6.59-7.98-6.59s-8.41,.36-7.84,5"/><path class="cls-17" d="M184.49,53.19s3.44-.94,7.19-.94,7.27,.34,7.27,.34c.16-2.31-4.2-4.28-7.27-3.7-2.99,.56-6.23,1.39-7.19,4.31"/><path class="cls-25" d="M202.06,53.89s3.02,1.9,7.81,1.09c4.96-.84,8.01,.5,8.01,.5-1.98-2.95-6.95-.92-10.78-.92s-5.56-3.01-5.04-.66"/><path class="cls-25" d="M184.49,53.19s3.44-.94,7.19-.94,7.27,.34,7.27,.34c0-1.17-4.17-.96-7.53-.86-3.05,.09-6.48,0-6.92,1.46"/></g></g><path class="cls-7" d="M188.78,99.27h4.21v1.11h-1.41v3.38h-1.39v-3.38h-1.41v-1.11Z"/><path class="cls-7" d="M193.63,99.27h1.39v1.57h1.51v-1.57h1.39v4.49h-1.39v-1.81h-1.51v1.81h-1.39v-4.49Z"/><path class="cls-7" d="M201.6,103.02h-1.57l-.22,.74h-1.41l1.69-4.49h1.51l1.69,4.49h-1.46l-.22-.74Zm-.29-.97l-.5-1.62-.49,1.61h.99Z"/><path class="cls-7" d="M202.98,99.27h4.22v1.11h-1.42v3.38h-1.39v-3.38h-1.41v-1.11Z"/><path class="cls-7" d="M207.58,102.27l1.32-.08c.01,.18,.07,.35,.17,.49,.15,.18,.38,.29,.61,.27,.16,.01,.33-.04,.46-.14,.1-.08,.16-.2,.16-.32,0-.12-.06-.24-.15-.31-.1-.09-.34-.18-.71-.26-.61-.14-1.04-.32-1.3-.55-.26-.21-.4-.53-.39-.87,0-.23,.07-.46,.2-.65,.15-.22,.36-.39,.6-.48,.35-.13,.72-.19,1.1-.18,.57,0,1.01,.11,1.31,.32s.48,.55,.54,1.02l-1.31,.08c-.02-.34-.3-.6-.64-.58h-.04c-.13,0-.26,.03-.36,.11-.08,.06-.12,.15-.12,.25,0,.08,.04,.15,.1,.19,.07,.06,.22,.11,.47,.16,.61,.13,1.04,.26,1.3,.4,.23,.11,.43,.28,.57,.5,.12,.2,.18,.43,.18,.66,0,.28-.08,.56-.24,.79-.16,.25-.4,.44-.67,.55-.34,.14-.71,.2-1.08,.19-.76,0-1.29-.15-1.59-.44-.29-.3-.47-.69-.5-1.11Z"/><path class="cls-7" d="M193.32,106.79h1.39v1.57h1.52v-1.57h1.39v4.49h-1.39v-1.81h-1.52v1.81h-1.39v-4.49Z"/><path class="cls-7" d="M198.36,109.04c0-.73,.2-1.3,.61-1.71,.41-.41,.98-.61,1.7-.61,.75,0,1.32,.2,1.73,.6,.4,.4,.61,.96,.61,1.69,.02,.44-.07,.89-.26,1.29-.17,.33-.44,.6-.77,.78-.38,.2-.81,.3-1.25,.28-.43,.02-.86-.07-1.26-.24-.34-.17-.62-.44-.81-.77-.22-.4-.32-.85-.3-1.31Zm1.39,0c0,.45,.08,.78,.25,.98,.36,.38,.97,.4,1.35,.03l.03-.03c.16-.19,.25-.54,.25-1.04,0-.42-.09-.73-.26-.93-.17-.2-.43-.3-.69-.29-.26,0-.51,.1-.67,.3-.17,.2-.25,.53-.25,.98h0Z"/><path class="cls-7" d="M203.29,106.79h4.21v1.11h-1.41v3.38h-1.39v-3.38h-1.41v-1.11Z"/><path class="cls-7" d="M208.05,106.79h1.33v1.02l-.26,2.05h-.83l-.25-2.05v-1.02Zm.05,3.39h1.24v1.1h-1.24v-1.1Z"/><g class="cls-31"><g><path class="cls-25" d="M218.58,52.63l-1.12,2.38-.95-.7,1.93-1.79s.09-.03,.13,0c.02,.03,.03,.06,.01,.1"/><path class="cls-25" d="M216.85,52.55l-.31,1.91-.89-.34,1.04-1.63s.08-.05,.12-.03c.03,.02,.04,.05,.04,.09"/><path class="cls-25" d="M215.42,52.22l.28,1.92-.96-.06,.5-1.87s.06-.08,.11-.06c.03,0,.06,.04,.06,.07"/><path class="cls-25" d="M214.44,52.6l.28,1.92-.96-.06,.5-1.87s.06-.08,.11-.06c.04,0,.06,.04,.07,.07"/><path class="cls-25" d="M183.75,50.66l1.14,2.37,.94-.7-1.95-1.78s-.09-.03-.12,0c-.03,.03-.03,.07-.02,.1"/><path class="cls-25" d="M185.48,50.57l.32,1.91,.89-.35-1.05-1.63s-.08-.05-.12-.03c-.03,.02-.05,.05-.04,.09"/><path class="cls-25" d="M186.9,50.23l-.26,1.92,.95-.06-.52-1.87s-.06-.08-.11-.06c-.04,0-.06,.04-.07,.08"/><path class="cls-25" d="M187.88,50.6l-.26,1.92,.95-.07-.52-1.87s-.06-.08-.11-.06c-.04,0-.06,.04-.07,.08"/><path class="cls-4" d="M193.53,55.47c0-.59,.48-1.07,1.07-1.07s1.07,.48,1.07,1.07-.48,1.07-1.07,1.07h0c-.59,0-1.07-.48-1.07-1.07h0"/><path class="cls-4" d="M204.71,57.21c0-.59,.48-1.07,1.07-1.07s1.07,.48,1.07,1.07-.48,1.07-1.07,1.07h0c-.59,0-1.07-.48-1.07-1.07h0"/><path class="cls-5" d="M214.98,48.41c0,.31-2.54-1.88-5.41-1.88s-5.69,.75-5.69,.44c0-1.43,2.82-1.43,5.69-1.43s5.41,2.57,5.41,2.88"/><path class="cls-22" d="M201.6,46.09c.22,1.29,.44,2.6,.38,3.92-.06,1.29-.47,2.51-.79,3.74-.99,3.78-.89,7.76,.31,11.48,.11,.34,.64,.19,.53-.15-.76-2.36-1.07-4.84-.93-7.31,.07-1.22,.26-2.43,.56-3.62,.31-1.25,.74-2.47,.85-3.76,.13-1.49-.13-2.98-.38-4.44-.04-.15-.19-.23-.34-.19-.15,.04-.23,.19-.19,.34"/><path class="cls-22" d="M203.03,64.46c.06,.38,.12,.77,.19,1.15l.09,.55c.02,.08,.03,.16,.04,.24,0,.01,0,.05,0,.05,0-.03,0,0,0,0-.08,.02-.16,.03-.24,.03-.14,0-.27,0-.41,.02-.29,.06-.57,.27-.55,.59,0,.15,.12,.27,.27,.27,.15,0,.27-.12,.27-.27,0-.05,0-.03-.01,0s.02-.01,0,0c.04-.02,.08-.04,.12-.05,.11-.02,.22-.02,.33-.01,.3,0,.63-.1,.74-.42,.06-.18,.01-.37-.01-.55s-.06-.38-.09-.58c-.06-.39-.13-.78-.19-1.18-.04-.15-.19-.23-.34-.19-.14,.04-.23,.19-.19,.34"/><path class="cls-22" d="M200.76,67.33h-1.24c-.15,0-.27,.12-.27,.27s.12,.27,.27,.27h1.24c.15,0,.27-.12,.27-.27s-.12-.27-.27-.27"/><path class="cls-22" d="M198.93,67.24c0-.24,0-.48-.01-.73,0-.1-.05-.19-.14-.24-.26-.13-.47-.04-.73,.05-.14,.06-.31,.01-.39-.12-.29-.36-.02-.87,.16-1.23,.16-.31-.31-.59-.47-.28-.27,.53-.55,1.19-.19,1.75,.14,.24,.39,.41,.67,.46,.14,.02,.28,0,.42-.05,.06-.02,.12-.05,.18-.07l.06-.02s.05,0,.02,0c-.05-.08-.09-.16-.14-.24,0,.24,0,.48,.01,.73,0,.35,.56,.35,.55,0"/><path class="cls-7" d="M194.31,74.83s3.22-.68,5.56-.57c2.51,.11,6.09,.97,6.09,.97,0,0-3.92,2.92-6.39,2.72-2.21-.18-5.27-3.11-5.27-3.11"/><path class="cls-7" d="M194.75,75.25l4.94,1.01c.15,.04,.29-.05,.34-.19,.04-.15-.05-.3-.19-.34l-4.94-1.01c-.15-.04-.3,.05-.34,.19-.04,.15,.05,.3,.19,.34"/><path class="cls-7" d="M194.74,75.23c1.39,.21,2.65,1.01,4.08,.99,.35,0,.35-.55,0-.55-1.38,.01-2.6-.77-3.93-.97-.15-.04-.29,.05-.34,.19-.04,.15,.05,.3,.19,.34"/><path class="cls-7" d="M196.39,74.48s1.87-.61,2.49-.63c.67-.01,1.43,.59,1.43,.59,0,0-.79,.56-1.45,.55-.59-.01-2.47-.51-2.47-.51"/><path class="cls-7" d="M199.93,74.23s.8-.46,1.42-.38c.67,.09,2.27,.88,2.27,.88,0,0-1.81,.35-2.46,.23-.58-.1-1.23-.74-1.23-.74"/><path class="cls-8" d="M195.06,75.23c2.73,.11,5.47,.24,8.2,.33,.76,.03,1.53,.02,2.29-.05,.14-.02,.45-.19,.42-.28-.04-.11-.42-.12-.56-.1-.65,.06-1.3,.07-1.95,.05-.68-.02-1.36-.15-2.03-.08-1.32,.14-2.65,.22-4.08-.16-.74-.2-2.12-.1-2.88-.13-.33-.01,.26,.43,.59,.44"/><path class="cls-11" d="M203.49,76.1c-1.28,1.15-2.43,1.1-2.74,.76"/><path class="cls-10" d="M181.64,61.23c-.97,.02-1.95-2.08-1.99-3.89-.04-1.94,1-4.17,1.99-4.15s1.91,2.3,1.86,4.21c-.05,1.71-.9,3.82-1.86,3.83"/><path class="cls-10" d="M219.8,64.09c-.97,.02-1.95-2.08-1.99-3.89-.04-1.94,1-4.17,1.99-4.15s1.91,2.3,1.86,4.21c-.05,1.71-.9,3.82-1.86,3.83"/><path class="cls-5" d="M185.3,48.41c0,.31,2.54-1.88,5.41-1.88s5.69,.75,5.69,.44c0-1.43-2.82-1.43-5.69-1.43s-5.41,2.57-5.41,2.88"/><path class="cls-6" d="M187.26,42.91c0,2.47,2.22,9.66-1.52,5.24-.86-1.02-1.41-2.77-1.41-5.24s1.31-4.47,2.93-4.47,0,2,0,4.47"/><path class="cls-23" d="M220.47,63.36c0,.63-.33,1.13-.73,1.13s-.73-.51-.73-1.13,.33-1.13,.73-1.13,.73,.51,.73,1.13"/><path class="cls-23" d="M182.25,61.19c0,.63-.33,1.13-.73,1.13s-.73-.51-.73-1.13,.33-1.13,.73-1.13,.73,.51,.73,1.13"/><path class="cls-20" d="M258.01,105.76h0c-.93-.25-1.48-1.21-1.23-2.14h0l5.67-21.04c.25-.93,1.21-1.48,2.14-1.23,.93,.25,1.48,1.21,1.23,2.14h0l-5.67,21.04c-.25,.93-1.21,1.48-2.14,1.23h0"/><path class="cls-22" d="M205.97,73.42c1.42,.62,1.61,2.09,1.32,2.75"/><path class="cls-19" d="M270.22,92.38c.36,3.55-2.12,9.13-9.61,9.88-6.69,.68-9.51-.28-10.76-3.62-2.59-6.9,6.24-8.86,12.64-10.92,6.4-2.06,7.33,.71,7.73,4.66"/><path class="cls-19" d="M261.64,88.61c.66-2.22,.15-4.33-1.16-4.72s-2.9,1.09-3.56,3.31-.14,4.33,1.16,4.72,2.9-1.09,3.56-3.31"/><path class="cls-26" d="M264.36,81.14c-.63-1.6-1.04-3.27-1.22-4.98-.18-1.71-.12-3.43,.16-5.13,.16-.96,.4-1.91,.71-2.84,.11-.34-.42-.48-.53-.15-.56,1.67-.88,3.41-.97,5.16-.09,1.76,.06,3.52,.44,5.24,.21,.97,.51,1.92,.87,2.84,.04,.14,.19,.23,.34,.19,.15-.04,.23-.19,.19-.34"/><path class="cls-26" d="M265.37,81.69c1.35-1.17,2.7-2.35,3.84-3.74,1.12-1.36,2.04-2.92,2.45-4.66,.23-.96,.28-1.96,.15-2.95-.04-.15-.19-.23-.34-.19-.15,.04-.23,.19-.19,.34,.24,1.65-.19,3.34-.95,4.81-.78,1.53-1.92,2.83-3.15,4.02-.71,.68-1.45,1.33-2.2,1.98-.11,.11-.1,.28,0,.39,.11,.1,.28,.1,.38,0"/><path class="cls-26" d="M264.9,81.39c-.25-3.18-.5-6.44,.13-9.6,.17-.88,.42-1.74,.74-2.57,.04-.15-.05-.3-.19-.34-.15-.04-.3,.05-.34,.19-1.17,3.04-1.25,6.35-1.07,9.56,.05,.92,.12,1.84,.19,2.75,0,.15,.12,.27,.27,.27,.15,0,.27-.12,.27-.27"/><path class="cls-26" d="M265.03,81.61c1.05-1.23,1.91-2.61,2.54-4.1,.64-1.51,1.04-3.1,1.2-4.73,.09-.9,.09-1.82,.02-2.72,0-.15-.12-.27-.27-.27-.15,0-.27,.12-.27,.27,.13,1.56,.02,3.14-.34,4.67-.35,1.53-.94,3-1.73,4.36-.44,.76-.96,1.47-1.53,2.14-.1,.11-.1,.28,0,.39,.11,.11,.28,.11,.39,0"/><path class="cls-26" d="M264.75,81.26c.55-3.02,1.18-6.03,1.89-9.02,.2-.84,.41-1.69,.62-2.53,.09-.34-.44-.49-.53-.15-.76,2.98-1.43,5.97-2.03,8.99-.17,.85-.33,1.7-.48,2.56-.04,.15,.05,.3,.19,.34,.15,.04,.3-.05,.34-.19"/></g></g><g class="cls-30"><g><path class="cls-13" d="M273.99,68.99c-.49,1.81-3.52,1.82-7.01,.88s-6.01-2.86-5.62-4.28c.6-2.23,3.42-1.36,7.01-.88s6,2.86,5.62,4.28"/><path class="cls-13" d="M274.05,65.79c-.76,1.32-3.22,2.01-6.29,1.18s-4.78-2.76-4.85-4.19c-.07-1.51,3.22-2.01,6.29-1.18s5.61,2.87,4.85,4.18"/><path class="cls-13" d="M273.73,62.82c.18,1.52-2.71,2.15-5.17,1.49s-4.4-2.5-3.72-3.88c.69-1.41,2.71-2.15,5.17-1.49,2.46,.66,3.56,2.52,3.72,3.88"/><path class="cls-13" d="M272.3,59.43c-.2,.73-1.36,1.05-2.61,.71s-2.55-1.55-1.9-1.93c2.76-1.57,.36-4.03,2.62-1.09,.79,1.02,2.08,1.57,1.88,2.3"/><path class="cls-9" d="M271.85,59.27c-.02,.26-.46,.28-.9,.24s-5.54-1.29-1.11-.57c1.07,.17-1.84-4.86,1.17-.49,.25,.36,.86,.56,.84,.81"/><path class="cls-9" d="M273.37,69.51c-.56,.36-3.06,.73-6.22-.12-3.16-.85-4.81-2.43-5.22-2.96-1.25-1.59,2.59,.57,5.75,1.42s7.4,.57,5.69,1.66"/><path class="cls-9" d="M273.68,66.33c-.59,.55-3.29,1.01-6.34,.24s-3.91-2.33-4.26-3.02c-.91-1.8,2.24,.53,5.35,1.01,3.06,.47,6.74,.37,5.25,1.76"/><path class="cls-9" d="M273.35,63.78c-.49,.65-1.76,.04-4.81-.73s-3.66-.8-3.77-1.56c-.36-2.43,1.37-.01,4.48,.46,3.06,.47,5.54-.07,4.1,1.83"/><path class="cls-8" d="M271.54,59.24c0,.11-.19,.13-.37,.12s-2.32-.42-.47-.21c.44,.05-.86-1.97,.47-.23,.11,.14,.37,.21,.37,.32"/><path class="cls-7" d="M267.29,66.32c.16,.12-1.77-.57-2.54-1.08s-.86-1.56-.92-1.73c-.16-.46,.48,.69,1.27,1.18,1.12,.7,1.67,1.24,2.2,1.64"/><path class="cls-7" d="M273.33,69.17c-.15,.08-.65,.58-1.54,.5-.62-.06-1.24-.16-1.84-.32-.6-.18,.88-.24,1.76-.15s2.15-.32,1.62-.03"/><path class="cls-8" d="M273.41,62.78c.14,.13,0,.52-.32,.88s-.98,.16-1.13,.04,.43-.02,.75-.38,.56-.67,.7-.54"/></g></g></g></g></g><g><g id="Artwork_28"><g class="cls-29"><g class="cls-32"><g><path class="cls-15" d="M315,143.05c4.12,13.48-3.47,27.74-16.95,31.86-13.48,4.12-27.74-3.47-31.86-16.95-4.12-13.48,3.47-27.74,16.95-31.86,13.48-4.12,27.74,3.47,31.86,16.95h0"/><path class="cls-6" d="M316.11,140.57c4.12,13.48-3.48,27.74-16.96,31.86-13.48,4.12-27.74-3.48-31.86-16.96-4.11-13.48,3.47-27.74,16.95-31.86,13.48-4.12,27.75,3.47,31.86,16.95h0"/><path class="cls-11" d="M290.39,128.87c-1.25-.65-.86-2.41,1.21-3.04,3.27-1,5.59,.89,6.01,2.24,.5,1.63-1.52,3.44-3.62,.97-.93-1.09-2.56,.37-3.59-.17"/><path class="cls-11" d="M300.3,130.97c-1.11-1.63,4.25,.42,7.06,1.58,3.9,1.61,4.69,9.31,3.04,10.4-1.22,.8-1.44-3.87-4.66-7.07-2.27-2.26-4.53-3.57-5.45-4.91"/></g></g></g></g><path class="cls-18" d="M276.29,153.46c.41,.1,.8,.24,1.18,.43,.38,.18,.66,.51,.77,.92,.19,.55,.11,1.16-.22,1.64-.37,.5-.9,.86-1.5,1.02-.35,.12-.73,.17-1.1,.15-.36-.02-.72-.01-1.08,.03-.06-.21-.16-.48-.26-.82s-.2-.65-.3-.9c0-.02,.01-.04,.06-.07,.04-.03,.08-.05,.12-.06,.04-.01,.08-.02,.12-.02,.04,0,.07,.01,.08,.03,.24,.45,.62,.82,1.08,1.06,.45,.23,.83,.29,1.17,.19,.27-.05,.5-.21,.65-.44,.1-.21,.12-.45,.04-.67-.1-.32-.36-.56-.69-.65-.36-.12-.75-.23-1.15-.33-.41-.09-.81-.23-1.19-.42-.37-.17-.65-.49-.76-.88-.17-.51-.09-1.08,.19-1.53,.29-.49,.79-.84,1.5-1.06,.28-.09,.56-.13,.85-.13,.27,0,.53,0,.8-.03,.06,.21,.16,.46,.27,.77s.21,.55,.29,.75c0,.02-.01,.04-.06,.07-.03,.02-.07,.04-.11,.06-.04,.01-.08,.02-.13,.02-.03,0-.07,0-.09-.03-.2-.36-.47-.67-.8-.91-.26-.19-.59-.24-.9-.14-.24,.06-.44,.2-.57,.41-.11,.18-.14,.41-.07,.61,.1,.3,.35,.53,.66,.6,.35,.12,.74,.23,1.17,.33Z"/><path class="cls-18" d="M285.53,150.22s0,.06-.04,.1c-.04,.04-.09,.07-.14,.08-.03,0-.07,.01-.1,.02-.04,0-.07,0-.08,0-.23-.35-.54-.64-.89-.87-.42-.29-.76-.4-1.02-.31l-.12,.04c-.1,.02-.2,.08-.26,.17-.04,.09-.05,.19,0,.28l1.24,4.07c.04,.19,.16,.36,.32,.47,.14,.08,.38,.07,.73,.01,.02,0,.04,.01,.07,.06,.02,.03,.04,.07,.06,.11,.01,.04,.02,.08,.01,.13,0,.05,0,.08-.03,.08-.28,.08-.56,.17-.86,.24s-.57,.15-.83,.23-.54,.17-.82,.27-.57,.2-.85,.28c-.02,0-.04-.01-.07-.05-.02-.04-.04-.07-.06-.11,0-.04-.01-.08-.01-.12,0-.05,0-.08,.02-.09,.33-.14,.53-.28,.6-.42,.08-.18,.08-.38,0-.57l-1.25-4.08c-.02-.1-.07-.18-.16-.24-.1-.03-.22-.03-.32,.02l-.07,.02c-.24,.07-.47,.34-.71,.8-.22,.41-.36,.85-.4,1.31,0,.02-.02,.04-.05,.05-.03,.01-.06,.02-.09,.03-.05,.02-.11,.02-.16,.01-.05,0-.09-.03-.1-.06-.03-.3-.08-.67-.14-1.11-.06-.44-.12-.8-.17-1.08,.32-.05,.65-.12,.96-.2,.43-.11,1.1-.3,2.02-.58,.78-.24,1.43-.45,1.94-.63,.34-.11,.68-.25,1.01-.4,.1,.27,.22,.59,.37,.96,.13,.38,.29,.74,.43,1.1Z"/><path class="cls-18" d="M294.1,151.73s.02,.08,.01,.13c0,.05,0,.08-.03,.08-.28,.08-.55,.17-.84,.23s-.55,.14-.78,.21c-.26,.08-.55,.17-.84,.28s-.59,.2-.87,.29c-.02,0-.04-.01-.07-.05-.03-.04-.05-.08-.06-.12-.01-.04-.02-.08-.02-.12,0-.05,0-.08,.02-.09,.19-.06,.36-.15,.51-.27,.07-.08,.09-.19,.06-.3-.02-.06-.05-.11-.08-.16-.04-.06-.08-.12-.12-.17l-.42-.53-1.81,.55-.06,.56c0,.08-.01,.17-.01,.25,0,.07,0,.13,.03,.19,.03,.11,.09,.2,.19,.26,.09,.05,.28,.04,.58-.04,.02,0,.04,.02,.06,.06,.02,.04,.03,.07,.04,.11,.01,.04,.02,.09,.02,.13,0,.05-.01,.07-.03,.08-.25,.08-.44,.13-.58,.16-.19,.04-.37,.09-.56,.15-.17,.05-.33,.11-.49,.17-.14,.06-.3,.12-.5,.18-.02,0-.04-.01-.07-.06-.02-.04-.04-.07-.05-.11,0-.04,0-.08,0-.12,.01-.05,.03-.09,.04-.1,.21-.07,.39-.21,.51-.4,.12-.24,.2-.5,.23-.77l.66-5.47s.03-.04,.08-.08c.05-.03,.1-.06,.16-.07,.06-.02,.12-.03,.18-.03,.06,0,.1,0,.11,.02l3.38,4.24c.14,.21,.34,.39,.56,.51,.23,.09,.48,.1,.72,.04,.02,0,.04,.01,.08,.06,.03,.03,.05,.07,.06,.11Zm-3.82-.94l-1.3-1.67-.18,2.13,1.48-.45Z"/><path class="cls-18" d="M302.19,149.26s0,.09,0,.13c0,.05-.02,.08-.03,.09-.16,.05-.37,.11-.64,.17s-.45,.11-.55,.14c-.14,.04-.32,.1-.54,.19s-.4,.14-.54,.19l-1.76-1.87c-.11-.13-.26-.22-.42-.26-.18-.03-.35,0-.52,.05l.47,1.55c.04,.19,.14,.35,.29,.48,.12,.08,.35,.08,.69,.02,.02,0,.04,.01,.07,.06,.02,.03,.04,.07,.06,.11,.01,.04,.02,.08,.01,.13,0,.05,0,.08-.03,.08-.28,.09-.55,.17-.82,.23s-.54,.14-.8,.22-.54,.16-.82,.27-.56,.19-.84,.28c-.02,0-.04-.01-.07-.05-.03-.04-.05-.08-.06-.12,0-.04-.01-.08-.01-.12,0-.05,0-.08,.02-.09,.32-.14,.52-.28,.59-.42,.08-.18,.08-.38,0-.57l-1.15-3.77c-.04-.19-.15-.36-.32-.47-.14-.07-.38-.07-.72-.01-.02,0-.04-.02-.07-.06-.05-.07-.08-.15-.07-.24,0-.05,.01-.07,.03-.08,.28-.09,.57-.17,.87-.24s.58-.16,.85-.24,.5-.15,.7-.24,.44-.16,.72-.25c.93-.28,1.65-.34,2.16-.15,.51,.18,.82,.48,.95,.89,.12,.33,.12,.7,0,1.03-.16,.34-.42,.63-.74,.82l1.78,1.61c.14,.14,.31,.25,.5,.32,.21,.05,.43,.04,.64,0,.02,0,.04,.02,.06,.06,.02,.04,.04,.08,.05,.12Zm-4.02-3.25c-.14-.44-.31-.74-.54-.89-.25-.16-.56-.19-.83-.08-.15,.02-.29,.11-.37,.24-.04,.15-.02,.31,.03,.45l.59,1.95s.09-.01,.16-.03,.13-.03,.19-.05c.41-.12,.67-.31,.79-.54,.12-.24,.11-.59-.03-1.05h0Z"/><path class="cls-18" d="M308.14,143.31s0,.06-.04,.1c-.04,.04-.09,.07-.14,.08-.03,0-.07,.01-.1,.02-.04,0-.07,0-.08,0-.23-.35-.54-.64-.89-.87-.42-.29-.76-.4-1.02-.31l-.13,.04c-.1,.02-.2,.08-.26,.17-.04,.09-.05,.19,0,.28l1.24,4.07c.04,.19,.16,.36,.32,.47,.14,.08,.38,.07,.73,.01,.02,0,.04,.01,.07,.06,.02,.03,.04,.07,.06,.11,.01,.04,.02,.08,.01,.13,0,.05,0,.08-.03,.08-.28,.08-.56,.17-.86,.24s-.57,.15-.83,.23-.54,.17-.82,.27-.57,.2-.85,.28c-.02,0-.04-.01-.07-.05-.02-.04-.04-.07-.06-.11,0-.04-.01-.08-.01-.12,0-.05,0-.08,.02-.09,.33-.14,.53-.28,.6-.42,.08-.18,.08-.38,0-.57l-1.25-4.08c-.02-.1-.07-.18-.16-.24-.1-.03-.22-.03-.32,.02l-.07,.02c-.24,.07-.47,.34-.71,.8-.22,.41-.36,.85-.4,1.31,0,.02-.02,.04-.05,.05-.03,.01-.06,.02-.09,.03-.05,.02-.11,.02-.16,.01-.05,0-.09-.03-.1-.06-.03-.3-.08-.67-.14-1.11-.06-.44-.12-.8-.17-1.08,.32-.05,.65-.12,.96-.2,.43-.11,1.1-.3,2.02-.58,.78-.24,1.43-.45,1.94-.63,.34-.11,.68-.25,1.01-.4,.1,.27,.22,.59,.37,.96,.14,.38,.29,.74,.43,1.09Z"/></g></svg>