<?xml version="1.0" encoding="UTF-8"?><svg id="Layer_1" xmlns="http://www.w3.org/2000/svg" viewBox="0 0 109.5 109"><defs><style>.cls-1{fill:#f3f4f4;}.cls-2{fill:#e48b68;}</style></defs><rect class="cls-2" x="6.56" y="7" width="95" height="95" rx="15" ry="15"/><g><path class="cls-1" d="M37.62,59.76l-8.27,14.42h-8.21l12.94-20.47-12.2-19.5h8.55l7.81,13.57h.23l7.58-13.57h8.15l-12.14,19.44,12.94,20.52h-8.55l-8.61-14.42h-.23Z"/><path class="cls-1" d="M76.49,30.97h6.95v43.21h-5.42l-1.2-2.85h-.23c-1.03,1.31-3.76,3.42-7.98,3.42-6.84,0-11.63-4.5-11.63-14.88,0-12.71,6.78-17.56,14.31-17.56,2.57,0,3.99,.34,5.19,.63v-11.97Zm.17,34.49v-16.36c-.97-.57-2.96-.97-4.45-.97-4.85,0-8.1,2.39-8.1,11.06,0,7.18,2.85,9.86,6.5,9.86,2.85,0,4.79-1.42,6.04-3.59Z"/></g></svg>